<mxfile host="app.diagrams.net" modified="2022-03-01T20:02:56.818Z" agent="5.0 (Windows)" etag="OVE5VW4mdRbo7Fw2aZf3" version="16.6.4" type="github">
  <diagram id="VDU5fSppzEgstcUrzkzh" name="Page-1">
    <mxGraphModel dx="1422" dy="792" grid="1" gridSize="10" guides="1" tooltips="1" connect="1" arrows="1" fold="1" page="1" pageScale="1" pageWidth="850" pageHeight="1100" math="0" shadow="0">
      <root>
        <mxCell id="0" />
        <mxCell id="1" parent="0" />
        <mxCell id="KdMMTkpKPgB6Y6iA82Rx-1" value="" style="shape=image;verticalLabelPosition=bottom;labelBackgroundColor=default;verticalAlign=top;aspect=fixed;imageAspect=0;image=data:image/png,iVBORw0KGgoAAAANSUhEUgAAAjoAAAE9CAYAAAACpcjlAAAgAElEQVR4Xuy9B5zdRdU+fra3bOqmd1IpoffeuyIoRRQQVPQVLBTp0kFKAOlNKSIIoQmIvlJDCS0hhZBQkkB6b7ub7bvJ/3nm3tmcnMz33k1e0f9vP7N+MLv3fsvMM2fOeeacM2dy1q1bu07iT0QgIhARiAhEBCICEYF2hMCECR+73uREotOORjV2JSIQEYgIRAQiAhEBh0AkOlEQIgIRgYhARCAiEBFotwhEotNuhzZ2LCIQEYgIRAQiAhGBSHSiDEQEIgIRgYhARCAi0G4RiESn3Q5t7FhEICIQEYgIRAQiApHoRBmICEQEIgIRgYhARKDdIhCJTrsd2tixiEBEICIQEYgIRAQi0YkyEBGICEQEIgIRgYhAu0UgEp12O7SxYxGBiEBEICIQEYgIRKITZSAiEBGICEQEIgIRgXaLQCQ67XZoY8ciAhGBiEBEICIQEYhEJ8pARCAiEBGICEQEIgLtFoFIdNrt0MaORQQiAhGBiEBEICIQiU6UgYhARCAiEBGICEQE2i0Ckei026GNHYsIRAQiAhGBiEBEIBKdKAMRgYhARCAiEBGICLRbBCLRabdDGzsWEYgIRAQiAhGBiEAkOlEGIgIRgYhARCAiEBFotwhEotNuhzZ2LCIQEYgIRAQiAhGBSHSiDEQEIgIRgYhARCAi0G4RiESn3Q5t7FhEICIQEYgIRAQiApHoRBmICEQEIgIRgYhARKDdIhCJTrsd2tixiEBEICIQEYgIRAQi0YkyEBGICEQEIgIRgYhAu0UgEp12O7SxYxGBiEBEICIQEYgIRKITZSAiEBGICEQEIgIRgXaLQCQ67XZoY8ciAhGBiEBEICIQEYhEJ8pARCAiEBGICEQEIgLtFoFIdNrt0MaORQQiAhGBiEBEICIQiU6UgYhARCAiEBGICEQE2i0Ckei026GNHYsIRAQiAhGBiEBEIBKdKAMRgYhARCAiEBGICLRbBCLRabdDGzsWEYgIRAQiAhGBiEAkOlEGIgIRgYhARCAiEBFotwhEotNuhzZ2LCIQEYgIRAQiAhGBSHSiDEQEIgIRgYhARCAi0G4RiESn3Q5t7FhEICIQEYgIRAQiApHoRBmICEQEIgIRgYhARKDdIhCJTrsd2tixiEBEICIQEYgIRAQi0YkyEBGICEQEIgIRgYhAu0UgEp12O7SxYxGBiEBEICIQEYgIRKITZSAiEBGICEQEIgIRgXaLQCQ67XZoY8ciAhGBiEBEICIQEYhEJ8pARCAiEBGICEQEIgLtFoFIdNrt0MaORQQiAhGBiEBEICIQiU6UgYhARCAiEBGICEQE2i0Ckei026GNHYsIRAQiAhGBiEBEIBKdKAMRgYhARCAiEBGICLRbBCLRabdDGzsWEYgIRAQiAhGBiEAkOlEGIgIRgYhARCAiEBFotwhEotNuhzZ2LCIQEYgIRAQiAhGBSHSiDEQEIgIRgYhARCAi0G4RiESn3Q5t7FhEICIQEYgIRAQiApHoRBmICEQEIgIRgYhARKDdIhCJTrsd2tixiEBEICIQEYgIRAQi0YkyEBGICEQEIgIRgYhAu0UgEp12O7SxYxGBiEBEICIQEYgIRKITZSAiEBGICEQEIgIRgXaLQCQ67XZoY8ciAhGBiEBEICIQEYhEJ8pARCAiEBGICEQEIgLtFoFIdNrt0MaORQQiAhGBiEBEICIQiU6UgYhARCAiEBGICEQE2i0Ckei026GNHYsIRAQiAhGBiEBEIBKdKAMRgYhARCAiEBGICLRbBCLRabdDGzsWEYgIRAQiAhGBiEAkOlEGIgIRgYhARCAiEBFotwhEotNuhzZ2LCIQEYgIRAQiAhGBSHSiDEQEIgIRgYhARCAi0G4RiESn3Q5t7FhEICIQEYgIRAQiApHoRBmICEQEIgIRgYhARKDdIhCJTrsd2tixiEBEICIQEYgIRAQi0YkyEBGICEQEIgIRgYhAu0UgEp12O7SxYxGBiEBEICIQEYgIRKJjZKC5uUVycnIkLy9X1q5d575dty71r//h9/7Hf+c/49/6d16X9LcVv7Vr17Zeq9/h26A/47W5ubn4L0daWtZu0N7Q9bzO/7Bf/Nv3z3/H54T66D/z9+h7Q+9K6hfb7/HS+Npn8Br9/YqVK2Xa1E/k66+/ktWrK6Vjx47Su3dvGTFyS+nfv7/k5edLDv4HONyP71fS9LZjZNuyOWohNO5+7P13Wlb09VqWNEb+dysLvF6PBceNz6M8ZOqzHdtQG0L3Wxm37U26h+22sqLvJe6+7b6PoT5nkje2zfcj27y042H7YecE5aitGLVF1rSc2+fq+az1TlKf/P2Z8A3pJC07us1Wx4X63RY5tOOXhF9Ipuwcsu33fQ3Np7bKpJaBkDxoXCmbvg1+fCxm2XS7xtX2J5MOCOnEbPKr57e3JcTMmy+aLS/TVhf4v0MYh/qYpMsy2UMve5ujX/+v90SiYxDUwu1JhBcwPZn4uzeQIaWjBcbe74XY359JuELKKJMBtALh+xBSUpmEJzRBQ0rVTtaQskpSTBZfO0nmzJktD953r0x88W/Ss7ZGKvJzpASTtQG8s3JdjizFv80VPWXrffaRbx17nOyy625SVFS4wWTW/baEzpJZPZ7eCGcy1tpoJCm0kGLlZ14R6XdqOUlS+lYhWZkMESUtq3bMMxE0L6eaROmxtDLl+xSSzyQDot/B+zLJaVJbk3Cz42NJQ6Z2+naFjIuVZ200rC6wbfZYWkNh+xDSLyFyEJrvluhbEpO04EjSWZmMl59TetEUMqYaB72g0+3X45GkV/i5/87qX9tPj6HX6SHMrQ7wz85GMPUc9rLiFxqZdIHVB1p27NzW88nKY1vm2rqWFmlpapIcLojz8tzj8wryHfHh/e4XtWgPzaMQoXFyAhK41i2u8lof4Z6JnxCh85/rBbeV3W/y70h0DLp2wnplqSdLSPGHBonXhVat+n5/n77WG1fvYQmtkvx9IWPt22pXqNpjE1Lgm7o6tMook6K0hEMrY6ugOIGeeupJefKWm2WrVUtlSHGh0KcGvwWnEf7DBHMDg0mGSby8sVkmNTRJyY67yjm/u1x22H6HDbxw2QxEJlIRwjCJ4Fo8kiZukuGwHrNMht3LlTaIIcUYMmpWEWczulr5e0NDpR4yLFrRWeXsnxMyYvodngD7eeJX09lw823zbUgikR5nr5h9X/Tz/b0e09Cc1/0IeWOTDJ416Po52Twi/pnZ2hfymOo5n6SDtDz58bM4+s81MdXYtcXzop/h54meayFZSfpMz7MkL1ZoLOz8tPIcWuToNlijHjLyWpZTtiTshffP1cRRt0ePZ9ZF9NoW5+X+6o3XZexF50gOSE5RRXfpMnIrGXLI4TJwz72lqEOHVrLi26XxCOkeiwf/bmlslFy8yxKm0Jh6W5qkF7/JzyPRMej60FVodZHJQGilrhVKiFD4VyZNvmwTOqQMrXfICi2/548OFXiloFl2kruebcr0Dqu4QkbAekl0yM0bsyZMnOuvv04+/8sjsnv+OinDJG1kOBAvSFEc/oKwYkuTDNz7QNn3qutl5cwvZNKdt8nMz6bJm+vy5de33SlHHHF4a3/teGTCImmyWeOs+2sVewiLkEyEQjJaWdp3aOJr26kJSOg7/1kmN7THJURCvWHUZMyGTG1/NPEK9dUuAqw3xyrbtpC20PglESQ9Z60nzCtl7Z1I8ja1ldDoMbBG3Y+7JdY2fB5qQwgnazCTCJT1DOg2epnyhCYUXrNGV8uvxd3qpCRZ13Jvybv/TstOKGSrySzbr4lhamxT+jBEXJI+4/X6OZ60eBkJkUffZ+3tsItT/9xM89vKaui5doybGxrk06eflE8evFvqli2FBwZeGHhd+u+5r+x31e+ly6BB0oJUDU9SNJEJzZnWxQ1TEPCcutWrZOwlv5V+e+4j25z0A8mnN51hdDQuyXvqdUySnv2mPo9ExyBrvR4hAxcyWl4QtbCHWHGImfsmhBSWVQ5JCitbWKkFbkz+FMB1uX6SbJiDpJW9bYtVDCllsT4/yBKoTCso/Wz/DP7b2NQsV/7uMlk85i+ySxHzbuDF8TlPrSxnPSLFHTvJLudfIsMOP0py8vNk4gP3ySRM6ufXFciD/3xFBiB/xz8/yUiFJpYmddnGRCt6f601miHi6vELGbJM7wx5fayHKZMC97Krx09jkMl7qO+1Mptk1Gx7M5E7bVj98+0qMrTqt0Ygac6GjIV+pybySUbHepd0O5M8T6EVuG1jaP6G+mV1j/87RJBC+ifpfi0zVn7aMnfsnNG4aNnQeiE09ywRD7XXPlvf4/WvfqcNlXkZ19eG3ut1no/u+EiPNeah/iXNoyQCYPsZamMIi43sTeoiR+DWIccsvyBPqlcslwn33CWznh8jzQ310lBXLyO+fZwcfOOtkltQ4EiL9shkWgw57GFLvn5nrLx39eVSuWCudB08RL716JPSsU8foaPAtzOEaSQ6Ian/L3xm48t6UvF37e62CsFOwBBZSFpp6cli3c521aWfa5WQVrb8zv+9atUq+eKLz6VLl67SrVs3KSkpkbKyMkcE+JPJk6UVrh4S7RHSCbHaeNj2hdzanGikXNdfd53MfvRBkBzGfdH2tCcntULA/+EXH7xyJMg1bK107N1Peu6yhxTCHfvFM0/IrDW1Un7amXLhpZdJPjxCmWLduj+hdut7QwmJGhutOLUC4jWaFGqvWZLB0wQt6Xc7PSypCE0f30e9GvXXWSNkV69W3rUy9qt+jUcSKdfEzytF3daQh0y3UT83iTjxervq13PMYxoip5o4bmRIzEYET8R0bp9taxKJsbLnsbDEOMkbZr1N/r5Q36ws6LHWBimJ1Ngx0+Nm541tR2iM/ZzQfdAeRf2MpMWAf67vb0g3aXm3cp5Jjpwcw6A319fL2uYmp3cKSkrhtSjaKCxuybjH1vZHe5ItJkn32EVTCDcv6/zXYuVIDPRofmGBfPLk4zLumt9Jc2ODlPfpJwdcf6sM3Gsv/N3kvrcbA6zs4+GOPL13yw0y7fGHHT5UzIfecZ8MOfjwFC4kWGiHJXR6rEJ66Zv+LHp0DMJeYYXc7n7SpIRtfY5CUjxcC3PS85KusRM0ieyEJkJIgdbV1cnbb78l48aNk8WLF8vAgYNk5513llGjRknPnj2lEILOH72S9STIemu0YrFu2BCLt0Y/NSFTiWv8l+9+9IknZOz1V8l2jbVSDHLSzEQ3KhtiDd9O2ve0PnzFyeQGgm7UdXgOJh0nWl6+FGDyvVheIWPGviNlpSUbheu0wbOKQys/rcA9ppo8hnDW46HvCV2rx962yZJk/SyrFK33wZKn0LP1u23brJLyz7N5IbzPj602rn4lnIlg6j6EvIHW4No+WcXI70OG0rfR9zeEjTVU9tn+Gb5Nvl9JnjQ7rklzNInw6bmv55qVzaQx9O23JF2T0SQyab1PVg693tOY2XliMU4iT6E5kS23KIRtkj7yzw/NpUxtYgJvAcIwc95/Xz68+TqpmjsbeSgFsu1P/ke2P/V0JPQWtC6e9Du0jNm5b3O4LM5axuwCwT8racx0/9xiDPqT61dHekg8QEhykEfzyeN/lnHXXu6+a8E1+175e9nmuyfIWvQ3Dzo4xVPW7xreQH6amx0Z+uJf/5S3Lz5XGtZUu2u3O/Wnsvv5F4IAFm9wr5/fFgdvU0Jz7Jv8LBIdg643GlaBJxmwkFvUKsbQoGvlkPRsbaC0YQit5HQ3rGLVRoDXVVevkVde+Zc888zTUlNTJwcffKAcffS3QH4Gw1is33ZuFYRVtKGVoH8X25gU/9eKmKG06TNmyO2/Okt6fDZFBpaWSh23y6d3w69PP1Y5OniA3yzvN/63GiFMvgKQ0Oer6uSRCVOkV6+e7nU6JOnHNoRvyMAmGS7df/3MENlri4LWXoFQ2+wYJxnkkPx5IxdSsDbZNFP7Q6TJy4WdM6H2auMeIi9Jxnxz8LDzzo9BNo+Rv08nKVsPmH52pn5YDKy3xY6h1QWhv/X42vEIGV5/vTXEfpxDZMoaKD1utk3+u0x6TMuInmP+c52/p7ENzTEr31qfeDkP6Vcvn7ze6qYN3gOjzpDOxIf/KONv/T3j59KIfJehRx0j+1/9eynt3MnlonAjRJIchHSl7VdoLoTkPzQWetx5D/uTj/B95YKFsgL6tO8uO0sRPPZ+a/lakJ03Lj5fpj/7lBSWFEsjciH3uewa2fG006UJfcsrKGwtBRFsJ3UoCBGfMfOfLzpPTrehw+WoBx6Vsp69WnGwutXmQ7KN/42fSHQM6raGRSgcYD+zSsA/0iqQkAtaC7b+PtvvmhmH6uLY3WPag5IHNu8FcOLESXLXXXfIkiVL5NRTfySHHnoIwltd3GpAJx+mlEOKViT1X/c72/X8vgUKhbsDfn/dNbLwT/fJTmVFUo93tFb8wS/udxWyaiU2qY9TP+kbcrhtEn+S6Ly8pl7ueOdDkLcBjuRYApMNX93PpN+twbS4WFLBNiS9Nxt21pjqd2kRDtVg0UrR3qdlx78jGzZJstfW+317k9pl5dmJgFpp2vEIjY+XvxAR8O0PbYnONB+1TGvMk94Rmpe6XVomNXZJ78kkk22Vn9DYZiJ+oflur7fjbvVcaLzaek8Ir2xyZuXFylkIXy0T3ElUUFwkEx95WD665Tp4RJpBBppk2LeOk/2vuk6KUcfL57VouczUriSdmU2HhOaItTfuGciNyQWJWDR5irx2zv9I52EjZbdzfiudBw124bbpz46R96+/QhpRpiMPXu/GhkbZ4YwzZc8LL0vrz/WlHfQ72U8SOmLywR9Gy6dILSjr1Uf67H+w7HDqGdIVCc02x8fKmB7DmKOjNcd/8Xdbg6ItTQkRGGd/0/H80MQPTf62vOvfdY1NTv7ggw/lxhtvlKFDh8jpp58hW221pXtViCTYNiT1L6mtvL4Jicf05kya/pk8/JuzpceM6dIDK41mxoFdPg5LAMLtytoqPu6b+sQ91ucmp65yqi3Fd3A9yu3I36oa5I8fTYRHZ/1qw5KdTcUySYFnMkx+nP27Nke+NkdWshGq0Bhm60c2vDZHDtr6zk19tm9rEqkJ9cUao0zX/DvmwObKQrZx2JR2b86z/hP32PHeFHkOjXlb5cxd19yIME2RfPzIn2T86N87okNiMBxEZz8QHXp0uFvJ1acxhVc1ed6Ud2bSlfo5um+hOUEdN/7+u+XdG6+T8k4dZRTITHHnrjLp3jtkzfIl8Pr4FIVmKcHn+159AzZzHOmIktO17r+U7fJ9JMn58PabZcrDD7rE48PveUi6DB7UWq8s0yJS90svkP4TMqTfET06BnG9VdC6WEOJqdrN5x+V5PrXr9Ju3pDL118bWjEkPccKj16d8ju9ElhveFNVdX2Ozj333COvvvqK/OQnP5MDDzwAScsgH+lq0bwnW7tt35PaT29OIeLgt995l0y79QbZrThf6lm/qrUTKeJCErPei7Oe3rS2n7k8+FjTH+boPFdQJs99MEFK0zk6bZ1YmcZCP8P3y7qareehre9Nus7irZPN2/Ku0Hhluq+t/c/Wr815jsbUz7Vs8u/lOlSsLVsbN2W+2md5F33KCG3sMWzLeOr5pJ+3wYo67ckK6Rk9p7W+0CG3JB1g77VeKes18OERnX9l32N1Vmg8k67x7fGY2JCVNaaZnu37nNQnq8da4zvpxjH5OA9EZ/KfH5IPR1+P1d5aF7rSRKcZCzUygtZ2pbdkOQ+I+pxt8Mm5wTanY0u8KgdlM3QCvW+na5aPQa0XWvfbBvMsLStVC+bLW5f+VuZ+8C73ariffITiclziTnpZiDY2g8B0H76lHDj6D9Jz620Qmmp2ZMeNcbo/JDkf3XGrTHnoPniHhsgR9z0knZHfyXuZC6TDd1YnhuZA9Oi0VSv9B66zO69syEE3IaSIk5RzJgMTmpRaESdNWs3qtTLUiiLJk6GVmQ9tuZyZ6dPl8ssvl/32209OOun70r17hfPAMOQVWsFkM7gWD6fUaSDw39W/+bVUPv+UbN+5XGoQR/aHGKyfwBt6dlKYpOjQOsaq0luy3DtSM1+qQczmHXSkjL79Tink9kllLEKKX+PM/un6MLbtWvnoMWnLOPh7s7n+Q8+1GFt58H1oi+yF7vX3JfVDY5TSu2lq6beyckwDR1BombR9sCRRY+vfoQ2sfae+X2O6kQFIGwT9TP17pnuT5MXPKX9vaGt5CGc79rZNoXG0+kb/red2Ns+yxt/uzuQzQ3krdsyS3pFJPqynzL9b72K0c9Sv/u1OID22Vi/bcXR6RuXRhMgSvzfFgdNVg0Um/flhGX8LPDpr06Gro49Fjs71UgJPCYmOrzbsxpnJ8BnyT5xnnPMG//mcuBQhWj+aIQ+fnpd63P21/hmtNivdjhWzvpJ3rrpEln06RRqxEYUJx+4H72Poir/koLZaI7aa99t5N5CdO6TLgP6pujr8FriwDs+Hd94OknO3dBs8VA6754/w6GzhrmFfQ3ZSy1EosTwSHT2K/8XfbaJvSAmGdpNYT4ZV2loAkroXWn3754aUUKhtfLY1VpZph4ibN/AMadG70wBX7aWXXsynydlnnyWDEIulZydUaCtkwJIUuMeBSWlLcW7VHWf9XNa984YMLi+Teu4OSM3FDX4CJXTc96kdWVDQ6oJCTNDXquvkjAceloMPPWzDXVpprZLJ0GcSPa10QlWmfZ/t2FsSod9vZUm/Xyv/JIxD461XtH51yfu94s/WTksoQrLs26nbGGq7Ni4W95Dh1fPEzgc7NppEheaObXeIZOh++Out0U2SiaS+Jy0s9Jzw880/O1P7Q+8JzeEQvv7eUI2gtrzbtzkTSc0015PwtfdYQqllVI9jqMRDaLxC88ri6Lwn0GlVCxdIQ2WlrMW26zxsIS9B+Y2O2Ik6+bFH5f0bryIDTOXogOjY0JXvH8ezobZO6pYvk3r3rEZX26uwrByho85SVtHNXcokZs9uGteskfqqSvc5PUhlFRUb7VzyskTPSi3q4ZBQcQdYSdeuG+z+2mAuQY/mY8FK5830l56XWX9/SdbMmyPrmhrRttX4b1X66AZ6b/KkHkRowB57y8G33CHlCPUTEyYefwBPzlR4crptMVQOuTtFcpjU7D1ZXt68XtGk37fbjut/K3wVQ1dGi2lWrVcVWglqg2EVvjY8dgKGJqQWUPt96P1WWeqaLP7d3giHttt64eR3lrh4ZUiyQ0LDv++9914ZP368nHvuubLNNtsk1tvx+FjylaTQeF0lFMPo//mZNL3xLxneqQN2W5Ho8H+tqG5AVNyz8J8mQimOk2Y6IDL1UCTj+g2RP//9H25ruV0lhUhOyJB5Q+THWt+n+xjasZRkUK2x0O8NERFtzEJyopVsaHVlFXtoRWsNbMhjZ42VU8zpAzltG7VRSsIs5IXQpEU/IzS/LG72et9v7Z3zXrqQh0ArapuTlgn3JFnSn4d+9+332IWOeslEyuw817rJPtPOS+uRScI3SXZCn4fkOslLFupzaP6F9Jz/TOPn541eaIa2wG9wb9rrUYUNGNOfekJmvvyCrMaBwU0Ip5eUlUrvXfeSPS+4ROaMe0c+Qlgdlh9Ep7E1Gdnn6NDg810kVUumfSqfP/u0LBj3lqyeN9uFgRgq6lDRQ7qP2l5GHn+iDN7vQLdtnePN+96+AZsw3n3bkZdiHNGw27kXSS+U+3Ayk/aU0otOkjP1qb/KF08/IevYxu49ZadfnSt9d9zJEQ96ljayLXgGv+OWcP6Q9LDC/Lyxb8rkO2+RpdM+ce9wHi2QnQbUC+q/6+5y0Og7pUOPHvLerTfJJyA5XbcYLofe/QDIzhYbebHs4l7/bRc4/u9IdJKk/T/8eSb3oRMYFYPNZDRDCsVeb5VoksLWk94qFe0WDoVceH3IhZi06vRt9AqEoayXXvq7O3vq7LN/KbvvvtsGZMcanaSVmTWoa9N1Ga699BJZiEz+3UB0qqgAUnN8fbJxesJvoMzxB8lNit749GQRenNeWdMop919nxx+xJHBUIqfaDppUBc71Fhn+l0rTj2JQ/ITIg/asIfIkh1n/beu4+INsybFIUJjn5epzaHwRJISy2ak2oqnJyVWeWpClUkVWGKQjVRacmDnmP9bbytPIoHayHjS5HVFKJxn54x+d4h4avIVwqmtY6N1hZX/UE0gO3b8W3ui7FzPRHh0n0M4JhEwf5/WY1432e3/ur0apw3uhf5m2KVq0SJ57YJzQWbekiKQAXo2eETCOtTjampqkc4oqFfWt5+s/OxThH0aN0pGZujKeZ9BMj7727Py3nVXSC2Ksubng/j4sK7DiyEeJPri9+1/+kvZ45zzU94WMI9njj9Glk6dlCIpuGLwYUfLUXfd37oA9e2uXrJUnjz6IGmsWu1IUnFZB9nvpttlxGGHpwhVIKWg1eOM/q4FUaNGpfc7D7vJKucvkHevuVy+HvuKWznmwUPUgrykAuzO2vf6W6QaHq6Pbrleug4ZIYfefq9UDB8efI+dj0myqeUu0xz+Jr+LHh2Drq6jow2G/z1bbRj/OL1y8QohpAj0d21JqLTP8n+HDEK21ahVqtZ48372l2Tn3XfHyX333SO/+MVZsueee7bm7GhF5I237Udo1d8MolOA/Jk3xr0rj5/7K9lyxWKpQLVm1tDhpE8KV9nJ4BOVi0FyPkVNoObDvy03ITenqJCnmIeTRENkzPddk9GNyJlJNNRKX4+7fhaf0ZbCchv1Kx1qChkxb0xDxl0bcD/+SQbJGmh/ryUb+jne2PFfW5uI92nM/POsXFmZyZTbo9uu26v7qedpUl0ra6Ct4bWVvZNw133S/fB9DM1hi6eVKy1zfkyTks6zLVrsmFodFsLQ9iNpfoQMkX2exyHTe0P9t2Rfj6+dWyE9ZcdFLyQ2kBX8wdyTd+FN+eQvj8CDUwYj3ujICQlEfojhSFcAACAASURBVHGJNIBQNOGohJTHA3mJPG+vvqE1dMXt5cx54dlOM7Bx483zf5natg3C4Lw4vftKYWk5EnbrpRpHJHBRx5yXBrz3IBCULY85zs0TV6cHhMInGhfD+3Pyv96CF6YwleScDrXP+/BDeeGU72LzBjaGNDVI58HD5PjnX5YChLuc50cNjJW1VuzwC69LFQcsdKG6d6+7Smb8/Xno8iYpLe8ku194qaxZslgm3vMHqdhyGzkMFY87DxyY9k6BJpnQvx5rPd5aJvTnWneEZOmb/CwSHYOuDQWFVtZ61WYHNURmMl2TSfEkKSA98TOtvr0g6vi89jhoBatXPV4g9Q405tSkau7cKT/+8U9kr73CZEeTGt3+ENkhmclFCOSeu++Wt+Aq3UkapRsnM5WRN/QJlIf3Mpk5D5OPu6xmIQz29cht5daH/uyKBOq+2XbYfltjqhWjHmtdV8jWn9GKNlPYISRPSeNpjVaIQNq+hfoawj6pjxY3bTCs0goZNUuuNS4hgx4yWv49SYsK2w47nqH5mRRKse2zCjvb97ZatJYl60EJJd/y+VauksYgE/6Z5N1jHNJN/M4vkpL66p/tr7PXJ8l0iNBkWzxomQrpNj1XrH7U3wX1djqU8/Xbb8sb55+FXJUqR0yIf4+tt5Mtv/9DKUNYaB7OcZr54nNSh3wWF/4HSWHSLuvoHOCTkRHKYkjp+R8cL0unf+K8IQwVDf/O8bLL2b+Rzv36Se3qKvkYW70/feyPjmCQMBV36y7ff/l11OIplxWzZ8sz3znMHTPhc28Ou/tPMmjf/Vrz6UjKxuHIhamPPOhqjvFnyJHHyGG33O7CaazSnLTg0eOpsWL4iwURW/Dst668VGaPfUt2xgK2btVK+Rgkp8fW28qOZ/1aem+/k8st8gd/ZiLs/l3WW8fPvUfS2xjflv/kv5HoGLQtEbArVDvRtBKwRfaS4v1W6WqjE/pdG4OQMmqLcUpScrr7mSaM9+xMmDBB7rzzThfG2gXVNxtxTgrjyHZShdrksbRbKPnsP/7pT/L+H++TnssXSR94kDpj1cH8/xYsQ1rSeyR1FWS6YQtBcGoxaWchUXAZSM7Ft94m22y9dWLtn5DRzqSkNe5tXeWGDH1IZkKeipAxTiJNSX1JUm7ZjI6VKyuH9nvtWQiR9RCZtLIWqgRtlV9opRjCaQNFnt5ll8krkzTP/JhnGm/dXy3LvCcJZz43KeydDSvbN52DYvGy+ig0Nvp5SeTJk8UQgQoZKCv3SUYxiUjyfv+MTAsP/W5/nSa2GTGmXIC0jL/7Dnn/thulCFXYm+rrcIr3EDns7gelx4gRrY+f/sLzKLB3pTP+3Jpdz4Mw03V06NGhDE7723PywbW/k7qqKtyXIz132EmOfgBeok6d8NwGdw29J2OO+7YsmzbZvZtb14975mXk4mzn3vXsScfJsk8muhyaXMjP8O+eKAdfd6Ora8NdUXWrVsuzJxwj1fORTEzvOrxO+9/4Bxl60CHub4atkrDX42xxI0nj0RBNSESunD8X1Y7/7ooBVozYRnY59wKZdPftkltcLAf8frR06tt3A7JjdU+QVCbMQR9iD8nQN/lZJDoGXU9WvNLSis//bleMdqDbwnyTVmAho6iVsn12ksL2bfKClc1TZZVfiKjwM3p23nrrbXn00Ufkt7+9QLbccuQGYazQpEt6FvviDCZzc/DvK2PHyst//rM0TBwvhSuWSEcoj+44xbwMK5k8nmmVzstpQTuq4W5eWN8s1XC5lu5/kPwPzlsZNmSwm5C+boXG0oYEkkIZSW3VuRpJEz1Ecqw3xRpf+yzfLq30tYi2xaCExtIakaTnW3m3hsPelzTeIYOfSY4tsQgpTz2eepx0G9sSWg55hJLmVdL81/rBXxNqn+9z6DmbOq+TdEao7ZaA+Xdpkuj1mNcRoaTokEyHZMd/FpobIQyy6T99jzXYIbJkDbl+vvudu5VACuqrqmXs7y6UL5GAzKMQuFNqu1N/IgdcebXz2ng55HfvoOjeZFRsL4D+YcFA7rra98prpQiHB/NZr114nnz5wjPQiagBBq/M/tfcJNud/MPWLePpnGJ556YbZerD97n8H/7sfuHlsv1pZ7h3cQv7Bzdc5aJXOFBCOvQfJCe//FqqRg3+WzJ9mow55lCEqQqlCeSky6At5Pi//dOdLeVwSIeTtJ4JyWPrZ+lKx/PGfyRf4jiIgQccLJVzZssHt14vFUNHyC7nXSifPvJQqgYP2jRo3wNkv2tucB4q79mxNkd7+JLmgJY/Y3L/I39GohOA2e680iQhZAgtObETM0lB83O7OtXKxxYvtPH5UFKffmampD+rkLQizhQOoyEh2Xn++RdQWPBfcsUVV7rT0PnDz21IJ2RU/Lt4/csvvyydsALabbfdXS5QAzxEJDyT33lLaj77TJrmfi0NK5ZJLuLd7jA6LH1a8oukqFdvKd9uRxl2wEGy7157yAAkDvI7P6GSVqpJYxWabcTI45SUVKqx0uQy5Bn0/fa74axhCRkEPS7W+Gs584pOu4mTDHrIyCRpmyTCYRVrpvt1v5Jw1orQY2eNVSaCYudckjdH42TblUnuNQ42BBUaN09YQ3JoMQiFrrwe+L9aAY+hzeHzsh06xV7rpKRE+bbOI9033mPLd2j5TpKNkKxZ3Za1grvzfuTKiq++ljcvPAdHJUxwnhp6Yna/6ArZ/genuCNpGNLxYaapOO37/ZuuRRy9qTUZmUSnGEQnD7rquZO+K/M+el+K4PloAAkZduS3EPYZldqCneqse97898bJovHvQ5ekTv/e9oyfy57nXeAWd6vmzJWnQWSakRPECvB5CIEd9fAY7KjawbVn/IPY9YqdXwxRMVy/xRHHyOG33o7rUbBP1Qjj66zMbWSrmJjM3EgkJL/9+2vkowfulY4o68Hif12HjZB9QdQm3HGLfDX2dSnENbkoYNiIdg3Ycx/Z+/JrQYSGom/QiWnC5haU6d25es4m6Qa2x+u+/6tcb+r9kegYxLShtoYkZHS0AtRegkyx+yShTFoFe0WqlZZvJ7/TW2f1tUmx9KQQlVfKIfLlvS8+aZMJbA8//JAsW7YcZOdyF8JKFd/a0H2vV3++/T4MNmnSJLn55pvllFNOkUMOOdSRCpId/syfP18+Q9GrVdVVsgix7ErsksiBF6e4Q0fp1h87Irp2k3IkL7fU1UDRlMiee+0tHTogsZB1KtSPXW1ojPV3ma7zj0vCU5NGj7+/J1T/yE7SpFCMVww6JOplMER6vSyE5Cg0tknj7dtnyYL1goVCsLr/SSQpRPRCc0vPP/1c7fXSBNQbb+ttCZFR/z7+m5TDptukr9dzLBOhCiljKyv6mpCnQmOVSf70dbZNoUWN7k+oD7pd2mBmGvMQEQ/VHLPz03qbQ1gnzadQcradg65dJDrwvCz9bLq8fv6vZOWMz922ah58uecV18mW3z7W5dw48gBik4PE4kk4AuIjFAzkvUwkZmXkfa64BkdAdHZ6bswxR8hiFOTjlnH+0OvDULv94QHF+SA1dL4044JtTz9T9r3oslRVYTzb5flM+dh5ndimbX70U9n7gotdDtGLP/6hLMc7+F1haZkccOvd2KZ+QCpslda3ocX3RosCkC+SM/4sx6Gfr597tiz74nN4ilAzDd6ofX53jWz1vZNk7GUXyiwc2skdaK7ECOvs4Pu+2+8ou557oQyAntU/buzSO9kyRQ30IjA0L77pzyLRSUDY1t1oyzZRPelCRkHX8EjyOCStANuyCk9SaNpgZHpvNo+BVjb0xixbtkxGj75FdthhB1RQPtEVGeROKv0c2+6U4sNkW75c7rjjDtluu+3khBNOSCkKkKWnnx4jX375pfTt00e22nIr2XvffTYYoXnYGvkllNW0Tz+V2XPnOm/SGUiO7t27l7suqeBjtomUlAuTdJ/F2noDeF/oM6/Es630k+617dEx70xb2y0hz+S11PLijYYlC0Fjosu84gLrTbD3eCz4b8hg2ZVhyOOSLTHWj0Oo9EIIYzsH/DVJZNSOcyZPg3+2/Te08AjJR8hDG9ILoXmcNLdt++1iSstrJu+lng+h/C3tbQj1w84LbRj1VvikbfFaloI6Lm2MF0+bJq+fd7asmjXDEYVC5Lzs9btrZeQxx7bupPLeEkd0eHo5c1mgm3zoijk4juh8B0RnKolOkauezEVYLkNK6e3lqWMdEHLH4oteHncEA/wye8A7MvyIo1qrNk9+7BF34KZfoHRBCOmkl16RFbNmwtuDoqcgHc0gX50HDpaT/v6aI0MMa/nr9b9WP3gSws9ZGHDJxIny8V23yoIJH8CjBYKGttZDb/fZZpQc9ae/gEyVIkH5MvnyxWfceYP0OhEn7jrr1KevDP/e96V8wEDgVirl2F3WC/dx2uuzskKeJb2oyqaLv4nvI9ExqFoDEKqx4hW2VVh6soWUemgyakXVFqWVdH2IXNh2agOWadWnIQlNIr9yJtmZMuUTEJbb5eKLL5FBqJ5MIhNKTvZ9967sMWPGQH80yfe+d4IUw036JVYZ9993n8yY8SWOnjgAn3+v9eRxrqbyMNnm4wyX5599VsZ/PEG2324HOR4EiYeQ8seGbDLhlISL7rce29B4W+McUsxtfV62iR0yjKFEdy1zofZb8q2NS+j6jZRmOsHQyrm9LhuJawtpt23z77DeKn2dJ32hqtVJxj8J+0zvCc1z+3yLZwijf8c9/rl6bENyYOe+HYPQfEmSp7aObzY9EpIvO87Z3hUaC21ofb9o8Jn3shLkgR4d7pRKbQfPlT0vuVJGnfRDVw2YycPc6cQTvz/5619S+TMI97gcnfTp5UXl5Y6Yjzn2KFk4ZZIUM9cHRGC7U34svXfZNRWiUnMl1ScQHob9EeYafOAhbhHkf1bPmyvPfDsVvqInpbCkTL4z5iVZgLDYO1dc7Ir+MT9x2LeOlUNvuhWhJnicXKE/eIR8zR63FT51fE2rbk97cbg767MXnnO7yZaO/wCHey5zW9ib4CEvLC6VLsOGy4D9DpItv3uCdOzdBwnQq+Sda6+Qmf94IeWhd0e7YHca9DXTA4hjIbzp5X37S++dd5etTvyB9MQh0Lrqc5K8xdBVNm3/H/o+tHrIREaykR09cbVSDglCiHz452dyL2sjy+eGXMEh46SfmaQck8iXfx6/HzPmKWEYavTo0a27sKyh4HXrd259LFOnTpXDDz/ceWLGYnvjbbfdKl26dJbzz78AFZi3dvD487W++uormTZtqsybN19WrFgpPXp0d2dw8Xpek1r5+1OyUsha4ufbw89Dx1iEsNdK1sqA9jZkwsiKbQjzkLfAPzOUI6Flpy2JgL6tWjb8eG8Ouba4JBkj/+xscyBkrCxxzIax9f7Y+ZXpHVperNzotoe+03KeaQ6F5m9IRrW8WN2i8dTvTfKgtCWUEMIlEx6h/iYRNv1sK/ca1yQC3lY8/XWhMFnre9MenTUItb9x8Xky+83XUsnI8HLseOZZsg9qyPBMKHcGFEtWYPH11vVXY1v3H13uIYkMQ1c+R4celZd++iOZ8xaeA1LEXVkHXDdatvv+yXbKb/S39jq7+Qsd9rdTT5Ilk8a7ej7MHdrmRz+TlZ9PBzl53e3IKkLY6uA7HpRBe+/tCJNOQtZzpbUOHIkdd3mB7Iy/726ZfN/trg9MDcjFWVfNIHUl5R1k69POlK1+cKp0Sh9RQW8W6wNVL16CMNZvZc7bb+BVqZQEvrNVj+L51L386TlyK9kPfe+9/fbpc8JSVV9DMq8JXlag/o0XRI9OApjZCE9oEvOzkKvbK2G7ndYLQsglH1IM2qCEQi2hVZo1QkkEIEkRW4OolY9PTF64cKHcfvsfZP/9D5Qjjji8laDod3lPzlyEm9555x1sTd9FRo4cIS+++KLccsto2Wef/eSyy34H704hYsJYUSGe7tu0YMEC+QLx5OrqNU7plMK9OmLESNTL6eW8R/o9SfkY2eaMHYMkfC2efuLaZLy2GIu2kNckYxEiG20Zf9vekGENkQR9XVvCamyLDUfZvoQMeRKB1O3eeLW8ntiGwiKZQj5anrP10RKNUH+SnpdN/uz3mUhQqP9a9yR9r2XSvy8pjJSk32w7k8JuIWKaCQMtC/66kN5Meoa9P6j3cDOve/em62QSSlnwuAfutOo2fKQccf8j0gW5f/5n2nPPygc3Xi11K7G9HIafu7Pc6eVMRkboiv1+99bR8imOSeCWceq37lsh/PPHx3DsA2rPMFcw7dVh+Mf/NNbWu+e1bs1Kf/HJE4/JuGsuTZOKXCnt2VuaaqpRvBDnZsHL06n/QNTfeRMhK3pYUmGrpDF33iuQHHqoxqOOz5T773SVj/MKGGLDrlQuOtG+7U77iexz6eXuOc31qbO56L3hffT4rPxqlrzx218hPDfZHQTaego7nw/93AObQSrhIVu1dKn0Bdn51mNPperu4Nl+QWllMRKdTdUE39D1mZKRM632rNvQCyH/tXkjVsFrpaK71ZaVc7bVlGfgeiXWFvITUoohZczPaNBeeukl+dvfXkBBwbtaSQrfY987ExODOw9GjBgur7zyilx55ZXyne98Ry644AKHEysm69CXN5ih4ba74ZKMZJI3IMkQJ+GetNvGrkhDhibJIFickxS27kOI2IVIjpVXu0U+JAdW/vxzQ7kwvDbTSl3LdcjrkNT30HywY6Lfra/X7bHv9LJqd3X5z20OXajvoT5rGQ/JaaZFiyZPtk+6yrN/hvZaaJkK4RsiD759duz955nusX2z/bJzPalvmfqcpHdC8m1lUvdB97P1ffTqwKMx7flnZezF54MMcNs5d3KulX441HIkknGZs7No0sfyxZgnZM2ype64BoZqGtIFA/e/6jokI3dyOSkrvv5K/n7a96V66aJUwUDormHf/q5s+b0TpQsOwuROKZKGGuQyrv56lntuAUJXu6AYH0Nj7ie9B70Smy/GfOsgJEQ3pAolt+b5pEpwbPHt4+SwG25xu62YVB2SZYd/uno7PTkTQHIm33eHawOJiU9g5vEVHXHExcFIbO69PXZ3IYTFkJ3WF0zMpldr7vvvu8rPlUsWpXeppeb8KJAk/rfwow9kxgvPylfwkO129rmy69m/du0L2Ti2ORKdkIb4L3xmk92s8glNxEyrZKuEvQBYz4/u6kaxVhPvtfcmeYSSVt5a0WhyoAUxlKzqvw9tnV6CA/Luvvsul1x8/PHHuxAWvTIWL48Vqyyff/65ctBBB7v8HirwFKlZ76HRipzf+Xb76zxmoR1ISYTVKvqk8QgRkxCBSTIYoXHX7fXJsVbEQ+3WGCYRj5AMaNnNZFw8mdTEMdR/+zwvO/zcJkJbGfP91IouJEeh+aXlzt4fMoC6ndk8c6E54vFI2v4fIs6ZVJV+h5U3fZ8dB9sPm4cWWlxpnLUsWdLrSYn/PMm7aGXeypHdgOFlKCnkap+nxydJ1+pdcb5/ocR7KzsaT/ddeqdSDQjMGxedJ1+/9YYUwzvMs6BIUoo6lMO4l0rNyuXuWISydNJxc0OdO718KHN0WEcHOTr+CIhx8OpMBJlgwjCPZGgCUSnvO0A6DxrsCBK3iNMrVLNovqzBv52QA8NjHorSO0RTi0GQLZCPF874oSz9+CN30J8bD5IwtK0QJ6ofjIrJA3ffI0WA0rk5GxHLNMnhQnL8fXc6T04zSExuHnJ84Mlx78K9DLMNO+woOfim26QA/Sevshi7nZ7pYy5eOP0UmfPOG253GYnW0KOOkUNvudOdGcafNdhY8gXO+1qN3bF74TBUVn3mgdF8nyejWldkmivf1HcxdBVANlSTIWQoQpNWP84rGq0wQwOpiYs2GiHCExJIqyysMdfKL1QUzHok/PXZlLJeZTKkxATjf/3rX/Dq3O12X/nv/YT0ZGbFihXym9/8yu2Yuvnm0QhX8ZTx9UnM2rBZxa3b5hWjJppJKwmLexIJtO8LKXpNDkOENUR8Q8bRGm39rFCYU7c5ZMBDK/wQibHEwYbdNpcceFysjNnt27advq+h/mks7fd2nobut33VZIHfbYoRtfNCG9YQ9lYuk7ZCW2MQWmSEiKwl2dlk2hIB/7fVF5YUaZxC8zHbe0NELzTP/Hz27QqNTZIhDO2qC7XVz4cFyCl844LfYGfTDHcQJ0MzfAY9IcyTKcdp4tudebY7CmIhdlbxZ+ghR8hBN94iZcgNJDHhDxOIP7jjVpn++KMu3ycPoSVyEZIN55jBfz7tmP8O3Gd/OfK+h1x+kE2P+OTJvyIvhp6m1B3uOfg/kqNT3nw/pU9V3Rqr9124CiGqj3Em4eT773AFBpmPg8akWoH7SXy6j0BODYoA9sHp53oOWb3l6glhsfqPX/5cZr/2D5e8zbycbz/8hAzYY69UrhAXp+kT0lfPm4eTz3u6LfqhH63vksbxm/o8Eh2DbEjp610coRV8yNhZpZLkOQitHrMpDt3kJOWulUWIaGUiMVbYQkZaEz/+zkn2FWK6t912mxx55NFIND4Mk6jFeXU8keJ1JETXXINiVR99KPfcc5/0R1zcJx1bw580WTyB9N+HPAO2f5lwDk1Aq4T08/jekPcjk1HWq+vQ+G7KmIfGPxs50WPosdD90CtwT0ztKt+PoyZ61ija52hj49/nP8u0UAjhlQkjPQf1e0LkKCnkwftCcznJUOv2e2z4jEwEJLRg0nM1k1ctSadoMhuaQ/qdmoz6doZIWmjOJ8mdx9tibcfbjnvS+CflMlp9EJIH21f9TiebzB/B/+g5XowNEVMeflAWT5wAr8sy1MvBwZ4gOBXYMj3i2BNkyIEHy8d/vB9k5wXYc5xjhdDWtied7MI8PrTE/Bvm+cz41z9lzpuvyirsHq1FmKcFBU55TT5CYaWdu0optmJ3GTpMhh5+lPTaYccNQvpeZmqxAByHQn6Vs2e5g41JdPJR52fI0d+RbU88OVXQMH3cjp5XbrcTfprqamXKY4/KRGwfd54cH65y+TwgOc0gOcO2lANvvE16jhrlKh2ndlRtWArDy7I/APQN1Nb54vkxqYKGHTvJSS++Kp1wniCPuWB4zmHOhSp3h6XykDcicXZ+hnT7N/lZJDoG3aRVYhKZsYOjDaqfyCGDEXK9WiWojUbIRawnsW5HyA1tFZc1fPYe33bbJv+ekDHktsp7771Hpk//DP/e6wiMLyJI0sOM/3Hjxrm8nLPOOsvl5niSs8HE5WpIJbPqtoSIpr7WGiv/3FBIKNOY+smeZLi90eG/mQynlodMYS5r7DLJlVeM1lBYQ+ixaIvhSJKHjQxFuvq0bp8mQFYmQ0Y/tPq28mkNdhKh1wRUE3pLTjxmIVxDxj+EZQijUN9DCjtEHEKG3m6Nt/PN9sMSTUtCQ/KbaXGk++3brD1OIVwyYarzE/1cCeXWJWGWTZfpNm5KKJQWmSSFW8lJeGpwavda1MIpregpvbbdDoUEGdLCziKQh1psx6anh6eSF5XS+6yqAqYtOzEl4WEC75pFC6UZp5nT41GE8Fdxl66u5kx5zx6t3bQYeGy4Fbxq/rzUUca4vwBVmDv27r3htnGTyuBr5bDq87/O+imKIX7mcoCoc1ObpXLdVvLuQ0fKASA5vbbdNnUieZo0aT2odQXDeSQyM1/9X3nronOlYU0ViFdH2frkU2WH03/amnjcqgNBnPhCrQ9t7hj//m/8RKJjUE+qwRFSOEkDtlHsNJ1YlqS0rELRyixJQWpjx2uStleHCE6SC133x/YhpAA1kfNE5s0333TnYF1y6WUydMjQ9GRLuWIb4Uo955zfSAlqMNxww43pGG5ea+Es3Set4EKf+7baVZ02fNni+CEjEcI79I6Q4QwZQksYk7wlti1WBkIKn9eEvEianGYzFH5c7fva4pmxXiS+15475fvlw5aW+IT+5rWpvjGkkMoDSPqxmGuZDMm+lutM89fKV8gzlDRPQ+9NmluZZLstMh4iRhbTJBJrZS4bodFylST/mRKEkxYpIRz9Z16+rVc6tIDQcy2TDnbfMSfQJSczxL6xJDgiAPnTO6Z4VdC773YxsfJw+Fn+6e4cvvSOpdC88+TLtsZ7Xiyp9uPh9X9TTY28fc0VMu2Zv0opPEEMY7lwFfRut2EjnSeHJId1eJy3J22XQuPu2pD+nrvKeMr5Z8886T4i2esxagcZAS/TSFSUZqStLZ5IPjISnYzq7D/3ZZJx/He0IGQYQgqjLe+yyksrBpvzYFeOfpJpxdOWa3S7kghUJcqWjx59E/JvKuRXv/q1S+rjewrh1nzuuedd5eMrr7zK7bryHp8QBklhitBkz+SOD2GZpLDt+HickoihXj0n3auJTZLBsW3UZC1b/or1VGliETrHSL9Lh1vs2LLdnnBovJLkLmUsUvWM/p3KjNW2fVK7fm5S0nYmGbVyn43ohuZECCdttELyZmUgJBP+PkuEQ7Jhr9V/a5nl70lhXX2PnWt6jrWV5PvnJc1b/70lI1YetcFM6rudj6ExSZJTPVZO/6VJygYYppN2XV+Yt8MkX0p3mnQnEUQ+y73X/5dSbK01aHQdGku4W8cdt7jcl/SPKwroHpMqCKhTK1KPZ05QKhvIh+Ne+SVq8MydjdzHYujYBumGSssH3ng7SM6oVLHBdFXlUN0h64FxOThIN6hevFimPfe0zHr5RVdVmvk/xUhO7r//wXIA8n1KcCRPaL5Yvag9taG58k19Fj06Blmbo+MnRtKKOqQs7T12coUMrSUOocmrn2vfG1J2mdocEqgkL46fUP79NqSmEzz53SOPPJrOwbmntaBfFepBXHXVVbLFFlvIr39NApQKa+nJGvJ22HdvOLlTvchmHHxftZLVz7Xjw7+TPEX6WZvybot3W42olpWklboee17v/7Ny6I/f8EmOIaJLZcnPN5essIp1bW2tq3lUXVmJ32ukCidGV2P8q6urpQarGP/7nwAAIABJREFUzto1a2RNTa07Q6epuUHqahtQhh6/gxQXQnlWdK2QEVuOlINw/hlzuPjjQ5xtxc2OH/ueIm6p3AefS6Ax8nKUeocb3bTy1r+vX/6vb0vqmVZWQ/hu+I6Nn5WkG9qif1Ljtr7GSohU2Dng26xJb+hdITlMWjCExihp3EJ6LEkPZNMFtt32nZl0tZ5DWiYyLWBCesPOOY+R1pmZ9EbIDoRIm32GJ1jM4Zk/4SMZf+dtshgHiXYdPFT2v+HWVLgKJIfJzD4vx+sJj1viuKfJDiN2y2d8gfDcV1KLnWk1KCpYgKTqbb//Q+y06tRKdELkxnvCNlevWP25qX9HomMQS8qdsSTAKhErjP577cq1BkkLq76/rffYwc5EFKyiChn9pAkVmpghJeJ3Tn388cfy1FNPyRlnnIGigCMdaXjiiSfk7bfflquvvkYqKiqc0SHRse/MtNrV7cjU90zGIkn5tUXBaEWQpKwy4arbnK2fug/es6IVqzfY3vPCf/1/NHabq1Ao/2tARGr4HwiL+x1kheSFv1fjv1qQFX5ftWq11IDE1CPxktfWg+Qw1RMOellLjxAazH9LkGcg2I3SDPd+LnZuuH+Rr9WErbNNyANgcbJVq1ZKOQ5LrMBOvNpVlVK/cpXk1zXKKJx3dhaIcW8mPxpyrPG0uGt3PAkUZc0fGLupSvL/pevpAaMc0AsWms/ZFgUhImTlNgmPbPeG5D8btpYsZtIB/llshw7lexKXRLZCBDVEwGxbLXnR79ftDumNDefy+icnkY0Qad5Qz6W2qfOH/a1GEb+lKPTXqd9AqRgxwiUea49SaEytDtxAftLVmDfwqnKne8optsHiyuo23fbo0ckm8f8/+N7uxNGDZr/zzQ25cm2835KrzbnHC3ioHSHXtHX9t7VNma7zlZJrUUX0PmxxLEe9iZ/+9EwYyBq5/vprQXC6y7nnnusMFo2O7rd/rv03SXlYcUi6z+Kix4W/J+EQ6mcmHP1zrWvZKzSvNLRyCn3mQz9MINxcpUBjl/KqVEvV6tUO/xpUWa2mZwWnwaeISg1IS7X7rhHelBp4WNbUrMHpy/BOwCuXV1IkNQhD1oLMcLx4ICA9MMzFYlHHnLIS6bxFfyQkdk3t3kB7eRJ0AQwsS83X4fpuICf9Bg+QTnBrc6XZBCLUqVNnnDZf7MgO388zfMpRip4HxHLFOHTYMFm9fIWsWrJMVi5cIF9PniolkKdzfnOeHHLoIa31Oag8Q/NPy4XPC/IE543X35BPJk2W+ThbiPj4fb9OEWsXj3tIymqkdr+0umvcjh33Xfr69VuH13t1XPiFV7nTpXEpwh8+14P91VuO6dN0ZyM5QUkZDCeXPD2apfdhSfg/XuMcUvibz2LBOpcXArzLkfA6EOfM7bLrrrLrrru4+5kPxy3THqdMumtDzEgS1odIMs0z+11bwon2nmx/e8KRTT/p59h7soXT/BzVBtnrDa8jQu308pct3cFel+m+0LUeV61jMtqIdKJ16/XclZVmQUn36X5maq/fUu4WVenEYo9bkh3bXD2WTTY25fvo0TFoZQtdWXAzrRI2ZSD+X77WY5AyLAISkyd//esT2H01Hfk4V8v7qK75zDNj5NRTT5PtUYmTK2zW2Qn92JVUkidtU/EKeY78M5JWb5lJiTds6VCIs1KpMBo9Kn632eZMcmLIEE8NiMdqEJXqqiqEd+qcR6US4aA1+JshoWqQFP7Oz+uwO6QOxruJ1aVhFElYWmhk0R7+20LDCczpRakDseGujOIOKIEP0rJ69Soc7lcsnbpXOG/MmmUrZOX0GVJXWS255aUgPcXSpWcFCEuF1II81YIw5dEew5h26NVDhuyzp/Qc2F9yoVB5+GElDgUkFv0HD5TuIDus5cHCZ/XVdbIC7u7e/fq4OiPsAxPTSYyq0C+SqDKQJRp5VlfNRW7AotlzZNbEyVI5bYZc+NsL5Ljjjm0tMe89WHYcOW7+XDV+98hDD8s/Xv67LKmF9wm5zTnFBc7TxAqx/OG5P84A4P1OFiQvtT3X5UesQxE5Vo0F+cD1ebkgDyQfGGNXaI7szOGcOuyQzykoLJYiEPm6ylXYglvv3Pr1CBu01DbigEgcb8IToXEydFMTTqVGdd58YFCM/3x12sKiAuBQ6sJ/tdW1rq5LUYdiKUOl2sbV1bJ66SrpipBeh4pOsga/r1tRJQU5LVKItnXHrqEfnnIKSjwckXgO3KbOHUsENlfnheZ2UltC78j23k15viVG/u+QVzzkZdkcDP+T93hC4rw45hzAf1c7UnMFP6Fs7oSXbI4+/He0NxKdAIqhonobugmT80Ks+1Yb6pRM+OSx9fU29D12Utn36mckXbs57ulMkzkbSfCKMEV0cEIvwhPcRj5u3LuoenwxzsG6XWbh6IfRo29tjeOGdtO0JTTk32UVk8XWXqfJmDaM+vf1K0F6U1L/pYzppk+1Wmw1dV4VEJGqSnhVqhn+QbgHXpIqfEYiswakgR4WfkaSQsNfD+JBctJMLPHeJv6L15OA1MP4wgENwgJrzcMA8VkTjHNhEYqPQenw/kIYw64kF+mCjexTMXZJ1Nc1oEhZkSvjXguC1HsAPC3dujivzxJsh+2McGLvgf3ki7Hvy9wPJ0lelzJZBzJUXtEFRASJh2XF0qNPXxCZBnhmEB7Bu5fPW4A4PeqPwIAP328P6T9qG1kAYkIPxBAkm3fv2ROem2aQLISqcD5PLhaWn0ycKIO2GOK8FQWF+Ti3jLtDEMIC2agDKaAiZOXWhhaQAhKWZsgTiNKsCZNQbv5jufMPd8rue+zuBsQmU/ox532s18RDYK+47DKZNu9rae5YhK26pVJYXiZde/ZyJ0KTWBUVEZta169GEK61qCDLCreMu6UOT8SzeDYRT2+m+x/EhvcWAWcSsrqaOheuc0XTcuntWoszlDpI544dcVbRaqlcjmq4eF9OTr5ULV4hNauWg5TkunOWGhpBlIABGuG8Mh3wXx7GluJWjvsZJlw4Z64b04494QnjduhlVVK5cKX0HDFEKgb1lVVfzZfV07+U2rpl8MBVSlFuEYhQjeyx+57yu8uvkA6swIt261BOko5KChOF5lymGZGks/xzrOfEPivUvqT3ZdKd+p62PtNep/VMUjuztd/rplAfQu/Lpr+1zgotBJPep9/lf8/2riS7F7JDenz1fbqNmxtS33QNvOEdkegYBEO7FKh8SX60cLQVeN6j7/OuQztBQ6sV/95Mguu/08+12wXtxLAKQE/m0KrItm09IUjhYsMI/GwJ6lJMhFHbAme+8HTzIhiLCy+8aINwgy8TnmmyemPmjJ4vcZ7G1E4sTVRSbfJkpa2jtf66BpR8J3FgCMaFgGBE6GFh+IdelVr8TqJSxaRbJNq68BBCMcxTQSDHeVVIUPivM4IwvM1oN70p9KLQWHKLZzOtGvNXYGAbQEaKUO49B8aV4SF6CDp06CgdUKa9BQY2txBGEM9Zh3hHIUJHzbiuCXksBSjxTjKwEiGf4aO2ko7dukolPEGlMKbLFi6Rbt27uefReK9G7styHNcxcMgWUoaQ0SqUpW9A2frCgkKZN36yLP1shvTdeZQUd0dICm0vghFugDFfuWSpI7HdQF56w3vT2NIkC3BAazHyaxqXrJKl076UXkgg7jCoPzgYzuYZMkQ6ooIsSRtJLZPRi3Co4MzPP3ckpE/ffmhfB+mEvJzC0mJZClKycO486YwcnZb8HJcXhE47o09PCq/9dOw7snb+YnnqyadcCCw0h/x8mIHCbb88+yxZLI3Sa+vh0gFl6Ykv2yPAjx4l5rF07NLJ5QlVAZcGjE05npuHSrnV9Ga5arJoRnosSHwagVWnzl3cmUn18LI5co+XpnbHpMhpATAhUWFF2jWQlQ7lndw91cg9WvjlDFkL2SrpWIbxLJQc/NeAQm5luL4HKuAWg7Q6jxjaWQDvFsOHBTzIsQheOm4XXtMilYuWS2HHUhm05RBpWLpCqr6aAxlrwb350rNLD5k3e4lM+GiS7Lb9rnLDTTdJ1y5dHFaeuLeFiIT0kT3rTYfF9GLIz0v7jExEKkQWfOjRP8+PrX+O9pqGtn3rNoV+t3pP61krW1q/aiNvdbPWjXYHWUi3hsiB19+pcOX6zQXr+5tagFnMQxha+xB6nx1HTX5CchDSppkIm74+Ep1Nt0XfyB02dMUBzLad0Q6kjVUmCb+dfJlWOp4w2ZWZf3emNmqik0SaMoFp47pW+Om5+OCD92XRokUyCLkCO+20M1bqJSA7S+Szzz5HEvJb7rTyww47Ql5++SV3DtY+++wjXaCAU0WtUi4TjQf7w7wPPVE3ZcCbYSTZrgZ4CfjvqpUrQEyQWAtPCr0oq1eDnHAXEAwqPyeRqYTnhSenrwOxbYJRITGhseehf/Ss0MuShxW4+57J1CAeJCBNJMEgHTR+JC8MbdTBK8Hmd2CCLU5Z74ZiYWthBZcuXuQ8KjSoHTp3dLkqTShURqPL0AmNMSuSMvbDyqOdQHT69uhNx4IsQMVVkpxcGLQcvBsWEKcq18va+hapWV3lvA077LGblHftJIuBfT4JBowrQzTdEWIiGVoIQrF4/lzpAaLRDaEqhsa4fXTll1/JjLfelwH77CKlPZBTgxYUwgizrQUgZbXI4akBbn0xvj3goZg/Z7YLl5GkMKxTNWeRLPvkcxm0844yaJcdQWoKpEvXrjD9a2X50mWOtPHU+a9npqq+dkep+F4Iv6yAx+K95/8ua0EamKvDcE0dSN/wfXeXPiOGObLD0BLbzveMe+xJ+Snqd/zsZz8Pyg1lZDnyfU499RRZKA3Sb6dtHQ5r4T1hrkwxCCJlgH1mrpDDGUSGRpVepa7AhMRl+aLFqRo+DFmxwjf6w3Y0g+B1QekEymolSCK9N8XAoInPpyufnjZ3UjRyZxCyYkiKu8xIrOhZqQPh41mSdfgsB33qAuJI7xV3nXXt1p0b9GUl8CrH3OgCjFi0jQc9rqpkQTuQmZwimffF1yCaDdJ/2ADJ5fb7ylopR3/AhyC/TciVKpeFqLL75aefy4E77yl33XMPepQi/tpIZ/IIa51hDV/IuPvrk3RY0gJKt8f/7nfIZUqqp451uWLpBU0o5BTqq+1XyPCH7kta7FoDn9R/7X3MRFD4nS/0lxTeJ6nzejPlcU5vYTcKMhsRaqs+tQvbkA0JEaJM+UBtffe/67ro0QkgmbTzKmmCa5KRlEzmCVOoLopdYYUMf2jAQ6soz5itZyqkUPQzbbt1m+zvdnLz7zlz58jUTybL559/KQsWLMBhnQfJd7/7XZx99YqMHz/e5ed8+OEHsnz5UjnmO8dhRd5JykCGMv3UwPgxAZZ5H6uxyiUR4W4fn6tCrwV/d38jz4Telvr6ujRBAYFgZVMYF3pL1sEQMLyzDuyjGaEUkpZckBaSmEaEhPh3j769XZiC72LeCFfo+fmFCB0UujwTGsAKhIUqeveAJwckCf8xTOcSbWEEnTLD79wizVBIMwxeKXYcMSzB0BCZzyJ4LWqr1kgJ+k7jyaRRl9/hko9RTp7hE/SXYZLGxjopKS6TvggZ8R3LEPZYS8bDAl0gYDx00I1rS66sWorvoPg7w1CzHwyB1CBcRiPN8EffgQOdQlwDskLvA99dAfK1Cp6MNfD6fPr3V2TwvrtJj2GDZQWMPAliKiQGDOHdqFq0BJ6dBoR9KqQbQlwr8ZwOICbcKUViUdKpTJZPmynVIDw7H3OU9Bi6hTRi/FzuEIgFPTK58JS4RGUQz4revWTexCmyYMIUOe6Io2TvvfZxRIdj+eH4j+Shxx+TfrvvJANGbe3aSzyIT8OKVTLrlbHyt+efdzKk5Zz9Y32Piy+5WF56b6xssf/uIAnNwLDEhaFI2nr26w2SwB0oqdAx8a5HeyjDLseGib6QF4bMSL9d3RFcVwTC0qrw07k49Ojwc6fQ0T4SpwKEB+vdGUM5qbEAKVw6f4EsQ24Sz3SrQd4Oc2nqViFcuaZWuvftixBhPogMdp2BGDKBuB7tLIUXiESHv6+FfDY216E1GIuaepn/1Vzp1rcXcqo6STWr9i6rlO7rCh0JX4TndOhRIYWdkOC9ZLks/XSmnH7siXLO+ee1HrQb8ipr3aYNVMiAWcNnjbteHNp3ZZrvvI/khd5f/nAn35TJk+XrWV/J0qVLXE2bjvB89evfX7bdfnvp27ePu44LJ7+t3r4vk1fc9i3JWIcqi2vda9+hdX2Sd90SLk9w/JE5JPWffDJFvvz8C/R9KbyNmHuQjwEDB6DvO2B3YtfWvluyxy+y1f7KdKxRaMy0ztc46bFPSrL2z/tv5ecQj0h0zMzTOwe0wLaFWSa5Zu0EyiZImZ6jCct6F+7GuyQseeJ9G5OX9Qm1fpeJX3n41V8uvS1cNdHDkgACjdOrr74mU6d+Ag/OZxCq8bLV1lvLbbfe5jwWkxDCIhF4HgUDly1bAgXVzxm0ApCP4cMR7kAewXKsQNeAqNBzQFc+czsY4uHKhYm1zjihDYUIxzBRtQ7Kn6vyAuQvNMEYl+AZJCPcqryORetATpoammUNPB00WhXwaJR37eiU4prqSrfidp4XhGVolLhNsmuP7vgXWzNhxOthUOgJofuYBoyfk2SVwhj37NPHeQFIrurhgUidNQOj2VTvyBC9D/Ts0BNCIlQCLwK9AKwdsxwGb10LElzxHUkQQ2A0UM7I4n/unXh2Izw1JFrlCK10RNiDO59ymJoDgtICLJk3w+8rUB6e4ZgVCxdKHYhNKQxB557dnUelBgSF+DFURe8CPRLccdUDBoKhM/alCsZw5pvjkB9TJwP23sklIDsPBEM2CItVz5oPcrEydYghCIBrJ/vVtbP023Eb6dob275dpVUSqzUyC88aiBycrQ8/KL2jDWOGMaEBI6GkQWL+0ioY/zljx8lvf/Er+faxx7qCkv6HfX3jtVfld6i71O+gPaVbv35wXiHMhL6VwCv0zLU3yf23/kH23Hvv1tCpn2PvvTtOTv/FT2XI4ftBfuAZw8q/mxtXkEGQOtSulap5i5Ars9olGhfDq1bWB54UJADng4CUgiA0oH0kOEw85k4xv2JmSIoyl9IL6AdISBEStempoYx1B4kiSf3y/QmyfMFCyHeB9B0+RPpsMxxhRngDkadTC9lqQoJxfuNa7CxbKWXAsffwLWRF1Qq3HZ/v5E8+Qol5BQhjgdjlQz5LkCNV1qkceVELZfpb4ySXckIvImSne/8+0rtbL9yPOdKxGPk83V1e1uqVlfLlR5OlbEWt/PH+B10NK0foVFkHj1sm704mssO2ekNvnxEy5pZQ6XxIX139c4Q3//LYY/IhNjFUI3lb0JfijpgrJN+YtwUY05zqBhkMuTjh5JPlsEMPda/yuzlDi0nbFq8Pk9rsrw95JTTJ0aROq8ek+7TO1vXH2HfOgeWYa39+5GF5e+xYWYGcvkYktrUgv60Bcycf87wEMlQMt+5Ww0fIST88GQuEvd1OxNQ4pDx2diFqvV2WyPIeXdJE/25JrB5rLRf2d22nPOmKRCfBgP43PtbCF5oEoUmfaUKHBN4rh6RtiSE3acjDYj/TcVutUPwk2NT4KBU48zdoyBj+WQlPRxUUdTU8EvyXSbWsf/IxiMxE1M7hqpkGsQnufW4z7g1CwFUsV/ANMDoN+LzR1c9hrkmB5HF3CQhKEa51OQ9rEaKA4ehc3tUl3lbWw+CCgRQjb4VegRwYgb7DBmG3UDkMBkIqbgWOqssIHXAXETaeYNXTHTEXEIdikCGQmIUz5kj96hrZAmGQwvIiWbhgvgudFGDVuByhIHpWuOJfDaJFltKItpJs+JpAbGsBns2+rUaogsSH3ohiGFyGG2pBDGgYuc2XYQt+34wcDLftt3MnPL9MesALVIKt9kuXLZUVIB2NKJDHPJUyEB0SJnp+OJaFeA89PDSy+cAjH/h0xZZ8EiJ6HoqY00HvBokV2rN8xXJpApGb9eHHiIWgDfQGwDCXg9TteuxRjgCSWFEBdsZ5OwuRU0MPBEu4k+SxeBiN/qzX35GtjjnEkUN6Kbh6rAfpXDEVO68WLl2/s4JMl5vLXN5Ai3Tbcrhsse8uLhm3HljTO7YS3oZmGPAR++0tg7bfRkrhFXJeMzyTYTeGCwvw/v+94wE55fCj5YKLLnaG0uUQMY057YbnZ5cjkfj1aVNky4P2Ry5NFylHzgrr74x95HE5bp/95ayzf7mBYue2+vPOP0c+mjtT+u+8rSMJbDIJHYnJoqmfy6qZs9MeM27f5m4pRACBb5+dtpGi3l2lAzxPTPIm0eTOKK+cWS+IJI+kl2SHMsI2M9RVx3wiyMnKGbOl8svZsveuu8kuO+7sktinfjZNXnn9demy9RDkMA3HtSCfGH9MBuQFwRODHWgDRg6TRZDFauyoIjniuUQlIKY5eCbHPYdEHLLVBCM4A0Ryjx12lr332NMRyM++/Fz+BVKYB0I89KA94LnMdflIzXjHKiSKL4YHsWbOQjn5kKPk4ssuxdgipyuw41HrqUy/23PKtBFry/ZyrT83zHthDt46ufOuO+XZMWMEyxPpDswKQDw5UG7nkCthUOLwqV2GMDNyldauqJQdRm4tF116iQxGWNWSnSTCor1SNpcmZHdC4XtdRyflVUktOLVBz7b1nO/yZTmeeeYZeeC++2VpQ7UU9+4m5fDMsSxEqoQNtBZD5FxsQKqbVq9Bwl2NHLjHPnLeBRdIT5B5e25gqO9JY5vN1oY8ZUmlTFJ92rBMwX/bqxM9OmaE/QDZVUHIPamFO0lQNPu3qwgv5DSOvgqrJVKaUae2LW/aFiAqNioGhoBYoXYVyQp3/WDVvhqhoErkqpC0MJl2DZJpVyGng3VVGpmPAM8KQw1N+HcdSA+TIvOQYMBcAHoXctcxhyEH18A44ppS5IbkQRGVdOziPv988jS3lXbAsCFSjQlKA7wOoaCWRtT/gJJuQp5BCQhHM4gT9xDlY9XaAQa5I+5fCgJV1QByw+J33O4LDwYJVDnqtpSUd3QJnc0Mg8AjUlBWiPcUSdXyVdIJ93bpC3KAHUUMY6xesBxkZzYSPXti9Y7kThga5t80Ism4ob7WeVpovVchqZMhpxpgQqLiyCGUC7dd89wYJhRzKzcVbofO5c6LwnyeXPST17uVXbqGDLcmc9y6ob/de/Z2JGT+FzOcZ4XJp50QdmAyMe+l8aQHpZi7cFylYFQHhpfK7bRBHk/nrl0cMWRxvo4wfvQEMc+mC5J2v3znfVmFbeA/OvkHsvtuu7scGHrG/vfVf8lLr74io445DCGMTi63hoSLNXV4P8N7JGE8A2fppzNk5ex5suW3D4b3guEqkqkchJWmyby3PnK7t9z2aa6i0wmQTia5BRxt773rttJt5BAQI1Y8rnYelJV45uBttpGtD91fCundcluxsUOpAYnduIanIH/05zFy53U3yt777bvB4a+Ub6+wJyNs8fPfnC1DjzxEunTv4cgzCebM9z+SATkFcvNNN7fm6bBJS5EwfdBhh8gWR+7niAfxpCzTE1O3ZIXMf3+iI4iuRhFPnUb/mSf28zN/JvnYjfX0e29ISd8eGE+OH0gr2swwCsN8q0EyOMb8nf9S5otAkDk+BZCRr5D8W7SsWs45+2zZd9/9ENYrdzJED9qkSZPksit+J7kDeklJjy6OAHEccjCJyiu6ue3ryxAubKyFZwxf1tbVSEckkJeVIqEZPyTyK+fOl3lvvCtXXHiJ7H/AgS7ZOQ99ZGjwM5RxuOb318uS3CbZ8vADpQkhsRxsXS+ArM5DPtZyhC4HthTKmGeebSWSOq8jZMRtSCJUH4pty7T61x5xrQe1HPFz/sck73PPO0/eeON1yQdOQ3ffUbr07g786iD7q+Ax4+KBXshyzCEsAuDZyIUeqV68VOYg/Nkf8/5y7DLbfffdndeW3pGk8L33WvvFYCYPu9frelEZCtX5Z1kCpe2Cf4Ymh84bg/7fhKTxvz79lDR1KpZuSOjPRwiUuyBb4ClcuWy5W+yRoLbw4FF6ryEni7FwWTJ1pmzds79cjmN1RmHXoyeymTxKmTwxNprQlr5a25eEgZeHbKTqm/g+Ep0A0bFkQ//tq9RqRRFiziFS44xnmvW7XTXMlcDqMNMPXZpU/FxlM9xDosK6J64yLVbHTCZ1ibUuV4V/s+w+tstCiZPgsP5KI847Ya4G3+2SfN1uJPyO3S0u/MO/MdmquT0Z9TqYk9IRrvNCZ9xAQGDUOmI5XuR2DrFeB1YuuHdtTiEmX0epRWVcJlTmQQnVYEXZ6EIAXeQr1D6pR7hm8HYjZAlySMqgvHOxxXclcgpKYWCKQFCK8Z5cKjPUbuHqlR6gZjy/Es8sRaipEB4IxCekBQm33BWTU5CLbdEVTmEzoXPNitVSDCNVAjLCnUFc+VNB8vRhehIK1uY5d79LDi4E3kjiZYiIng56UpgozMzbeniISCGJVx7eXwtSQwLTAeGCArSJCb4kpPRusZ0MwzBc1owckMY6fMZ8GpAJt2uIITdcWwxD9PW48VKI5+yy887SBSGoL7ACnwAD3hm5ML23HukK8bkt+Y5IVbsdUz0QjmLojomsbJPzgLl/4YHB+PIMm1Vz5snctz6Q3191jeyFEA4Np/9hcvUzTz8tN919h+x6ygmprekwzKUlZQ5DGhV60GrhDVqBBOJ1JfkyeI+dXJjGEVxgVfXpLClag0RnygapoKsRlHqDU9gw0mvxrAbk5hRtAeIGzw2JEj0RiydMRXHIHrLjMUc6Twpl1bUPz6LsMndn9mvvyG1XXis7ABe/ot3QmK5zsnw46sGMPP5b0pFn6YB48DnzpnwifZpy5PY/3N5KdCjPb7/1tpx+1s9l1PFHIgRX44i6I1kYs3ljP5BmyBnDn+wHSXDfvv2dV2g3FNp77+135M7HHpIee2znvIPMd6L8uTT7AAAgAElEQVRnjcaF/eX13pjRw8d5S08eQ6UMh815e7yc95Mz5fuoYRP6eemFF+X6W28W6YWTrEF2OmBHWgW8OVx0cDv7ash/ExOJQWpy4cmj/BTAmOdjRx3n3BcvvCK/Ou3HcubPfxZ8/qSPJ8mZZ/9CeiPPKr+sSEqLUf8IbZw/f47zYOXPWSZ/uHG0bLnllq1Vya2OChlAbeC1Mfe/W0MeCnXwGrv69++ifuN3v/7NL+UNhGtGHAGS2KcHyF0JyArynUAUlyNHhZ5EbskvgJzVQ375dyHw6YC5Oe+zL2XulE9lUOcKEIabYfBHtYZvdPtsCKdVltVF2iuuPfq6736BG8rd0bbAfq8x06Rn9M2j5U9/fljKhvZ3IVSSeRLqTvDS5QED7gCl55mCy8UKlQH1xVroZnoeF075TEZ27i2jb71VBvYf4JpgK0Mn4W/JV+re9Z4puzknKeylvWKa1Ppx9uRyU6MKQWHfjA8j0TGg+QHTgu0HKyk0lMSQ7XjQoFH4fcIZq9Ey5PPpp1MdgWHyHbf70rvivCSsLYLParBqYxiJQkIl6yYgPblQ4iXMl3BpNDSWLHWGf/F9Fxho/rBGS2e45otYxAQehPxcGBxUkKOnAuXloESx4wfXF0Mpcqt0McMDmEn8m8LZDOJSAmVeXAOjwcRe5KEUcFszUgnqsTe6OQdVbrl7GoQlB6vsVVD+K0EgcrBbaC2VNAhQCRQvXf9wwsPD0FkqQdCK8G8pjGQO3lHI5yI5swGu+5a1IBncng1SUtEf3hAXDsJKGs9aA8PXBCVXDiPBsE4hvEPVIDokbtz5wjBbKcJa6+B1SiUFFyEshdUwwi/c5sut4szx6IDVMENVLoyCBdX8SVNlHcgLV/tNMCqdBvSVrqj6yx9u++WW7nzudKKiWb7a5ch0RmIg8464IiuEsm3As6mguiHpmN6ZykVL5bNXx8pBO+0qvzjrbHgOujoDSxI0FeN99dVXy2oQvV7bjAA5QiE+eJq4pZlhlq7du6cK1WEFy/OiCoCt2yEFrwKJFr9/+8E/w/CdLmf85CeunTq5kHLCVe1ZZ50lsxqqEMbZwYX+yhHSIGkmAXZKEwZk7nsTpPfOW0mPLQa6reqsjty8pk62LuoqPzrpZCTJVrpdS1b22b4iENoX3ntLXp8+QUo7d3Dem5LO3WTBx1MlB0Z71GEHpnYVpXFvgVePhp3elPcfeVLuuPp6eHT2c3lENr+AlmzylClyFippb/O9b7sk3waEY+i1mguiOAgk+1bkgLXmm0BGHn/icbnhgbul/147ybqmdD4RZKMaW9Lnvf2hyy2igSTBHTFipDt0dvDgwfLuu+/IvdiZVAePYc8dt5aK4YPdlnZiRYZHskaCRSLKeUlCy635q1Ejpwgke9n0mTKqoq9cj+NNeiGsSZnQeTDsH5/x/RNOkC9WL5HuQwYij6YCCdzljriWgJSsgLwUl3aQMngLWzCXSQ45Dzshh4c76pa89r689urrLmHb52R4Q+zH+5prrpaXPsLOuT12cCFY1k1igcgCyF3V1Fny2x//jxz1raOdbPjSC5rsWO+z11/e65KtFk+S/bH60etWT3A5jnffcyc8kIfL1vvt6eYV60857xYWXyzrQMJKLxvnkAvvYnzpReQ4r4XOqcHcWDp7ruw8aJg8hLP2GNbTxCJEMrxMW/1uvRq+X/5zvc2e3yVtuw8RHd13Pu/VV1+Vc397rnTcagvoRIwtSE2qvhPINsP8IDxctFG/MnTHHX0uPE7PL7yNpZ2QdwiyMxe5WHsMHil3I/TlIswqFyvknUvyYlmc/HN8P/UC3zoEvCxp22nJ5aZGJDaD0wRviUTHwOINhp2cXnFl8vaEBl5PDn7PcvRz4Eq+6667UDH4PZABuLFBLpg8yATSZipikI+SolwpZy4FhL24pNzlXzApl7tpqOgaWGmVhceggIsh2bD74ARQqC310gHfd2ZSLtyc9BiUYkK0MD8GSgGxI8mDnSNJWLMWXh/MH0agykAkaOhKihBCSe8gamKCKZ5RiH9z4FbP4bZnKE6SKSafsi7mGtzTjDYVdERdEyRPNuD7KhAOZNBIcTcYuQbsuqlC9dZC7DKCR4EJtC6xuARtAllrgBeqI1YtOVjlN2PC0lNQh7ZAU0lXrOxKYZxpkFciz6AS5KQc9V0Gbru1+5xbq6uxwqG3iwSmI3YAMXxE5chVMHNb6PJdjeMEGqEM60As+ZlzlePvrz6cIIWIc//ktB/Jbrvt5ozozJkz5EnkCHw4fapsfeSBLoTALckMufCeBpAA7prqjHdxbKsRJugCElKG3A4aHHqWmAcz7snnZOee/eSG0aNdPRv78y7O/boK4YYVpfnSD54dGlSSnGIYUVpjhjzYJzpPGD5xtWhgFJkrxIJz0599WZ55cowMGjSwleRopUKF8s9//lMuuv4a2fHE77iVYGd4u5zswFgzr6axEsnDqE2zxQG7uQTWRmxtB4DYEVQpnZfVyEF77iNrYDBZF8d7c1oNI0OocKtPnj9bkAWCxF+EOHF/OXKkFsOTl4Nk7u2QkNytX19HdEju6VWiZ6Rrn97yzzvulxMPOEx+fc5vWk8n9+2nEqfX6tKLL5F3Z32BENghqZpDkPlykIPJL/9T9hu+pVyE/B6veGkUHnzwQbnnmcdlwJ47wEOZajMTw5dM/UIWTvjEFVpkKGCnnXaSX/7yVy5s9fLLL8ujjz7qMGHOWNethkpPkE+Gr7iqpleEix96u+gNc/hDXklq60CU8xBi/AJ5Mz/51vFyyaWXumH2Lnq/GqbhdnWkzjtfXpv6sXQa1AdyjNpGJEBoZ92qNW5LOROTK/r0cuHiSoRuS8pRYRn/NVfWSdfl9fKXvzze+nxrfPn3c88+KxfdeJ1sf/xRkocFA8sbMC+qBmO/bOLncu6pP5bjTzyxtTK5bqfXXdaDY+U2yStiiXDI2oQ8JDNnzpSTTjxBigf0lm2PPgSkH6G99LYH4rMMxSwXfjELOgTEB8a/tFc3t/gRcFDuqOOGhnxWEkeieSPGcM38JXLq0cfKr35zzgb91ITO9kH3XZO9jcg9ywekc8g8djqnU/c56Rws/UyWOTju2O9IZUkOFjzDsRhDaNx5qpHkzgRsLKDWYGFVB6Kbz+KaKN7ZGfLBxQ7nkceTYa4a1NCq/PQr+fXpP5VTTjvNkUGSPWvH7DmKSSQ0E0a+n5YYhwijT/nw740enX8Xdfs/Pifb1vIQmckUD9VMmAbsoYcflgcfuF+6oFJrD7gqS7Gab2nGzhQQD+4cJnlpXAe2ngdWj5UdE2w7lXeROngCaqEw65tTO3tcVg+8KYXw0OTBa1KKmvwNVVCO8Lh0gWIuANnIxWct8OTQI9GMmD29JVhUuzwKegu43ToHyp9VXnOgNGgcuAW4FqSoHu9qBFnwE9uFTtgZ7BhiO5l7k08PEZ5Rhy9rkES8tgxkB4ZlFc9TIpfpytU8yAHalcvt1AhtFSLBpwmEazW8VPW4t4V5OkxGxjsbQBoauLsIW6rzQBwKEbKZh9yHUrxze2wnZVn8KZ9MRY2Q5bLNEQdKEcJJzMtgm0kwOmJLriMG6E81VoHchULvDQvVMXyxEuGBIhipFUgKXvn1XClYuFweuPd+d76SDv2swuqQSZFPvfKy7PfTH7owxYJ581yojDtnWrDqomeJnhwaYHrBOiIXhu8mAVzyFWrMfP6VXHL2r+VAGGmuoGnovbL1OywugDL++yfjZcBO27vkaIYtSrCqp7eExQe5NZnhKyo2kgWOBQ16JcJuqz6cIs+PecZtXfcyaeXw06lT5fs/Pk12+sHxGPsWt2uJK2Nuw6dhr0Ze0ux3P5BhIDpUoCyESLkqwhjOQX5O5ddI3Ga7KXAb/KTqxTTCA9hr+1HSZ89t3ZZ0FvHr1rufzEduVi3I6ahDDpSu2OHFtrPPzJmh8S0k+Vy4SCaOeVGuuOAi+Q6OdXCi5XavpfI+XnzpJbni6iuRb3OY9EHxQa7g6XHjrrN3/vSQXHvBxXLUUUe5670yfeCBB+TeZx+XYdip1QCi5bZ/Myw0c47M/2Ci5CMke8D+B8mZZ57pwoFPPvlXef75Zx2RoXxznlRsM0y6oepwAwgew1L0fNKo1IM8E3t6CRmm4w/zvNaC8M14+wM5/chj5bLfXe5yQ3zCbmruM/8klQD8W3in3vpsCohOX+wiAunHd2trMK+RWFqHBQELJfZAfgYJbuUyeIvKMG+RoJ/buA7Esw47kR5vlaONRgRte/KpJ+W6++6QHU86BgnPCCMCZ4Z7amFAv0So8NzTzpRjv3ucS6LWOSyhUEWSGs2UVBrSnX4Fb5NTU8n+uXIZEs6feuZp2en7x0nPQf2cJ4f959Ehk//5usx8b7z84KTvy7Chw+Taa6+RGsy7DgP7oKjltimdCfzXseYV+psPXbZq8WIpnlcpTz/3LEK1qQWG9mh4eQkl0vr56a/PlqCdDTfrNdEkku+g/F1+zVXSd9+dXE6e8/yhD9RltSA4NTNQ8wohai406MWhR6sMnsCKUcNwLAtDe8hvdGkNqc0QS1ELa2RxF3nkL39B8UhsoHDeyNROLC+LelxDdst/b8e5LYnmbbk3enSSZtZ/4XMbvrJNSEre05NaxyZd/Q8I44033yzPPfZn2WNIH6x0K6S5WydphAclJw+KE54Wt0oB2WCYpFMJiAhWySurECqBcWqBp4MenVwYfZ4zlFPE2h2YAEjIK6ChZyV5kIUiEIh1SFxtwWqhCM9ZixBQCzw2xfC25OMZjPc61zqeydUpa4aUQyGwDogr0UIvC0M4+JzGjEae7+XyuJieF4DBUv3cqlwCz8tKeETe/3qerECNFVYe6Ygk176DBrj6IC08boA5QnUsjoZKr6WFyBfAlm8YcYa1GMrKKcLzkUOUA89RB2whrUPIYx3K8q/FrpSFcMf+6Lsnyuk//rE7IJSYMoT3j//9h9xy2y2yFtuCu+DQyB79+7odTNxOzYRhhnZqicP/x957B9ZZHN/fY8vqkmW5d9wb2Ng007vpHUIglNAJIST03lsgkISSjmkBQoAQSoDQe682uPdeZfVmSZbfz9mrFevlubL5vfnyl0UclXvvU/bZ3Tkzc+YMKSxFW6QcXEUFjisbZpMvhcC4EsN361XX2BGUNocbgX+GSyl/PvdXv7TVWc3We8xIJ+WvSINSGtkYuly4RiJUy7uX5ykvVKRXpbrm0Kqg3/pMu4U+X300Di2pC38e7+E/8tBD9scnH7ciyLzteIba7Hqjd6OUmsqhNZbq/STFYwEl35OphjTfzOdfsacffxJNkb5pV8gbb7xuF1xzFRGdw93YiSCr5y7dGBGp66n6mfvu+zZgdwQe8aTXSIuHZ59PyfVyuDvL3/uCKEfKK0yhnQ2J8AJ5Q/fczXpuPZL2DlQgUflRR9n0dMrG10HqHr3vXkSKujuehVKwMkqOpKtSJ+bDzI8/tQWAhAm770mk4TjriXFbRWTjmWf+bS+98rL13X1n60hESG0iND91HY0i3/77OXvx2eddVZ/fwHXdE4no3P3wRBt+yD6OByRemgBGxeIVtgKu1BFH/8hOoBxZqeGJE/9mb731NtMakNOi06P2EL0woPlwvOqVLuH+BAgUTRPY1D3IQRAoVfpPz1W3sgoBvzHd+tot191oA0iF+Yo9bzh9auNw0kaLGusoJx8Mr4x0BF56TSl6OkR01Fajfj3kaDSQevTt5wjkTY3MYYCO1sKStz6zt954y2mp6GuDih9+Fy/vSp71zLoyG7z3zvQrI8KhSjxJLQAgV3w8ya765YW2x557bFCdk2TMQ2PUloFL99lYosMDdB8V97+rQnD/CftaDb3HdjjqUAfwV69a5kBo2bS5tujLrx1x/corrrIxW29tv2I9LqPRq5yJIlKtw/ffwxn4irI1OEkQuClSaGB+rPximl129nkA6KNa116SgY1TS22VQf+/VBGFn4lBj36Xztj0VYut48A+bk51dAKbpPHpCTegOc+OO+ZYexQ9qTeoqsvEWXPVjryeRbqq9w5bE+1jz2O/kwOhdSqNpfzKersCB+uAgw5KrMJKslGbAuj8OtvYfPk+7/shTfvm1FU02nF1QZzH9W8Pw7BxyC5+jwzbb397pz396AO218hBeBp4IqRDqtlE68QbyGPzh9+S1QyQUE8gDHQnNQbEw6tCKIykketxJF2YDELv2WxejRl4+Y1MfLw9kWcz2jVZV6qWMvDU2/GvnvQD1sHl6VcTKakCiIgfUojHUCAAJG9SFSji47g0l3Q+qG9yGjWqtEqpjjrdEN6r7ypb1evi8jRw7OkQHJfikZ4BENl2u+0deVCigI8//rhVUdE0evw2EAdJCXBOqQirF089C1Px9HZEQyq4n/wunTA8qMVyD/3Q+agkarIO7sf0V96xc350AiHo810uOvzStf/76X/ZTXfcbjnDBlj/LUe6KpTlRF2qAHkCN4UYbnnSOYo0YXyla+KE8jTmvKeBaoXXKfsVgPBRKx8Z8M/2/on32a1/vteGwhuo455F4FWZtKIsXfr2IAXHGBHnUgpNIEAe1pbbbgOHZIplLlllN11znfVB68MT2P08EdiSAf7nY4/ZH/75qGXj4TvtG65VkSFxjZxgHUZUXnmKSE6KAzKtwI7O/+HfH7ebqcA58sijUu0HWsLqreFkrug8DMOU1UttCIDBQRRVjInjAdiVEvRqSo+XfvaVDd5nPJsm1Sw8F6XMVM6rNNTKL6bYmhlzXUpng6iOslZUwXVn3Lc6cB93ndV1cIx4dgU0/qwggtIAaBq2246kaLq56IhIztnMafEuNJ8EGAR4KwBxy6dMtyoiPKrs6wDYy2csulKK3Z7xkKFTSbfI3yKXL6Liateho+z22253oC11W6lWJH/761/tjnt+b1sB7JoB/SpmVOpSaY2spavtlquvs1UI7N1D77XJkye5555q3MntcX15gIwBe+/kGnqqWkukfMkfKFTXyP06lWhxJoi8KSWsSJ6AW4n4WC+/Y5effa79/Je/dNfiwY3Wfg739Id77rH7n3rciofQGgPCeRZ6N2txZNapLQXR1CrKpMXZ69Sd6jL1/+K/RtZ+e569Uom1i1faAbvsabfffnsrR8fzJ2SgX3/1NTv/ykttj1+daZVUbdUI2Ot6AeU1gMeMuUvtscf+aZ1aIoDOgWlp3xKurTg6GM6r1HiliKoxT8WDujDlkZTa8O/TuL/y6it24a9+ZZ0Bl2N228UB+yrI6ksQHf0GIK9SavHTzj33PNtll11IVV5u8+fPc3NCkegtdhtvvcZtxRxazZxmLFk32uNKkBDYsecQ++v9E10RgvguSfela2krRRNHglJGPNXyJnwtPLY39H5eJgFFHUOczH333dsyB/exbBw8pUm79Ozm+EjzXv/YhvcbYL+BpLyCCNWtt95Mr0DWoVS31USWzxdSudkXsFOGDpbgjxrval1VzF1sx++zP6D3mtZIYlK60T8HP4fC5xf/HAMSfSb8nH89KdsR/21zROeHhHdtnCskdeptSa0VwgWc9HO4OWhDeeKpf9lt119le44YaN3pUQM+sXakcihYtXL1OWIzzi+gGiO7I4sV7s160iKE6vPZDMTvUEi2CiPXgGeH4++80Mo6uj0TASouxJA0EGYnzIN0DJsm3ZKlO4ExW7RkuX00dS4GI99GjBjhUitTSP20x1Pcpi/REJU4u81LImi6VwEdtDvYMAR8XHWWwA5/l2KwC6/ic9QQDZhMM8HGvO72N9JwvenR46vHNH7yuq6//no0PqbaNvRNqiKdJtKmvNRGNh5dd63SBQC8DMLUq1evIBJSaANIIVVhFJfMmGMF5XV2922/sZEID6Yq1FJCbeFGeTy5/RnV5dZ3q5Fo2/SwNSUlKUVfrlPl4PKOFN6uKaG9A+koiY7pq5HUTaeSSnvxvy9vkFYKp4XjuLz4kp1z6UXWZ4exrh2DUmKukgug2hGukKq9MjIoXcagqBJLUZhR24xD44OU0Fsf2mXn/KKVbKsx9KFkbb65bEzXXnmVPfXBW9Zn3Bi8+N4uZJ2P4VQ5v0pKBQw0ripvFwDRRiago42rhPRYCdVN9//tPtuKslJ9hSmTJ+EZXUPqZ+xxRzrwoGvT6DlCqcADoFQAYPrrb9vAvbfjnpiXVI9JK0jPvTOl8VLlXfzJJKtesISoWyqNqRB6e0BKV/pHdYa0q5JfafRk4JUr9dMPQz4b4u+Cr9C/2Wt3COX9XERHEU2BNuXGVE6fKUDf0i6jCq0QR77ld3UzV9m0FJlF/hVaUQRSILMO3spixvVpUnZDhw7Z4J71nr/99W92+5232+B9d7Ns+AwSZlSkT+H9dUTJ8in/XkOqc/bsmY7z5uaSRkUFAqSSumNwO/aioo+/K3pHmNERsWUo20uojXEUqbyUdiIrEWjsSGm5SO+16jK+qsLKUSE+/ogUP0RpVn2p3PdPEJ0nPni/dRk30gag9FxDG4g6wIh6pAkcd+SZl1L+LrBcANeNhLBL0RX2LCKFhRbO/IXO6FdMm29HHnioXXb5ZdaF6r6UUW22f8DduYsKu6EH7Im20VBkDFagmFxKJCfVkX0F0gbjuvSx+zD8uh4P7v1aSlJTD9dCWyBB72srspNk6Hz59zk//znK6S8jH7CvjWDdCDCXk5ae+sJrVkJqWV/iNJ5BNdtee+1l1113LcrrM9yetI5NpDM917Y54WjKrBc6qQTJRYgDWL2q1IpLG+yRRx617gDHGJyE1xRHWvyY+PsPuSVhai4pMuI/G4O9kJfjAZLa4pxz/i+ty5hhDuTofrTH1pNmXP7R184hm7DvBLuAdOfUKVPtuuuvda1qNDkV3ZQWVecRg5xchUjzuRCZ86h4nPvZF7b74JH2IIKLcvSccnsLOPX3lARAQ8c9/Dm2f+F4hXMkvMd4zPy+F+5P4Wd/iJ83R3SiUW6NdASoPfZq/AbjkX28mEPEKyR++WUX2bqSpbYjYnc1EguTUcLQZIPg56L9MhWyXRMgRvwPkfEGDx0ECKGUkk2qKwRFpZDWsABEpHSAQs1yVC1FNIHgeqrlASTkfAxwA7n+JiI6NVRJvfL+l3bmz8514XqRZZ3xwKA8+OAD9hj/dh3Uy4rwWuWlasNWCkYLTpyKbCJBajDoN0Gx/gVy1DZhGamTacsq7cprb7B99t57A3Va3buu8eNPPrWbWJy57deSe+9tDUSb6vCKCzBkVZRyryiDhNy7LwRmSNEogCoqVUDoWb/Pev8j23/s9nY1EYsiKqy89+jH2ad+brvlFnv8jVfhVAx1DSSlP6IqpWKEtnLkiQMI18PuXluJ2CEGTkBHIEhVGuvg0Lz++putoe3v6IFwH6riufo3t5Ke2cVFJbQTi6NRhJaPQM46jq/Ii0ro1aZCr0k1uQtRjLcfftz2GTHGbv3N7a0evsCO50d8/fXXdgkeakkeDS5HDXf8GfFBHL9IpET+KyRELVKuOCKr0eARqFAVmc6lyqWlcGEqZsy2n554su13wP7Iwne1BQsW2FNPPWkvvPxfIjV7YCzhgPFcFRGRkdZY6niqHFoLkPjiuRes8xiiDFSLUcycEvcD6EpxWi0MtLGKzC1hQkJYgGbuH2+ylmNUQ3LtQn+mHt172koUr1fjffaAk7P8q2lWTpRjFOfvjjESsVfHlYES70XcFpWKZykcr2C8WnIwN8VLUjG75mM+XCX1IROJWtffAaA25bkX7ZJfnm+nnHJKq36Ln2/a7CdOnGh3ktIUj2HAPrs5Ir/SjBKxFBCtQkBvJUajHv5DqjQF1AWoK1S6aOsR8MIAlk6UsQUCscYUretEaXs+gFwgTOO3aP58V8Gn7u+ai1obnSmnr1i+2hZ+9IW1h7A+lGa2ikbMmj3LyoiQ5g3oRe+uwdYL9eRywIsUqZUObcdazitG4E8KznCyBAYZAZwCiPNUJarvmQj3tTgn7RizqpmLrYnoz7BhwxxZdfasWVZJ9Kon1WI9SeeoE7safmo81tUT3Vi01GpnLrQrz7/QjoQL5Suu4qhEuA2GkU2/lyVFN5IiBbFRDTVr/Dn0N0X/DjrwAFu5ZrVtd+KPXPuLMkBOybJUmlGcm5SBzLATTjjBDj/8CKJZt9mnn36aevY4P7lEp8b95CiXUlyNc6X0b8/+/ayCCFbljAV27vEnQ8w9OVEkMTb2IQhIikrF4oDpwF98HP+7Hz9faXbppZfYix+/a4VbIM2ALdBUFLiuWbYaNfKlbq/W2j/ttNPtsMMOo1/gu+7+5agI6MjjVcqrAAevQY19tS5Zw8vYDzrXNti9f/wLUgIjNkibp3PQQ4CWDnSENi20d3FkL924+uNujuj8ELBuE84R6gGkQ8CxtxMf1uegZfAf/vuj9vtbrrMDth3p8vzaYTVZleyYubzUGuDnHE0uedw4SkLZ1N5//30qQV6wXvAEdhy7pUs/rQMEVKtpoNQm1XMJhnI2RiOPVBN7MQZEZEqFiTAYRAMaiOo8+dIHdtHlV9tJJ6bItOFXE8b53nvvtn88cJ/tRWNA8UBkXLS41BdKx3LRHSdOmCLAyvDVIPimUsdpcHKqMortuWefae0zE46VzicDoHLXV597ynbabZxVSRNG/BAiU6vZ4NdDOM6mQqedgAfHLycaowqZQpSA51MNddD2O9kVl1zWQvLdMJLjgc4dt//GnnzzNVIow51omyIhMuLOQKvjs8aZqMQ6eD+qaJCqrrgVjpD82WS767Y74CzsvkEI33sfJURULrr0Yvt61RLrM2aUK8/WVUi0Tp68+CiV1cqPo0lDqk0dqpUmU5qtgA14NR7pV0//xw7bawKA5jJHDtR1a5zVJuNy1EwXA057bj3KjbX0fxTJ0NyQYVdPKhkyVUqJl6SQtkv5qHUFz15RCqXRqtjUS2fNtbWAz3baLbm+YhhSNCcAACAASURBVHg7XfHslcN3G5TSkqpO4TURkbsyxqrqWEk57tRXXndAJx+Nn8KCIleVVkE/Jo2fKttUGaJj9HI8KHF8OnBtNSktJ/hjmZqHWSg8cz3lEJCbiaiVkbqqB0wO33sP6zVoINGwepdmUjRKqU9dtyIlIri462v5T/es9SeALYAi1W1xyNpz/VNeeMV+dPChrtJK0TB5h37DlRFSROf+B+63h5/9l9MHKsKpKB64BdYD8C75AsCWvmpIkyqlU0hJt3SQJLHfjmcmjoRAj6KlOq4A/zrmk56N7rsIIKpnrT5o7poUoWvJ5+UB0NVEVuksgaEGUsWNlD6XEFHNYJyLRCCl0kyR2Uw4cyJx15JKW0HXcVU4ZhfnQ9TPtb6kbnOIcspzVxuTtTgrAq/SU6lCLVd6Muv52wrSE0rzidPRfcgAa+a4qkysRy1YS70TadWC7p3RiiqxuR9+aWPhD/2dNKlvBJmuVUBslJMcvPBven8MCmKHwRs+/17f5uFpxAtvI82oCGL/PXe2HKrpBISVIl6EMGIjPBWttwzm4dFwq44//niX/pcUQHvWm1KTmt9DD94HRwklYQCihPTk0Cn6OYc2HDv03MLuo/hDfLQkNejYQfXXqO/pUnMxkAkjGf7zSRGk8DXtA7sjlJkzFG4O+2k9zqmIxloTZfOWWtV8pdmlFo6MBev/ariEQ4cOs+eff87uv/8+HAS0nQDjRYPhJwKem9c2pyJ1pFTL4RZWIdh50WWX29lnnenuPay+Sgd24ue0Ke9Lev7p0mQePG+uutoEEPJDvKUtkSePfNMtiHhjKGUR33jD9Tbjk/dtt1FDrZzIhTYlid59/DXqsaO2sd+Qc+9F6sfzOLQJfUlLhauQNC8uaGdbke5qIATfTIpEDSkbHHdjveViEPIxOu3YkNX0T96rFoxAz8JVZbaivr099PCjeNzy4r8FCv7aFdk57LBDbHhhlg2k4kZEY4EEgR3qx91CE0FS0ST105F3WskGIp2ZOWzSeT2G2IMPTEy7kDSh77n3D/bQX+6ynXbZ2vGRpBMisFeJt9qODYk8DSkPOAREREoJtwtUdcIzVlqmFwDwt6SuBpMKcX2eWiJszshLQwLP+3Q8+6n0COo5cnhKJl4bI4bUNVfEcKnthP7oVJARv+uMCm0ZJeoSBSxfsNB68PJDDz/iCJ7hApTX+xBG8zd//oMNP2gvF/5XhZoqWJx2Dv8UvVF6TNEV8U269+ztyMiZ8FnUtVtGc/7XU+2r51+2zpChd6Vbe2ciAwpDfzn5K1uPaFxXSMiKPKnhpTx5gSlFh6SIrGchr1V8HLWD0LgpGqRGoq7dBOOgzbuIMndFmuT1Kz2liJXAivSYNJdUTSaPUV6vn78CogUS9iMlMh915YFUfYjwTqbG9daq5joURlcJuoQLiwB2AkspBW8pDgPYxKWh9DmHe69kvjXBtwL1IgOw0EoAXk3M16GkrnrShFCpKl2jAE4W71d60WlJSeuIa1MESXovbu7xJYCnv0kOoIxrXAKP6KfH/wQy6vnfATl6vzeu9xHR+ftLz1kPIqJTX36dZ0dZuvRUFMUimijgWwuXSBVzAi+SDRBAEmBx81zyDqwlXYc2ZskzaIwV/ndzSuR6xkaRJ0kICARlkV7MJbqnta7+Y4qa9ezfF5xIBAqNIqn6FpJG68U45KrLOWTkaiJkVfOXuxYG3LXVIwsBWrRe/fs7eYm1zLW+pObq8cwFPjti0OvWVrvKv0q4N5K8FCE9i6jcCDSSsohEraBMu4lIVRZrRUrKnYf0t68+/twaZi+3P/3xj65qUetIcyJdmsLPjySxuTBV01a1jt+jk7Rl9JqPaJ6CA1ZSlAsQ+8x67jjOikiVKqIrGYzpz71iFUu1H6SA1MEHH2KnwwP8I/fx6qsvu+choJOHQzPyiAkOvHdin+vRs5fr9zaPKNpqWpH0olhDVZX9ENFLAi4xaEna35NSNW3xkEIblTRO+psaHV9w+SXWZfQQN6+0tzheF/tMDXOjdMb81lS9QHU/0r+//vXtbs088MAD9vJLL7pUVRcqBDvSYLixBr4mczqbAok60uYzX3vXjjz2x6S1//adis90zz4dVykpLRkCxHQ/axxCPpffvzdHdH4IFLMJ54gJemHIzi+EpDBuiIB9eHIyCq5XX3GZ9YT82xvvuIJNNrdroc0nrF/TmGnXXneTbb/9ds54OvVbZ8RTpZ9Pwut5YOIfbdSQntYDj7CxWSAHj5TNVF2/kdqzDhIUhKMij1nGV4CnE4bzHVRtdz3oKLsA3Q71R/JRig37eLW3iy66wBZS3rw1AmYFVDqJFCn+hqq+muXpKheOkXBRHjb1Ujx9VWMtWL6G3jr97aknn9gg5x+OgSb0zTffYs8+9bBN2GMHW0U4vxkQIMJtI+cpAezU4NEXkEOX4VajTVfSy8JfB3l4/odf2E2XX+k0IcIvn+f96ONP7FcXnm85IwdC5kuVWOucrsyb//L5m4jQ8vTkFZXDqyjAuK0kxO06k3NfKydNsyLOdcEFF6Ktsp2LJCzEUD/22KP2LKXlPbcfY0WAwAaiUJ4sqDYGahfRwJgXclwZy/xspcRowEilkcq9uxFOlueqBqULIFaWLiasrlA8IDWnmKabNGFsVtRLXa65ZlVuqaRWIWn9k6GXd6sce8qQMzdEmuWaxWURaVPEWI2bgI4j6vI5cUlkjGWopCWkqIrGRcBL31XN5YCTohTwQspIh33xzAvWbQzRHyqtBDoEcMSV0RjKYAqcCCgLHGlTFiE+kwo+lxpsD0GXVGH5ilKUeFGJFqAhKrN2xRoroQJki53GWzdSCa4s31UuEU3rAM+JOe5STgBozXenT8N8VjRSkSpFcEohSq+YMsP6EX265JJLbI899mrly8XGR0DHp64effkF2+awA23am+/akm+mWt+dd7AiUpnqW1ULF2itiPYYBaUYXZrW9RZjnAUKxUMTQG7hqCmaoOimB2Aab98CQphMwC+HyFBnUtACKKsgvCsqN4rorCQcJr3zITwjBBeZ833QO+qMdk5DY42tnDvfymdTNuwMFPILJIU1nkqBlaHR1IGKrMHbjsHbL3QgWOmr9YxNyZpVrglsfi68o4p6W710pVNXbpcvjaJK60NUbr2ixCpNxjlaijzAFZTvK2XlRQy9Z+3Xako4MLkpcByt8MAjKdLjDVvYpDOO/vjfywDlBx24v4047gibhiPQfasR1nd0KrKpNbMYftcCVL9dnR/rYA9EJc+H96SU+zN0rdf8FQjvMXq4jT10fwc+6+DnSMhT46+ImIBmHWP8YyKqZ8EFktaWAFJs6JMiGam9JEXw9/cc7kFJkaBNMC0ObGkd/fycc+yjOdOsIylgzcFUtIlWOloHrOPVX81wytxy3ASCdL4xY8YQIb/ZSoh830k6fM7yxTZozx1c/z81IJaCvByuVbPm2Gq1dBk1ym6++AqUx3FiWqo+Y1AS3ltciLEpYDbdPcfHCsd4c0RnU2bKD/CedJUI8YSPJ3u4qF2qR80H33nHrrrsYhtPBcl6VUKxqRV262Tvoxy7w64T7K7f/y6RHKjFqHLRs84+E/duhW27zSjUkdHbIOfezALuTJokG05PPZuoPFSnXMtiUH4+l03/XYDO/seeZOfBZ/AS9iE48wv5mmuutmmfv2/bDiV1gQFSNVcO0Yd2KHBVEg52TSbZPMrVYZsFWsb55JmvxptcVtve7iZiM4oFpU003BS1mGfOnGXXUO5aUbLYRhBerxavJA9DSvVVHdGVCqnwYixyMdQi1omnIw6QPGWl49bMB5Dg8V5FiudwKou0CcpAyuBLSfqSiy9xysKFqBjrM7kFuUQ7KhzHJRdAwz7Pws+mSSNKyKj2Vtbg7cIJkdS+DJRUiF0TUkqslwF4MgGS2QBMpeeaAS/ZCJN17N4lxemRyq6IsnhMAn1KsYn3oYo2GTwBlU4YGXVbV9owF+Ok6I48tDVKKRBBUgRKoEuAVKrMMvK6br1H1yGgK8KzwJgiMwIYMqwab1ctB19HXzqWxkCbl0CLNhVFqBxpXcrEAkwcTxu7Kqv0DPW7BA6V/hLoUY8m9dSqhqD9xdPPu+qN9rT+UESjgghEPucSqFHptGu26QjpMojiz8DdIlUlEFZdU4Z4Iv9ot5CH8ZXAZXc8zXJSK3NJX/XYahRj1pH2GpDQ1SgUcNaB8RJIVJWM+heJqOyiLS18jGzWTT6gexStCsRNUCRMXIU4pRyDas3BiVTJPfLSf2xbGpoq8rUYxesFn39p3UeNtG5DBhHxhNDP85EBkUBnSmFY4keqonGNLlIpA1XTERlVKlLzXhpEbk27Z5jrvO+1ki/go+ISdWKeiCdXDrlb/csUvZES+NKZ81Jd3+FTDGCNaU1XV6yxNYsh2lZQvcdL6kpdT/WVAFQmas+SV6jPoKoGscxOqEr3HTaEKOQqAj5w2Vh/bt4R01lFMcBqOEdFpLjbF4hfV2cDAZV5pXU27d0viRR1sGuuvsYOPoTmrnxG+1FIpo3HL9SVSQIrPh2TxFUJ90bvGIYcIL83+rTVP0ij/XbiXykP39uWfTXFzQM9M5WNC8ircnLaC6/S5mSpm/O7UnF1GamYR/nc4/DmlLrJhNfUZ+ft3LNrAARKwFHrRA6HdLX6Md5z4Uv1rVpPe4W/u3msPcR/pUuxxOAmdnTDyHu45/ufw30wjvzoPVo3u+2+q3VEILCjJB3Q9NKX6APqOSguWj0R0jWz57v5laJBpJS195uwv50DSHr7w/fs0VdfsC5wdCQc60LwfElZvpoxK1C/Nhyrn+y2r/3qkotbbUx47/o5fqb6W3j/8c9JkazQJIdj4I8V253NQOcHADGbcopYAyJc2CG4iSe0jh2G6mTs//vyq3bjNZfbzmOHOw/cbSYYjEkQYY/68Uks3ks3SP3469OilJLqaaefYasXTrLxfL6G3j71UgLFqHZRGF2y54Rp16pBIemwZlJKOkceG9rMRSvRmRhlv7/rHicZH1eS+cjRj398jBVnm205kI7gJH0LMJQ5CBCupUqqso7QOOepZxOplSAVxxXgkdedk5lrn0H26w67/y9/+rMz4mFIUlVFKoN99rknbYcdtnQVLo0ilKolBAajGsO2XudRU0uIl5lEF6qJDqwX1wgrlEWpfR1lt6vw6qtYuNttNdp2oluzDJ7aArz/4YfWgVB3Z/RIXKsHwEgRkZJGpQYZh/xOnV3frmyuUxo62Wj1VNXCJ1H7DB6BFHrFq5E+i9JClfBNFpNu6QYZVNVfqwEnEtTLUsmmDLCibS7kr/J0KmLUqLKlpFkXLOAg1WK9phRTEWCiK/oxAiACMUrByKDrS16l0jIupQaw0bOW8SySN865MjVWasTKhiigo2ifyOGKFDnPTBwXgIJK/VMVFe0dwVwAT/yEFChgjDH0Oo+iNDKwOp5Ky/17RPStB+xNfuFlG7jbDpZF6wEJrK2BHKr5of5oukaVJysKpyiYUyzmPVkdGBcwQgNpGKXalIoSMOqHBlAXohZzPv7C5rz1kdNZ6qpS/5bzinAtNeIi7kXVUPpdaUM1K9VGL36Lrl+gTIZZX0lzNzQ+7vm0cHRERn7oP/+2YXCDsqgCU+f78kXLbO57H7sxzCc6J+6KSpMVEdBzlQqmS01xbkV8MklFyaiovDwbcn8u3Bmxk/W7q1pjXQusqkRfY6/y8lwiL3UuOoeelSrLIBiXIviXSZhHlXM1kOQ1hmWU3FcjnlnAs2pcU+3I4IoQSsgwH0BYBbcon1RVZ/hQ69HRWgog6gaZW9fQTt3SWe+VtDNpqqp3PKkm1NO7IE2QjQNRC59pPZpWtUtLbfSo0aS+r7ZhVDF6JyTc+2Ijn1R5lERI/m6bjtRRk6IisVHVe7xQ5vGoMy8mYrzF1lRkMiZz33nPtoVUrOelVi1r5RgwlguI6lYhRDl6y9E4Tdc6jsqDDz1oxf3p+D5+W8YcZXQcFRFxNb7iXBUQ7dSY9h8+xNZQLVj63iS7647fUnU6/DupO3+N4b7ugYwHavFciwFNUiooNv5+fsomPPfcc3b9bbdY720QPOS5i5cmYrvAtdZ2LusVujERzaVWsXClc4SEePQctX532HlnW1SPHEcxxSrSImO/ySaqKIdmydfTIDOvspGH7mtzPvnCxnXuZQ/8/ZG0kSldZ1KEy88P7xD7vT0p25EEdMJnHwPHzamrTUEhP8B70ikjtzWhQ/KZHqyP6Lzyymt23dWX2vith+GpqIMTon5sfB9++Y0ddOSxdjNkXZHIUl3JUwqW+mxq886wU047zdbMnWTbjRiAV8lm28KTKAQwqXi1SeF4jE6VunGjjiwvPZ/PqRrrhS9m2P1wdHbeacfEUXuFHiuXX3KRHbLb9tYHXgwJLgd21M9KG1I9iKBBpA3dj0K5pLPqsG51AgCQoMsIj783abr1Q4r/YqIrEsZTVGI5ku1SqH3vvTds5Oj+rjJlHRu+oh1ZdBhvwmjUUr2TnZ1vjfxcTai+VqWVxURBZABkNAnhCxi1UwmwiMoYqzqAhMBGFoZFhiBD6R0iMNLn0bi6NhekmAQMctnsKvC4ZZSLyftrg1m8ZL4z1C5lwT06QqwI2HjnrspIJdN0yFZEY9WK5U7QTRGgMiJASi/IkMswisisjtECSzmIPbpUUIuqqff8u3AcXxIuwTZFViRmqOia2jwoaqAxFXdFvJ8CjJsjDAtMYU3F+/FfTpSO9yqdKcAkz1UccVcdyGviNdQrbM89CSzoGHpmFaVUKzHmEgesxaCuU9oIQKrwvor26jm3SLPVcEvG/egwQCfRQt6jVInOuYIUn1I2AofqV6ZjZXPubMbUdc3ms9p8BbAE7nrDLykAvEiRev7nX9mQrI52/ZVXW18E/zb2FXPIws1R6y7JEIfedCvQuW+iTXzuX7bV/vs4bpL6AikSp9cXTPrGKjB8Im+LCeTmtCPbpzZ7/af7TZ3vWzVZvyY1rgJEKl8W4nG8HgEf1kJ7UlzSN9FzdWX8rqcdx9exOLfmmMbPRe/4T/N7PXNeas/NMnCu6pEondJ2Wr/iFbWUUK9XpRrnbVI6TZ9n7aQ0kdS6Re8lMggfKpdjjhs7zo455ke28y47tUbAkoxObOA9x8kbttg4JYGZ8G8hcAq5PCEA8j+vIYV86GGHWpedtiet2det928g7feg9L4dEdMaFQ1wz8Xw2brRcLdk8RIAy0Lr3bMP+wZ6YIxjQY8uDlCuXr7crWGtc4EERXIkQqgGvBLeLAUkLfrgCzturwPs3F+e9x0+YWyk/VwI51Y4fv6e/TgljYH/bDimqahMKsp/Gnv6l/NnWT5RQHEGdf1qL6NoqxxL7XdSjs1WhSVVuOUrS11vQKWU1TC3gyRBpJvGnuYiykwEaZ7JOSqnSET7zMA9d7JK1NMLK9faDVSujt8JbaiWiFYSsAnvJ7Zl4fvD8fL3FIJfP35J4+I/uzmis7Hd8Ad6PUkVOVyw4WWEGgPhezRZBFQ+IPJw+cUXIP7UnY8JAAEmmMyziVL06DfI7r7nXuuGx6vQstdZ8V7PZ59/bjdcfZXl1JbYaNIzas/guA0ucatcdKpdRD3RDzQDSTdJCp2QO+foSOj/m0UrrIyF8uvb77Axo/EeWrg6Cp1++dVXdikhzVFb9LURGKIcwEI+ZMgskTYxgCRSjIgvlV60k8DTdJUrIqYSGZH3sZZqm1wZZf59PH2ezaYksqvTq8DA4lkWd6KCZADlyhjx9oAFx7sgvKrrbdKi53sNIXoGgwUIqFNJr7xSPF+lN2RIeyC0p75PqxCS05gUkE7JlNdGqkCaOOoN1B3Q4qIoRBvk8a5j09SCX8+mJy6MCK5d4HjkA0ZWE/6XNoUMj0CFKlikf6Loi9I5agYqj2kl5xOpW/wb4bw1q+hyrmgUG00FlVji2UjlWd69Kq0ksigQJ36H08Pg5y7de6REDlty/LWAggqiRuKC6D36J2+uhvMLKIjQqiiNtFfU8kOGUakc1zqB47kIglppAOQU8ZJxWMeGrhJtXaMTS1Nq0BlfgSWeFtcpcy0AV0zpvQCRSK2KQCii0pVSVFUJPYWXvOXRB2Mcil0Xe81TRYNWwt8ppQxaXwJ6DerkTnl+IWRbGWKn5yNDCxgVgBSBWn+rAQAuhYS9VVF3u4Y2Df0AQLE8QJJX7D3nMOXhN0xvSGO9Fw+AfPRBva7uf/5pGzlhT9cXS5wlAVrXIZv7EmFVVXMVAq9KPamKUUZDYEXROl4rwxALvHalqk4k1zI4Ecu/mWZH7bGvnXTqKSmV6pZo0yZtSY5osuE7wwhC4jFS1JAWjkr6s+j6JTDamWfXE1AQet7pjI4/WhLJVK8l/T0JaMbvDa/S74VhNNwb+vvQOnroP8/aAIyxooV1pMjVBLYe3k5fmpFWALxz2L9SJHzmmasihXjslKQB1TxP9ZrT8TTftO4k56BUpSoEBWAVlRVgEIAsnbXABli23U+jTz8P4/RbOM82Nj6hEQ/3/3iMwnH046G9c9ddd7Fe24x0z1b7gfZjCapqr5ITo+iUopEZrGG1B3Ga652oiiX6qW72WewP9cxLrVSXDibS2EE9sXAEl02daTmIbeajBeWUvFEE/+n+h1B9e3krKdlHQNMpPYf350FOuM5CpyR+3Y+dn98h6A3HdZPWzf/4TZt1dNoY0LgCy6PYeDMOF73fsBVFmD59hl1JaXFjVYn1wFALGHQE2DRjfL6YPNUmTDjILoWDIiGy8EsS9ZegszDtw3dsm4F9CWfirQAIgAN4ce1otEkEx5GFyYQp/UMaRufNxPCoekqGWbvrdHo5zUY8a6999rVx22zrTvHVV1/aW2++YcPQ3Nhq0AAMKwqsGLJ8gEYWnmizqnM4Tp02Wr7n0oyzGW6QGo7K66+qKqecsda6oNWhCiPxhurUQwuDV0W6icAT5MtsKwUwqS+NNiIdQ9ejKIt6A2Vg2KvwTGvIPedjdMVpgUrtUiAq/1aFl0q01U5BaSV52+Ld1JKaEk9CG+AaPJYCQJgTChOJmWuVx6TNQK0emuVlc1aFslNkXojKGHylZFSBJM0OGYpeVDSImCujr/RQLd6V2lYIzIgYrLJ0dSOX97Ry0SL4JqmeU/qbPO1Mxl6RpzVSn5X3LjEvxspxZRhbgRV5m2rEqbYEMroShZRU/XoBXEUTFNYHrK2TTo1SKrKM8uwAMjLASv0onSOAoohLJ+5J/woBL+L0CMgIaBQQupenq5SQIkq50byKp/oKPN6Tzzzdeu66g22BFlEXNJtWAXAWLJjv5lEpY6R0qErRlWbT/eQxVpIYkPcpfpLGU+fU+IlY2bVXL5v14ac2MCPXbrjyGoAOOjqMSSj/79dLyAXZlH0t9LRDTzOM6Pz91edttAiq8BWUBlT4qxJui+aNPGh9r8IoOrK1hAAZ69UC0xhNVWJJpFC4RD3S1HdJUbCSr6c7UuvpZ5/tPGNXMZZA4I2NZBim35QWAunaLSQZjHi8fOl4EjdmY2Mb30sclWmLmxEa+xj8hIDOF1kcTcuVGtKHWyCSKcAoB2Atz2faf16zUYftB1CGZ6jIJGtJjkDqWlIyBCof11wTIJDjVoJ2kyLCeVS9KRLr2tlIpoE1U0VEs5A1U0IDZVuwylVwjhs39jsCoWFqyhv5+J5C46+fY95JaPD9WIfP0pOQpRj/+z/fY30gUbtInnNKFDFH/sBpmIlYiEuYyyuKOBLYVdQ+k/ESQV1E/lxA+ZrlOF/sH2rCK0pBLq+Js7UK8nnP7bYC/KCThaOnVNZOfYYgu/Bgq3p6HK2Mn1k4V8L0ZUwwTjenktZoOH6bIzobW40/0OtxRCcM4yYtijjfHb5HG+ott9xsH731Xzt0950IUdKVGBSeiUGpYZJ+/ulk2/+Ag1zppML+Ai7LEcy6+567bPJnH9uIHp2tC0RaGfEOiiSoKkdQHglkfVf0RtL1qSabqbLqlGqo0h3tnMhZOYz8SXMXQCSucWHxnlSgbDl6hCNaNsCVWUtlkqo6HBlUVSQKt4tLJN4CBlbk0yr68ajHk9yItZS55mQRWi4SMRdiLdVTObmUwHbubqWAnnLKPtVCQqkdeRvtWbiKwjQD1AQgRCQUB7SODQxqJWxkyK3kmKXPoqCta/xICFqAZ+hWKRXZRRDz1L8qj9D2iiVLbAD5doX5RWJV3y9tclmUOrfHE8oHVNWsoBJNJD1tAuhzrJZYIPebr7QRAEal2Np8cjHg4jwpmuI6VSuFyP0rRSQjr/BwI60z9F2cKVVf1WFAHQgROCHKwWC7iECTq+Ri82Lc9Vx0HAm8ubQakSkBEwEQcWT0XcBF/9RiwP1OpCT1ulSyC51abh7X932+viXs+hTot5+OQ9Da8JahuXHKz86wgtHDrNeQgYjZ0YCTTVJpqyKuR+MgT1kcKAkxllParEiVdGMU1VEFkC+BV+WLjtkZAu0cypqHoPJ9My0wPNAJWw4kGda4C3Sox+J/Dg2MvzPvoerziug88c5rtgMtIEqWrEhFckQ4F/Bnvinq6PpLtWgDCew4QUae3SpAnyKJ+qdIn8rMBeoEZhehyXLqAYfYaQAd36AziaMX7xUxQIgjWekiW+Gx4+cfj0EIJsK0Q1KEQccKSd1h5CUEnW09n/B6Qs89PG54bv9+Xfcy0tpHHXO0DaDZaw5rMUdrCmcoD1XqTx+jCWf/nla0RR/Hb6tCo0r7QkofjCIJtXJp4bspSqnI5GqirQLY6m9XSb+rzoDsVC81ojqQ4xvUK5AK1zI4kSdNOMR+ddGFiUDHp0f9HNxYtCsc8zCSH87T0OD7aNaJJ5xoC6tXWWGPYkc6FsG8kT1SxQ7aZ9k+sAtU3RFdz2QvIwTuegKugyuWg+yDANx69UTjfvOpfFRlVgPOpxy2pVNn43Q0W9exw1wEPQ/np4RUbX55vV13AUf4OgAAIABJREFU0WW2Oz3OPEiPMxRJ6yoG1x7ohEAvjA55MBMeKwZH/v3fZ0/7X713c0QnGsnYy4zDzH6SxJM99qT0ujb3p55+GmG6m+0nyLNL8XYlYnk5hJpzC+nxBKHwfSS7y/GaBw5EWA3jvAQj0xeNlYGQOqXXUYwxzOE4Io46UMOGLYOvIhHxL+QZKJIjIqcMjcK5UlBW2F54pRCQoUqTJojMAkSNGHrDA+qg8mC+JChVw/kVeShmk9C5GqTKCocmlz5UxRgHdbUupcIjRz0m1FiBEtlMUmXt+SeF3CyR4XKIlqB9U0sYtoLFWgexc30zpbvygOAQEG+h4oZICIakilLzZZDw6vNQgiYt161Hb9dZXKFdafYUQIxV9ECEYfVDUqi6Fyk2bQpSCFbFTA6Aph2lzs0AxhoiPcWoPK/n2qtQmm4sg7NCOwNVcxVyD0uIxCjnpxRWAwCsTjlvEVExjhq7dnhSrmRV7TdcNRABY3FgpN8jQIQxFAhR6bqai0qnRs9FmikCqPrXiY1Fpd55jHdHQufuvS1j/H0Xa8poqF9SSw6DA2g+tVXy6jcYbyRDIxp6VKH3qcalPz3rdCsilJ6H1ovK1OVNF9NeoDuARQRrRTVWLl/qQLF4Qoq0iVuiCJYilEoxSNzPa/yoTHo5IfQR+cV2/RVXW38qkHxqNvYWY6MbrqnYgfCfTZdaSVVdTbQH//M05OodXVsO3Yu8B8kL6NiKOMkDFo9LESnX9BMQ50vMFUl0LVj4pxSIQJ0A+3zIzKftf5idcc7P2lTZ9UYgBgpJe4g3rjE/KTSWSV60d6T8uWIjFRqotiJBSd56mBpMSlclGfi2gJd/Zl7g867f/d7+/d6bNmyv3dxep+a6PRFSVDXjcqLf8yZPse3hi5VRyadUo/hsWotKP2pfU5RS0V05Fnp22gvUd8zNPRyinv23aOFDpVKpivpIrmLaOx9Y37p2pK8e1G7UGpEJwX+6+RbOu6QIv16Pn1OsIaT3lCM9sc/ee1nPbYe6CFSzBGC5pwb2cLWpKSpCZZt0vnhzlL/S2JjKTq159s56tux27IvSoMphT1Rj5wJx6cTzo3CkGgdk/ldTrV3XjuzZRH2V5mJNijO5GGHUn+53sF1Gl3ilAF10mzURP8ukKFbSvuXvNV6rMQAOAVG8Zr/vfvi/eP9moJMAdEJjkaQi2pYR8a/5yb4cwpxEA5fMnopeTR/X/kAy5bWg7wZxX1BKVT1HVUuFTv8Bfa2gqZ2tRB1zdQUS8Ri8nlTktMPQ1GHQYRo7BK9ScNfcTlEEQI/SIzJACiHIy1b6xFULKUzUokArot46vZk0VR4egjb2ehaWBPu0oUj9Vf2B5El0LOpquQCu9ZlEQCibXY/n1VECa4CNmip+1yJk8UlzZz33Uo3nUA+QyYAI2NRBKRjpyKBvITVf1F7Xrk2RMJvxSMroPVVDKKaOluudaBnQvVcfmm6ucCklpYhE0K0GsKhEV4apjBLMYppFZnM+kYMzATRK+2TJ40FUrYGoVCbl5aLENFJW6bq7i7/Ad0WrFNlSJEWVPmr+KQBSCBgpYjNMpX/0OxVBcHX0u34uItXYidc1fN/ny7cQ0WdcJEFba3CQcJOJjUSSZ5W0GeuYSQYxjIIkAfF481kC0fO0n59tPXbbznIB33W1la5EWvfvUm8MaBEgQVE0ec3d8Zg1jqryKm8hO+s8SgcVo+DrgBCAbzYicD143ldccLENGDggEej4MQ29y3QpgU3xHAWm7p94v/3x8b9TkbNNqly7paWGImSqohNoloegyKeAqUrwJfoowryMZbWcCRHx1aS1JVUipsysN963E/fcz874eQroKHWVBMo8GA05DbrPOCXlwYp3jvzvYVohBkep42zYUNKPXexFp+Ze6r3hueJ9KzTiMagOPxvOmzBS4TV4wkhIWCXn3+ub2B51+OFW26erDRo32u1JqkRUObmiZnlEMD5+5F829seHWJ0asrLulKoSX017mThXqnwTB81FNkhTiUMlIF5ESlKtc9QuRFVbUi3fYsBgF9moIDJUhQhfHZIb11x8mY0fv2NrZMODFL9mQ0fCX3sMAML7j50PP07hs/Npq/so0Hjg8Ues79ihjico51LOZw7FJJprwGuj3MGKAT1NyHvUQtZrx88FSDk0sddX4DjKMSuAj6Pqz3rt8YpyQdIrX7jM5kC277sz856CD6XC1qmQgNcXk74a32eQ/YXzSycsBGFxlCYEMeFYxHuYfvdzLx6ncD3H88bvW99nP/1fvXcz0IlGMiZbxd5ZvNkkeT7+kH6Sv/nW23YVSpj9OudBTEb2Gy+4noVax6ZaDgE3VyW3RAPq4H84bwWdGYGPeiZ7nnqYkJutxINuAtT0QmRK/A5FeDJVJeJaNqQATqOAjsBPi3HVhuCuT94shl+EYqVzlFBpovRGYoDrACnaVRRKFalNEZVsqoC69xsCyKFiCEHCTFJRajDannPVr6WEFQ5MnSJHLFiVs1fRt6eSpoYqHW8Pd6cZ8KY0Vx2GBHVy7hd+DfwTydorpSOD0sj3JrUlIPKkCoMGUmwKxSo3LfW1DKEUIlMS0BLXRLl5Ra2KSAEpFaQUj0CJfhdgUcWRSw8RcUj9XuBe2xhPJWkh+Y3PR1WSPKDUJplSmQ0NSGygYqASbhIxWAm1TELj2BYfJMkghueIz+83M517KSWsp5xzpg04cE/rQ6uGNatWOGKxBB0beeZSsu6IkGAJnnOF+lphQORVV6GbI26F+Cw6nqI8juwMOOwFiJ/02tvWsbTGrrr4UgzOFt/h6KTL98eAJn5fuNbi1JYDOvffbxP//aQN3oMqE7VpILooA6lqKs0ZRQhVGaf0hireZBiFZNWfS/Mndd84FKw9fSldovU0+60P7KR9DiSic3Zr5Y4f43B8/VxKFx1IBz5jsBf/Ho5DfIwkEBICmDAKEZLCvdEJQcq3+1aKpB1H3NLdqwcM+h6DOi9WN3v2bDv1zNOs/wF7WTGEWZHoXSpKUg+SVMCRmvzvF6wrmlu9x4x03Dq1dFEaUfesKj+lq5UudhWKfKYG46+IWyfS8f3RSSolWi4j73hrSEwsB8hrHij6seCDT+2QbXa2S6+8woFVpaLTrbd4T0iKIm5s3YU2QNzBHx/7IyuHV9kd7RvpOQmsZOD41RF5luPaALjjwtjrU2KthhPYq0sv69+5N/toI213ZsF5rHFRaUXIy1TFi5MpsFiBCvRaxqYLTT7L4WTmECHrpKavRNxLl1KZVlJF+upS1w/PR1eTnIr4PuO5EbZd8XPcz790azocSx9h/F+Bl+9znM1AJw3Q8Ys3HUEw3OhClJ8UytWm/DB6Bvf89jc2dlB/G0K6Rv2rKpjwVRKYI9KQlwN/hLmusORK8srV5F474v105LVm+DWVVHsIvXeBmJbJwmgivSTeTj16N03korXwxSVxCsn8XVEPgQp5pPqu9hE1bOLOmOAh1avFAOdy7H+VuVLV1YFFlIXgW05H+h6xyMrpC1RLhVWz9EUU5ldai/B/OYbA6XYSBpWeSLPrrE6SStEidRmXyJronoqoAKJ0bQVECORRyEsr1P3yuzYgpYREslVKyEdZfIpIKSERbf9fvjxY8boYoREKjxdHW5LeF2/6G/PYkzyleFNNuqe2PPT4/W2RW9OdK9ycdY1LUWw+9ednue7RfWmbUImQoTgPStmoPFsGgSCd62sljo7+JiJoBp7mWlKGIm679JVK/ZU+JVLSg5LhL19+w7pWN9oN9OhR6mpDRe5UiMzfa1IFTAwiQkMaG1MPjpS6UguIB55/ygbTO6kBwObkCIg2ZcBzEHPaRQ4ANA7IYEuypWMC4JExFulbnKhUDytSuoB5rSelL5W6Uvj/9J+Jo6P2I8gSBGnFTTWM3ii0NZ/DuZV0jnCvCY1MCEpiZ8yfL2l+hfvc91ln8XWmA+OehHz7rb+2lyd9ZqOoiJNkQQPjW8n8UeQmhxYW+n0p4oElcxbYticcYV179nBNYtVCQ6lERT9UdajoocQx1beuivS3Ssp79O7jIpDl7JECTl3Q2Mplr6lAY0cPOh+wPvP9T61XbTt7gN5Xisjp6/sSY5PWnFdqD1+Loz7Lkas4/MjD0c7ZmmgT7WEAX/IE26mYA4BXg+Og+ZgHFydDjZvVgoTMuvqxFWcVOUd0Ze0aq82AkwhYb6Qaq0LyENiD2rIK2qQsopM5mmLMb81tJwNB1F7RSslOrPxmpp24/8F21TXXtHKU4j0sXFexXk74bEMQnpTuSjqun1d+jL7PPPtfvXcz0IlG0qPWmJ0ebxLxhhNuYvFEd5sJYOPBhx+i98qfbCCTfTCl3eRirBZCr3K2TisD0JDBGqhG+GsFZNh2eZkOAGQR4chhcdZSkSCSWjsBE1U4QaKVyBmhFs6Q6qyttJVC8sqLC2k4crK+q2qqhRCs8H07EW2lyyOjA7NZ0ZYMiVVJ0ddVOaQiFV7XR8RdaQDlquVBbqr6IZ+fJfYmDoSuU8TaIv0OcBFPRUBF0ZW4qmxTJ6/r/9KiK/StkU4BKC0ofU9t1Cm59jAVkA7A+HOn25jTGYPQIMSfTTI+SQYk/lzScfz1JXEvkgCM95JioxiDrTikrE1qyaIldjqpq0EH7AFAgUsD8FYkcQ0l1RkYEBHAZfBLqUpSR2jp7wj4tAcQd+qVEldUxETGTMrNSlVqk1341dfWu7G9XUt5uY/oiK/mN7owvZGUrgvnx6aMmY/uiIz812f+aQNIxbUHjKnqxpH8W7SJtBZqUfVeMAUlbAEbGUyMgUp3s90a7ODSHrqXSjgVlQj4qcnkQqIBpx5wOBGds1qjAekU1P3mn3Td3pgkzZcYhCY5WP4Z6nucNorndVvzOGkNhNG08LPxz0nPKynK5M/hQCTr8+gjDreyLvnWjwIDPQ+vLyVA2onUkyKvaxnrz//xjI094TC63ve3NUQSFTVUmrqRvVHPRyBcKXOlf9QQVJtA775bUOSQBTAiesHrHUmfq6ddBqKk2puy2KcWTp1uVZNn2w2XXGG77k4jXwCAgGw8Fun2hTiqFu738X7mj+GVoP9wzz32OIrdPWl1oSo+KUGLY6Tq1PaA7YYqVMbhwxVKtJN7y0cyROKQTQCZdpLEYH+uQ8uqah3K4mr8u1btUtbZkhVLrZJoumRFuqDVpqrOPIoA5BCrJ2FRN4pZ4EAtnTTVBrTLRYn/LifYGbYDiVOW6VJ16aI9G5vLSWOzqfv///J9m4FOAtCJc96xOmv4kaQITpwu8FEFbfZvvvkmisW/txrC5p1I8+QWUXVDFVYTERzXQJGS6fW1TbaYzsZVYuCzgDOIvMhbZsdw6qHypOsg9GZJDA2DJOMjB9PJ2Lfo2wj4OA0GdTjngkXgldidSJi5eOBKAznOisCJ46oAVNj4O5KCSFUIkY5wQAXOCq9tzCAlTUovsS9AEm7SYdgzCaT4v4XgJUwHxBtrunLQdOFVv0mFm3sS6AjTI+FnwucbGraYyB6CDf/5OMSbziD5a0tSI006f8qIbsjh0N+Sju+PLY7OqWedYd3Hj7Pew2geq7QVAHnl0qWuX5BUWkumz7asSvpW4TWLw1WGh70A3llz907WZ9vRrjJJvAh9aRNXlE9AZ1huJ7sWsTIf0UlXOeWfpb/2dKTIdIbG34uP6Pz134/byP33dNID6gmWqsrBWOIpr5w5hwqcOfSE6mz9+vR17U2WQrQu4757jtvKOg/s54TbJDOgNVAGybMaj3kRzTmlR6LUlaJcvhN2DA7SRXPjFFAMZmNjkVS9E66vcP6Hz1g/h+O3KWDHzxvv2MXRS3/e8Brj/TFddMun7r/44is794LzLHPYALq497HOjrRPCpSigDKqpSSWKAK89p+P//mMdeN9I/fZ1YkHVgM2dW5VY0qqQtenSIUAtjh94vEpGtKZzyt9KgJ6ZQ0kerU/Ye+UdpK0hmrg8sx47X07aqfd7QqIuV6o1d9LvL94MOnHN97T/djGe0S4T3g9tR9RaVYG17H3kCHanh3Ia1ZfN+adUvcqaK1n3mn7zieq0wXeToZa/LCDi8uohrmS6JAS9Dqi95ncj6Jiy5Yss/nTZ1HFS1R8MOKLRPnbNxOtouAkEzXtZjyTzhSTIEVvZXQ0v/jsc+0wAGc4h+P5E6e00s3VpM+lA8jh2v5fgpfvc6zNQCcaLb8phYYpiaiXLpyniRK+FubFfWsHSfJLU+G111/Hc4TYy8lUqi3hKDHwRaRdSy8onVdVVnpd0RqlCBQ2V5WLgIrC8AVsGF4ETsBEmisCJiLSpn6HdCsWvpo9KrX0Pb90DV6d1y8CD9z85hCDlfAUSQApHWhJMswxMAg33k3R8EjauEMDpeOl8+LSDVWSoWkLCMbXkM5Q+VB6usaI6dI8sRFMN/4h8HIcHTbKk079qbWnrLcPvXeyKfNVLy2nQwLpe+67H9u2A4bZ5fREGzJoUOthJ02aZEpFzChfZWOP2N+lSksRYJTEQR5RnnlfTrYRBV3tRlJXoY5OaDRisJrOuYiNfmhI/DzSexzQIaLz4EvP2E7HH+VkAWQIVUkmrkfZ3EVWM22OnXfuL+w4OqF7frgkECb+5a/28BP/tG47jqXHVA/Xr6orQpPi8FTA+1iJR3zGoUe0pq7SVa74e4ijaeHzD/eVuIonCQzGYCUGRf54sUGO50QMjuNS6jDlEPIUY0PX1nqJwZCvtrrphhvsrWlf24AdaTCpwgUATBeiOHoIKvWvxsgr1SKNqIVUXpXj5O1y5vFO30i94orRHtMeqJ5WqiSSgybhR6UbldrS30Q+l/aRUlvLaJ2hsexEAYMkJaQ0rqj5l/9903rWNqMr85ArbXf7q2QgAp5dON5Jzy0EOEl2Id7DxE064aQTrBstKbrRgqRZvEYAnYpJGmvXonaPOwog68C1lJUThQLc9C/qbEVZeVaKmOKSstVQbTKtIzxHjVcGFVmau6oWXLpwsU36fJIVwc1Ru5paxlVprkJAXya96xrh/UgwdR2FLF+99IadefSxdvW11ya2wki617bmUDhm4Z68MYfYR6C/pxn6//32zUAnGsK4N0wcFUhnpNqK7PjNQZuLD+UquqOvBQsW2KxZs221VGil/wB4EYDxAnH6XWkggRyR2jY2keIZ4bgqqv5hdaSQdUqwN6mCI170/vd4DOLFHI9JvOnGRi3p/ek8+TAS1FavnaTx13WEx00HmsKFGhqOGKC05e36cyWVoIbRmfD4Sas3CXS1Nb6x4UvnkcUGUeOyjG7bJ/z0ZGskOtOdDvYZNElVP7JCDM5ceuV0xShMhNMgTpUr/VczU+ZSLpvqQoTYLrjgfFsKb2D0/ntBjqcikC+JC85EMHBobrHdePW1DugkSTYkGdC2drPwPkPAp79rLfny8kde+Y+NPngCkRi4a4CcHK69kqq9RW9+ZFdfcpkdgUcrSQW/DpQy7kBUdOLf7rM7J/7Ztv/JMU5bR86GyuvFKFr62SQ7eb+DNigv13k3No/TPbf4WSRFCzzoDaNBfnyS5qVea4sHFl5vvFaSopnxNYXPJgRy4T2G+4TfA7TPHHXkYdZu+CAbTSuCcnpbzafhrxy3jlR+qoBBYFMSGEojSt5h3ivv2PCD9yYQkdL+6gJfR8UN6jOm3m2uUTHgWlVYinhnuWoiytDhu6j7eSkpL4npdenVwwEipajyiEwv/GaGrZu7zK487wLbZ8KEDRp9huPt9+sQ8IXjEc7dGNzFaas777zD/vPyS9ZzYH/XxX4NVINcHIpC0v8FFJlkEalRi5Ys1l0WXegLxK0BADXC21Hqqkr3iPMrIVSsB6mulNaTBmQOEcpJM2ZZ51FDHO9H5Hupyav3WhbHUYZAWkQdqdqd/NY7NqKwq91152+tByraSY1ek9Kt6aJ1fl8O99jQqfcOf8hh8vtgW+v8/+q1zUAnGtl0k9svYh/STDKaSZtfvED8cXzpsSI0bX35jc5XAIULy0+s1DnknXzLVfGb6feNqGxsosUeZugJtqVBFC4Mfw+xVxADonhDiY1j7DnH15buXtra2OPPxAYivsbwHuIoX7rX/EaalOoKNxbv/cQedtKc8oYljowkeZ1+wxHQOf7kk6yuON/6bznCMvNTCt11gIQapPNPP/o4O/a44xznS7pM/st76g/RW+r2h++zrQ6f4Mi+SpdKMXrux1/asLzOdiPKyEpdhcrIoZEPrzlpXGODk/Q8/b24qqsHHrDHADoDd93RVeiobYh4HCtnzbFu8CCkaSXAJmPpn40D/Bx4Kem6C6+41ErhxQ2CNFoHR0KVkOKbTX7xNTt8x13s7F+c2xr2bws4xMYv3bxM50UnASQ/FvreFhHaj1G6SGbSmooBSjjOSU6Of25xhDEpkv3Rxx/aJVdfaZ12GGO9+21hawHE1YhuCpio0WwNEZkGtW7Q71KdRhenmnLpon49rCtRRhHg1axTKspKTSmaJhVrlWdLR0zHK6d4o4HfpZMkNfc8tGRUWCGAI0K6Ul2KoogbNPfdz+yQcePt+ptuaiXmhk6ff1ZxCjCdA5EusuGPedRRR6BZ1oHKvp6u7U1VE9IFqiLNoXQeMFOzGnFToqiKtrejyrVn727WD6mG9UQkteevVxReRSBELJuohOwgMAOwqwcMffDRpzYf7pwa1Tbyeh4cn24DAFRSLceprpcQKoTnjmiyVQIw62YvssvP/qUdecxR3xFOTLdXxnOxrT023OPTrfPNEZ2NWdgf6PV0olD+9Ok2oaTXkx58OFH8ZqnvfmGEt6lJEYKXpEWVZODC86YDWuGx4mtKGup4M0wXWYrvOWnCh8ePN8t015Lk9SZ5WeFGHj6TePP24+avLz5vCGzDewiff1tGIN34JD2v8NrSGdCkeZfub/H1xs9Tn1MURIKBJ9K/qbl3Vzg6g6wjWiRK9Yi4mb2iwn7369/YsGHDWrU3/P16hdW3X3/Drr/3Tmu3RTcnOb8W3lgO/bBKZs63McW9vyMYmLRJhvM+HM8QDMdrK35WPnUlwcAnXn/ZhuyxCyrclOKiir0GVeySabNsrxFb2VVEmFK8kVTVjc7nnQXxRX77+9+RYplsYybsYysWL24hySI4R7n8cbSAOOvn57Tq6MTzLB24iZ+F3tdWoUO8dtOt5XT7UDhuSZ9NWhPpgHO4RpIAUtK68PNXjpxKuK++4gr7fNUSwOcOTsm8AvKsohPrIRfP+OQT60i15zAkCLpBfK8D8CwAcE6bM4sUTZaNOmZ/F7ERN6cQzpV4OpKgEHAuQRW5egmRm0UrbSg6XH169XYRtoVLFtuCUqLjiOcVw7lSXanSPOrTpurWya+8bcOzi+3Pf/6LUx9PAjnpnpkfz/AZJu3bfk5NmTLFzjr7DBu942j6kaFUvJoKMpzRZqrMllAS3riq3Pp062l9+/V1c1GOx+Jli60H63A0LVkyATlrpesEfxNJb1pCpOQ3sgB9a+j3994nk2yH7be37jQRVpp23qIFNmcVhGzI2IWk7cQ3y+W+VUUgu7YKvt1JEw62q6+7fgN7o3P7tGk8f/y9+ue6MX2deM7EdsNHzn4gc956ms0RnWjE41Dxphje2IgmGc3YwKUDBOEGlvSepAkSG98kw5kkfBiDh6RrjAFROsARG7Gk+4iBWtImkQQe0o1D0qYeAhT9HAOOdIY1CTTF1xKCkLYMXQiekjxBb2D9BpNEVm3reuJnkvT8kzbw8H5c1ZUEA392luWOHGTtyelLobYZt7dmFcq0sxfb72+7wwYPHrKByJiOIRKl0lhvwzG7+ne3W+aAnpbHRq5WGtJhWo4c/Xa9BtlNLS0gFG3xG2RMNE8CZenGLN080L2kdHQesMdfedGG7bkrpH0AhcrHIaWugGOz+6ARdv2NN36HTOw3cgnP3fG739prX31uOx1+iNNoaRaxnwuc+dZ7dvK+B9mZCAYq7aXUSbyBJ63LpPckzal0QCO+36TnHK+z+PdYhDBp3sb7V5KxigFS0jX7c/tKSQHio448wrY4cG/bYuutbNmihRRhVCJ6l29f/Odl60s6/sKLL0HEb4fWSyglwvOHe+62fzzxhPXdZzzRiq4pNV/+k8CpKgGlhTTj/Y9t5ceT7ZfnnmfnnPvz1s+rKONhInt/nvg3azewB8Tmgan0FmBHz3Il/J/1C1fZpWedawcecogj33tyebxvbmwdx+DPP1vfmPkmokbvffSebTF0C1etKiCHi2FrmJNLZyywn515lp1y6qmtzVh1vMcee8yuu+4amn+Ot0GDEduEdN3ImlRRSQZVs4p8CezNnzcfENPFHnrwoQ3G7i9//KM98czTlgkfKIP1rPJ717YFmY6l02facNJXd952u21Bd3e/LpPWYDqbFo5JOrASr9/w980RnR8a4qU5Xxzq94s+Bgpx2iTcCJKMVFx26jeFJM+sLU/MnaeFHyCigUtatZRWu5f45xdczE9JyuGH1xEOSXy9YVg6iVyb9Fn9LQ7PhxGccKPwPyedxz+DpEUWA6+ktFS6c6bj4CTxZJKeb3h/rffvn41/DvqeuvAUOSoiq4fjlm6MkzadmFPgx0jjkXScpPy7ysvPOPdn1hmPs5qwuMLdxT1QxIY7MPPlt+2so4+3n5x0IumeeqdH48+hFIFSWQ+jRHzLX/+Abs1OjkMhzzsDcDEPT3Ns9/52szg6UeoqBp6JY9gyb/RaOt5JOOd1b46jc/9Ee/zlF230fnu7HkAiV68FmCz4fLIVrCizfz/7rAMqqaacqTSvN0qLFi22Cy+92GpIcQzdfltXASR5/SoqHOdByj5xn/2/w9Hx8zF8PknPM3QC0s3vja2vtub5xlJgcQo0Xmvx9flx92O8sc/Hz9CLBL711lt27U3X29A9d7NihFJrIROLK7Ny+hxb+Ma79vg/Hrf+cLhUBaQ0jaLXrmiC53k2fcU+WTgb7ZktnWyG8YLOAAAgAElEQVSFdJs6d+1s3ZFBKIdz9dY9D1jvLt3shRdfctWkvqmpnq2ilf949DG79o5f2zY/OcxFGVWdJU0k9ZWaRxXdkdvvajfeeusGxFy/pyftmxqLmEcY793+8/q7wN4RAOas4kLr06eXE3tVqxEVjrz9wqt2+aVX2oknnugiLRKp1C6haxc4PPjgA20F4p0TjjrActbDy+Q/tfppBOjk4ZBU0+5i+tez7IQTTrLjjvuJ4yYJDPr08q/pr/jXf/7Dhu2zS0qGQ20zcECq0BmqmbPUrj73l3bMj4/dIA3r941wzSXteUl2KwbX6eaqH8N06+X/8u+bIzrR6KbjNOht6ape0m0E6R5c0qLZwFC2/OIAS0sbAf+6cs5x9ZTXk5GGjtpC+JISvTc0rOF1xj/HBiVG3l7Xwy8Ev7nGG3Q6sal0708yZPEx43OGG2s6UBI/k3SLMd704+v0m1e8eB1oEahJXZwb5/DZ+Mfgn43b/HiWGzwfgR/3uQ0jT7GGSjrj6MfB30O6z8XP0hMEVZ568lmnWd6WgyEiU9JKlKYbuhtr2Tinvfm+9W/Otj/8+c/WHW2Z8Bno50X0D7vg/PNtBlUhA+hELWIoIh+u+mPptBm2dfct7KZrr3OGzJ8v3XqIrzsGC/G5w/v1aylFRqbq6tmnbQSpq7UYloKuiE2qSSftROZQdXLF+RfZkUcf1Xov4fjde9ddNvGJx21PKmSksaKKlbX6R/Rq8Sc09dz/UFd1JaDkQd+mrqfYeGwMiLa1VtoC4fFzjufFxtZRPM5JzyVpfcTH9Ryuiy66xKZP/9q60aduLbySYtKjXYYMtlfu/pOdfsTRdvppp7s1E0ZefTTos88+tZ8Sbdz2xCNcF/oKSv2llpyH+N8S5tfMZ161w446yu5GG8b3cEpdR0piYTXVWr+65CJbndfOBuy0NWKY5ejxQNilKkkcsuGFXezee+61bl27OpDso6uxGnDMhwpBYbh3+J89H+3zzz+zCy6+0HoSzelJk1KWBuurna1aUUJUaZm98MJLLVpIG6qrC+jcS1Pne+79g22//+42hB6IGXUCSfVo41BmTqubJaScV8xdYY888ghrE6I2X6lIK+2AADxTJk+2cwHt2UP7WD7gsJK2LvWQtFURuZDeVz/Z+wC79vobWsc9iYgdrsFN3VfSVaElred0e8H/1d83A51oZNtShdRb44meZECTFkO4KELjrr97Q+DIqS3kSBlQ9XlK+nJVU0zqVKxAwCbV6yrpS6qiDvAIILXIuscTLwnkbMzYxpt3fMy4RHqDxSRg0DKWraF8H/FoWbRxpKkdC1hf6UBl6H3G4xvf33eO3RIFSScCp/O6HDYbouTnNeoSYPQlyvG4qz+PO4e/R4l8qZlqmi/1GXNzpgUsJT2fdEbVj4lPf8UlykkRQ/+ZZfAhTj7jdMsa3I9IDJVGXKPE2NRvrArDUjJ5um0/eISdfsaZNmLUKBflkJLwN5Mm258Qvvx01gzrM2qEm4L6XB09x/Ig8JbTG2t0t752/ZWppp5+8093/xsDoeE9hsfw66yVowM5+sFnnrCt99nL0CukBAxvGO9ebVWWTplhpTQ+vPAX59kue+yOl406Oc9p0cKF9uJzz9mjz/zLBu26k/UfMdLK4PXIaKzHOq0lCrHw48/slANp6gnQ8Rokba1xP7f1PV1aKmks0j0r/14P6sJKFj82SX/bWAQ3Tim0BTjDsY7PFa5LL7gq0vcxkF4Hw/8aPHCQzVldassAjf13Gg/Q+aM9fO8fbfyORALjfaDlZkU0nkDLgu67bmN1agXBvCukeqgjROP5n06yqinz7Hd332UT9p3wneo33Zc4Wr+jiejjb/3Xxv+ESjuOJ0FW6dEsmzXXqmYutCt+fh6KxUe6jvQevMZzLYzyxHpqSdFJrwR91ZVX2hezplsPurHnsncUuMbLmfYNa2rEsK3sengyOmccIdH5Jn012Y6ExNx/7Egbt/POlqfKNDTVmkgNNzEWc2fOtS16DbS/0b9KIM9zzvyxlhCdvPaWG23yysU2cNsxlJ3TKoO2QfkQ66Ul1Z/+Wbff/GvS0oO/0/tK9x+DuyTgvanzN3Tq0wHxtBvj//CFzUAnGsxwsccG0b81qdog3SJoKxzauoHJ8OsfiyEka0kptHrlCvevDqXkevLX9cjxr4VP0IzXrWt1i43/ZUG0yynuQsUB/0D5hQhzdaKbbwiWVIkSRh3aQurp0HlslMLhi9Mm4SbWeq/qSp4GwG1sXnsgkvIAU+8O7yFd5CMpepXOM46jbW6DV0WR1FyD61b0rBKgUINMfe0amgZS3bMWTSQ9myY2eYEdD+JUIqsqkBxEGLPZbLJRJ83tjMAZz6mgZy/KSvNab92BJEXxWoUfNxyVdBG0jRnJGCD48vKTTj/VMhEbK9Q1ZedaeVWFExpTpZVUhFdNmWm9EdjbbcedaUeSb6vLSu2zyZNsNT3aug2kj5U6yMNzEKDIpX1In2GDbcnUGTYgu8Cuu/yqDYBOW0C7rWhE0rxIGgfp6DyJAu02e+9hpfAh2iOalouOyjo8+QyMypxPv7CVU6bb+K3HWX/GXemO6fPm2AxInH22GW2Dxo6x9vU4EKQI1FNIcLyqptKmvPWuHb/3fnYm3cvDFhDpwLUHnSHQCcFAuuhoaGSTonBJhnVjBiedI+bXahJoSTeX4r/H16j78kT1l158we66+7c2duRA617c2cowyCUom3Yfu7U9+/s/2p/v/L3tsuuurYRwH9XxgEoVWfsdsJ+V0eCy17gtXVpGqVH1U1v05RRCiivt+f+86DTFdB1xxFX6PHfceaf94+Xn6Ih+CMrXtC5RKxD22QrW6jekZo8Zv6fdcvttiboy38dZDZ+3PqeI1mGHHkrvqWHWH0I0QkFGmRjZ3UabNWe+DRw4wm5Fh8qVybfQDvRd/5RSrYYYf/IpP7VljTU2fKftrYh7b6/0FmuyHq2cWYClX5xzHmDoaAdUFMXx16v5sARC9rU33WizqkoAOltbfWU14peoSDuGUHtbzZq+DPHA4088YZOrr8K5mTQ/4rXt7V66NbCxvf5//fpmoNPGiIZG1IvkJXF1QlCwKamPVqDERqvkh8SuUqDArHTeXCudNdNK58y2MqoPKtmEa1BvrS0vdU0H4y/HyQn+qPBoHoapIyCneNhI677VGP6Nth5jxraCAw949Id4s94U9J4u9O6BR3yN2oSUtvGS67XIs5cvXODKPf3FuxRQS9YtlRXyYl78ndB19y23SvUecuAuNVbh4vPnDDeoGLTEizEGsmEOXucQ6NCJPMCpZwMqmTqVqqLptoZoRsXc2Va9dInVAHQaSGm0XFKba1TPKgseS24nAGmPXlY0YKAVDx1qnYcMty7DhlvxgAGtnw+fU1vpq9iY+ahOugoHP69d6opGi5nD+6NM2836dO9pqxEtW7BwviNO6n1Sl11Lz6Bqwt9qmFhIl/PuaIJ0hBRasWw1EvQo22qDJqJYRJlr94F9beZnX9kwUgOhjk5spNu6Hz8Amwp+9D6vo/PUi8/ZNkRsVpbRsBMtkRx4OhL/K6RktxHAWrZ8pc0E8KziuRHjJK3S13qNGeoa2NaX0gk7HyVwAF9mMykvKe+i5TLn08/sx3t/W3UVklfD9bIpm3MIcvx6Sbee0kVa/bz3zlXMHYmvY1PGOowW6fNxZPA7+07ACwxf8xGNX/7iF7ZszRLbknLn9UQiqmlh0KRGu1QTvfbEc3bEHvvZ5Zdf7p6bN/CpPTBVETht2jRUfA9z2jPjTjzKqQlLS6yJ8uyFk6ZZ3ooq+w9gyhNqfYNdD7RWoN59CiB+GY0wh1Hx1QNQLo5MNY6iWi8spK9Wv6Ysu+PW260fVU+6jrBNSTj2SZHecO/x4+urrd5991275sYbbPQ++6CLg8YPnJo81k4DfQlX4bDOnb3UXnrpZafXFK5d/3n1KzwBbtwS+gF1GdDXVV/la89AIb+OTuwrZi2xZ5971nGTUim3FNARd05Ros8/+dTOueQCyyVSqybOimRpfKQZpWjtzPc/seMnHGg33HhTiugdVF3F3Mx4j02a70npvdZIfcvkCHmjm7JO/tfv2Qx0ohFNF7YLEXP4Ef8AkzbyxFJ1IfeW1I03oJUogC774lNb8cXnVvLNJFszeyYtHlICbJpYWuSKCrgWDy2oxhtVD3JajWwLF0RpFnUt7yB59QGDrfdOu1j/Pfa2Abvv6Qy3XndfLaGR8PpjABB6SxvbVONN2I1PS95cx5376ks27Yl/WNWSRSmgk/DlUj7BjSlN1GPbHWzHCy8l59y1VYAudfnfgrXwUEmRp/C9fsHGnpv3rGS8/fMpQd10yUcf2PLPPrJVk760iuXLUpEkpbyU7gGIOXKr26m/HdbwGX37s4iKKRKs4yO0NIdU36jiISO4z+2s13bjrc8O44mQ0NCPr0bImkpNem5WPEf9fYfPLfZwk8CQgM5JZ55q+VsOofvzYIx8kZVUldqiBfPhNKDYzRzJRJI+rxNKtFStaO6pRHcdgLupGsVhJOfLl6tcGOl6PG0RgDMQPVs+a56N7T0Yjs71rREdfz3pohLhc/DeYNJ7/fu8Ida9t1Zdqbz8v8/b7ocdbFWl5bZ6zUqrh2SdL8VcjWUm+iVEnYpp+liJTs66+maE2ugg3UBzSO5BaV71CypElbbDWjpr00SyDu7R/Elf2XH77W9nnXNOKx/kWyD+7fxLFwkJ52U6sO2mTuDdh4YiHoek87T17OP5Ec79dOsn/Iz/OVz78XMIn4cq2I497scAyIE2GMBbQnqwOUv9mujS3Z1eTIjYzX35A5oc/952GD/eHT7kcdXU1lNNdY5Nr1jNPrHchtOLrTMd5jNYKxUVpbZk7jzSkLPs0l/8isjHKa2f91Eq/eGeu+62Pzz4V9tqP7qlU4HUCfFANQEtWb7CNTVWFHLF51PsF8ecaD8mspGu+srfexih8H+L90xPbL/owgvtK5yF4ZR+1xHJ6QC/pog0alN9Ne0bzN554yM7+eTT7bzzfuEOFafan0A1/4Y7AWC775gSd+UzHTsXWnYt10w0p2LpKrv73nttt912dZ8Pe1dVEz269uqr7Jl337C+24+BgFzmwEwmkS+Jz0p0cTmpu8FUbN16/Y02kpS0B4fxPInnpH5PmpcxSPbviQFs+HzCNfFD/LwZ6ESjnE4ZOTYcSRuBnwhJD85tDC0NKju0iASunDLVFr3zpi358D1b9c1XgBvC7TKeUvP07RparGfqW4r8GoKbFqlAvehe0+dbr1XvxIt1Hc3ZJDqS1uqHHsiww460LXbdLbVBiMDsAFSqWicGZ+G9hOHupHv0r/uF2woO5fGz2Kb+6wn74KbruM9KDHeqKae7ZndPqg7Y8P6UOnCvcX0SxNr10qts3Klnkib5VgclXpxtbUjxBh8uZP+5VORJwKUd0bV5NvvF523h66/a6hlTnPeo55KBZ9SaOgu4OO75px7Ttw+phUbV+uCUaRSK03PS21qak6qqwnu3BYT6e22/I8B0LxtywMFo1HRKgTudS3yrhK84kpVu8wg9K+l2nHj6KZYzfABNFPu5ipAmPE+RNpfOnW9lJauJPKE10g4Sp+ajIm4SYMskXYAWSnuuqYEGtE1Ef/JIDag3m9RbyxYvt+0GjrKbrrvBKSOnxu3bBoqh07Cp6yqeh/7Z6fu35eX327/e+K/tedRhlMivwagtQR2WFBzPtBFAU0y6KhdAmZGD0QU8rmtqD2+ClC/ecgFGoFQpSByM9qju5jQRGc3OczydyW+/Y0fstoedTRmz50R4QOwjvLFUQmwQkgBaeO/h3rExkB7eux+X+Fj+eOnOm/QM4jmT5PAkASr/OT1nRUX+/a9/2d0PTbThu29rnSBLrYQzsp75nkkEovNWA6wjBNvPnn3NMgDJp1A5tMfe+9CqoLPjP039+mt74p//tFe++AQhygNs/kdfMB/X2qiD9nbPdI30c6pozbF0teUhAnn2T0+Dy3MA5dJEjpifc3BKnn/m3/YEKcwuY4mUAnIamacFaNOo83cDALe5gT2RHlJfv/KmHbr1TnbrHb9pVazf2Lrx4xbryfi/q0JRJfVZSC50Rx+ogTQ2CSrLwavLXE8DZ/h6lUQOv/j8Gzv2mOPtsMMPQ6tqqDvtQsbppRdftL8/+nfL7tvFCrknHS+D0vRCVKSzy2ttKkUCtfS76l3Uzc5HwHKnnXdF6bi7m5fTpnxjjz/2D3vx/bes+7iRto4ltx7Arsx7A2kvRXtyBHY416qvp9sFp55uJ596Wit4j+dQTNFIt8ckOcm6n3BN+HmTLsqcbtz/V3/fDHSikUynVpvk+SdtTombAwBHhkyN2PS1EiGp2YTYF731hq2ZO5NFxiKAzClp71ZA43MzwfV5+5kEdlrf1hIOaakHSjHr3YWKTNvoIjlF8HeGHfkjQMMZcEU6uwZ5Alfh5pwU8UjyRuMN9TveZwsnR/f82q9+ZiXz51kuHa41Hqn7cJbf/aQ/pH5K5bDcWLpLp5cRYK3X1tvZ/n/4qxVQxZCuA2983fFCSfJIWj/Tcq1NbNhTiTrNfPoJOCqTHUiUQmsqZ6b/iWy8YcqwzWfCRYSvJy1eN24tz0qeoa5BFUx9x+9qI449zoYecJD7mIvEBWBWf4sNY9LGEz4774G1kpFJXWUR6cij8qodRqC5YZ1VVtMYEUCaQ5d6d16ptPJdG3wmz68A8JVDWmsdDQMrpExL53NpdtA7wZZDltxm4Ei78dobiej0+86zitdI0oaaLvKja4nz/62pq/vvt6ffeMV2PHCClS9badkZGDg29lz6KjUCzvKLupCOqrI15SX0HOKe2PIFdBSL47JpkkiUUXcJ0FlXRWSH1/IQHZz2/gd2+C67bwB0/LiH8z+85qR0Uej5pnMK2rpvP2/idRjPpySD1NZx0wGr+Hzhcwu9df8+X2119pln2jJrgl+yLRVv5ba2BqE/tQ6BL9VpUG9by1zKAUROe/t9VJCX2oBu6N0A7mshzM6gJc6SqjW2zaEHWRZpx0UY5IVvvmvbnXa81aE/o9JqpyXD/lG7stQqF6+wsaTo+/Xo7Z7dPJ7h1EVzrZg5XdSnB5zGGvg5nBcwoM7fTSgOa46Xcpz5k762UcU9SV/dBjF3UFoF77bWl793X1L/8n//a7f/7jfWfcxgVyGmbsvQjOht1c7964AToa/lK1bavBkLbEDfAdanLykm1rREEBcSTe3WH95ez2KrFA8TB6E96009EBuWrLJZVE3133kc6buplgU/bsdtt3eVYwKJX8+aZvNWLLN+W4+0/G7FtMOo4XOkzljPAjoOnGOLinB45336pR20/U4ufRWqnqeL2Idzt631mmQn43WRtP/9X/9tM9CJRlhGzSPR8IFuzGDGkQT/cLUgFZEQv6SKvPHUJx+3+S89b6vhd8hYOuZ9i3F3E1EbeRjd8BGBlgsIAwRC5qmUSCoa4kBNyzFSf23NpKQ+3WIg1QNIPw/YfR/b7tzzIfuNc2BHqZqQ+5JEVPSGJl1FR7jxu3OqpBoQNemh++3D22503daVrolTbm3+rtYWlPr23na87XvXn1jE3b9j3P3zCaNO6XQvwshVK8hh81Qkp2z+fPvs3t/Z/Ff/i3YH3hgESH05nY8WIOaxmRv7lkEOeUM+9ebB0HfuTXgp9eA2eEatz6sluiaOkATDCiEuDz7kSNvhVxe2RndiQ5kuWhU+j9Bjc2RkX14+Zgil2EUuNVC1YKWtXrHKOvbrDrmd6Adx8/WQc+vgIDUxACmgk00X6h6uW3kNhmzN4qU8U9JcgEFpeqwA6IztP9RuvA6g01Je7s8d827Skd5TY95Ctm95uEkGPtyARUb+x8vP29jdd7H8+lrryLyRgchAAr8cKXxESKwWvkg9YoCdiCBUkaaqQl8lJ4O+S/BH1pSsIjVSBtBZZ+tqG3gf7SIwMkpdnrT/wa1VV6pySRdBaSvt5udo0vd0wCgJmIefT3Kswtfj4yadO121VdK9xI5EmLLSGiihCepPTznJ+u6yo/Xbfmtbs2yFratrpACOpp2kENerVxPR3EacLhnckgWLbP43U2wx6Si1gChEILDbkIFUWBWl0rrM/68e/7f12XGc5dKTrZF5uI4Ij8BTJo6AeGyVzFejWahI/Bm08Mjv1pmPrQXs0h6hI33cANuFPQC5kHIrKO9WujKD+aB0ZcnkGXbmEcfayaed6iIbSeKBIS/FE4/9c/HzwHOTfvHzn9u8VQutFyTsZlK57dcRGVQEmIHXvMmEEF2LU5CZQ5yneq2tRJizpow5iBPchU7r3fr2sHaFOUZLZyutJ3LFfF2/nn5sje1sxeyFVkLEsQ/jWk1LhwZaaVQB2BSFlSSEopVdB/RxhQUNRILkmnSiQEXXUEd5eZOTtxCOR1maXnW9M/LtFiQgxkAQ90Atvtd4v29rDvu1GI6Rf3+87ts6zv/Fa5uBTjSqvjwyndS131j8g0viS7SGhWU8HbPebMZ/nrVpjz2MSusXziv/1oDKem5IsE0ZxpZUjoyeeDctIQEtTv3sIh0t166XvNGlYIZUQ8qSeoPreSP+VjNa0iVa2N2GDLUdLrnShuy7n+MoqPLLG8d4wwx/T9ocw3B4q4FVVQAg771f32Sf3/dnIgQQ8BiX8JpcJqfF8Ld8S91fS1RHFUhNeCxbHnei7XrFtZZN9U8MtGJPIlxgGyMWysvRNS7++GP78Nc3EHH72vXWcWkiReNars+DGYXh3TgHqTb/LPx5Hcco9X8uVOyfj+aCnqFP24UASe9LFd6nvpSGFCBVelFAawhaLnv/+g48VNJJSmV5QNTC8wk3qTgyGYN3vXcpAOWUn51heYT42xFsbGbjbVpW4dKEnQb3gXiTCQ+HBoN1DXRZbgZkFVg2BMomQKc4O2o+W0/p6iqMlSJzSltIr2MFHJ3xlNDecuPNjugZ8i/S8YviuRYblHBOhmvQHzslGHifPfrCs7btHjtbT4if+QAZ+KdWhUJsQx9k8mk42kTLgYbqWnpYobHDNa9ZXeJSiR3poyTDVEHH8iaMaTPtCkoQWNPDqkBN93TSvT894wzH5fBAJ5zvSfMvNobRVrPBrxuLGiSuLTk1SgtrQnEvYVf1DQFIsoikm2OB5EQc9UuXkki6Dz8uj/79Ebv/mSdtxIS9rOvg/goFEomBp0IH7iKiNllwvjIgqpSWlrg+ZJ3RaOpOqX8pBQr19XVEbCqJsuVaFdVFlRDKO8H9mv/B57ZswVzruysOGc9mLc9PC6UAg17QpZMVEbFTu4lGAISEARfTNHQlLRYIKsFt6Wyd6DPVgWhlDXNVzT4LCgrpu9XP+g0fbO88+pRt07mP/eZ3v2u9Lecw+tx0ws0mRcD0tgoiTj8+9lgr7l9sPQZQ1QfYKCSiogaetXC9arULAHTczs4emMM99KLUuwv/OlJ5uY5xmbeGKtuGWlJM2eg4MR7w4KyZz7A1v/nuR1YwaijR10JbxzqroSoyk7RWQU9Fw0jJMTcF7P8/9t47vopq/R5+0ntPSEgooTfpCIIdRVQE7Ii9V5qIIqBIUQHrtQsqdsUGdlREsFClK70HCJCQ3vtvrT2zT/YZ5gD3vt97ff8gfjDJySkze/bsZ+31rGc91OH4YSNDiQT7ulWXVKO8vkxCsPYmNoA+DWObi3l/cO1fMu6ue+VmNa8t93JfGygnAHJj983NjNtG+J8EOyeBjmMim6WCzsVV/26CHOeuk89h4GRgYjVVAUqQV7/2ouwEi1OKbsgEOGoBtP1YrFaI1pd3ekPv7715GWcKRP9uPks/plge+91NAGF9mnUz05UzGtU2vSc8ho7BgzxpLHU8FOTSP8YulTaHyvybHhfnWOjfa7DbWDh2tGwG2FNAxzZBNM9FH595zPo4qQ+pwKJx9qNTpdONt/gUIOvjc9uVmMfmtSvlOWJh2P7jfFn2xCTJQzUOLdMp5PaARfuNNbj0AEtzQBxgzf2a1r9An69+xLza+mfPNQMzwWtF+rn/C69J64susdJo+HI7V5e12fOQ3qVbjM5+uemuOyS2RzuojAOxyzsodblgQrCbrgj1g+keVlewOTTg5y4wCMGCacdA7D5ZTk42kn8rOJQtBQAF/D0C3ZP3btgkXZuC0YEpGRkd00fHCcacLJPbAqnnonk/6nM3PajI6MxGkO3cq6skVORLPHbS/ihzr0FALMU5HcbuOBI7XM5BpjFC8K8ov1hKMLeSklHqD0DE1Eg2igPqwMSWQRRbjbm/Y8kKuffKIaoc9//vX0xh8NoSjB2lldPzWG8guArY8+h46SvnvW/e8/xZC3HvgOZjX3CdpPfqhjYapRIDQJkAIFIOgBGCaraKilLFQvD55WBMQzGfElHBx2WqAOtjMZyo06BN4WKYDdE/A3Qt2Jvl782RJhf2VqaW/lg0aYUQDhCDJJalc+OmEuddCyZnH7xiCg/lSHR4NNI+IRKSEK26pBeBfYxCq5JozIdoHFdqy3TZumyVBO7LksfHT5R2HTocVWruBNXmHNRzWbMhX6Bp7KuzXpXm7ZurNHAgrkUiLCXYwLMEguQjOLaaugB46gRBt4N7F3MsAUAoFmk8Xi/2tMqtLgGbU626uVMWFxpAI89gyUQq9ivoc1pddC4KqdDYFIAva+8+jB9sKyBUrsZr6ypRJYk5Xwv9ETcijDWlAIW0gGBBSwQAXgP0BON1KMQ4L5/3rVyC9NWUqY9LOK6Dea6+gIovRst5X5igxtwU/1Ng5yTQcVwhc3Fwo6edN7gnUNlbc89kwSzd8/tv8ufzT4EhWGcFJUxCJUjmAmO/0Pmz29/sRg9OYsY4cis0mgHSZBicn2UFUJs3UowBrMlRXnzesy9Lk9PPUPoQioedi5tJo5s3vLmbNal0gjkyI/nocbNwzCjZj8oyBSLsqjMVwH9AX6MAACAASURBVDguxlg4gZwaNxwLgc6gtz6Q5uf2VYyYFuWan+e2C3MDourj7BQfF8c9v/8qi8aMQKURaG0EcbZC4JHVg6+jGTQFFK2EoX0Wnpng9bs+H83WuF8L70mor6Z+d/UaaqzApJwy5EY5A6CUYMMcR+dcdf7uBKwWo0Ogc7vEdW8Daj8Ju+FSCIkPKQxVHYh5SsYIHx2OxZRpvSrMk0p0TeYVCwKbEw6X1iqAAQYeWuuXI12UnJIiO9dsQFVHA5k6uR7omLtkXztiX6BHj46vecZzU4wODANf++gdSW/fUuKDoUWARiKqQUPBD5KPVEn+kUIpQjl8FVJSTKkig6LmFcEMO5WzWWIJUgPFSHEwMLCnEq9z9q7d0h06kD7wfWFHaHWcNmPHDY01F6yvWvt3C4gSLFtzTeuv1N1PFgZz2mLZCFZZHmw9jztxtVHiKCvmlbt/Pcvsz7XvH5VGxGYqBnqppunNpEv37hIOEMcvAh5niu1E0mBqqhngx/m7kylSx6dYJX/Zh/l01313SSyAZgxYlMw9ewEq4qVVuzZKB1IG0JIPxoyAPQLVe/ydjTqZpiJYIZuTB5YnAoxlFNIw/L0EoIjpno3z5ktoE6a1muK6BSpmkZ3KKykNUP9B9wOgXYEqp4M79khlYQlYklgpgXA3FE0uCcyZnk9ObwxWKUylXf1xvUvBAO1auFTuvnSI3HrXnR5DSDNtdyz2gufOtBUZpTtuu10y8g9L81bNlfg4BBeRfkwsAwc+kzyK9UEPxwahGzu3CHDvps4tHCwM2VAea15FCarTqpQImYRwTGScYtpXwUQwA3Oz+dm9wGrxPgRbCQ0OQZY/jAjJPFbjXuTGxB9MDlPRjGXV0JtFgRWrw70bCmYpKSUNlbiQS+C9d6//S6p2H5DHxoyVHug3pgGbG+Bx3oN6Xvja8LppffRzvVe7/81vJ4GOY5yPRZmbTzUDrL7odCumgy8v8rp3Zsta9AEqyj6smtHxiyJWT/Q0tvD1QAYPamGHQcGQWq8zBSL6TUixcqHR+Q9nzOXyq1/noWLtN9b12/YKTaFyXON0uejN95XRoLWYnzhr4Ea9U4DIBT1z1Ur55cGR8F3ZpxrsqfJ64/z1KfMxOyaocdIBXx0KFtJLP/5SeQIpNsyuPnICmWOxOXrx4rWwgoioUv75d94s+Qf2KbE42SZroecCrmKY55p50kx2vFExyxxz45wsNGufkJog9XHPGlXrmnqX2Lt9mA1JlSC7UrrfNVJpdQg8nFUNen76ClTm/OX5U6Nz/W03o/t4Iuj9hmA10hAMYEqGnTaFxYUF+ZjPkD/gc3lkzJBUQHxcW0UIhj/ggaLcHMWOJKP8twxAhyv6YZSvdkxu4mnqqSsZj5cK0QuheQ+a18xXOkE/h4zOax+8LS07tpHAGgQVgK+wqHgpxmJ/MCNTpVDoKxKNXT1BQBF+j0QaNBhgIR9sAhuaMsiSxuf9EA52iukUlZbBcyiI5zjQz4VBgccbhpSDCnasOMJctzR3MI1T7VjwcQjSAUEIyHwtLQnwM8F/EfQVYQAlBAhMJXA+83EKSMPx/v4AtiVw9yXbGIJg6Uld4T2Z0mSaiqBK2f7zOHChohHAunXpIldfe62nhxTP83jeKG4A8t8JPzpt9cbrr8snixZIGkTIgWAUqgBoIqHL4VwNg6idTCF1IkrPAmBQiFQPr2kkxMKV8Hph+ffhzEx1bgQ/FfAx4viUgX3Yv2qjlGItbX3R6SolFQIGgk1b/QAS6nB965CjrEbqKj8b3k5gF/lYAjqD52TnKBAcix5ukQA8IVERqu8UmQ+CXBpJbv75dzmvVUd5csbTCnAcL3Wlx4bzTs/tbHzudWgfEgvvmmRowurAuETSxwnXNJjzAjqaID9sIHGdQvxD8TOAFgAb0+K8lThXCNryMd/qwMiUYkNRQAE3WJhqsDI/ff8TqsjaSzIafbJEnmMbCk+cUrZ2gP1DKKoea5FiLs3BmHKOw9OKICccXd+Zrsrct1cB6qQGaQDzpWquBeHfsjmfy4ihN8mdKOc3m3yaAFevl2Z7DF+6LjdW32kF8e/Mrf+r554EOo6RdHM4PpGFQAd15kmXPjNNtnzygbIdZ0klBBU20LE+rJ4L0PtACwZ5RVWXR8zXeaqq6uOwW1z1wlXOSeMVlxWzUyWNTjtDBs3+SKXeWInlBmDU0SpdkbXj1DeFZzHmmeBvBH7ME2/95itZPGEMdiaWCFq91uBDjjou+zmWwJo7XCxUTZrJRTPfkTjYyesdr6/P1cfn/LuzWqAcO8bvbr9RMtetUjs8zZBogKURjhfwOeoqWVyaxe5Y521hS62RssCoa4rSwKHWsXJg9TvVAz210MCvpxYL1+APP4co+9T6wOdjJTjWddELlwI6t98stY3gigyfmRiYGDJlxwWUKarMzP3oAo5gigWYqC8Y15LgoaqUZcTBmNvBkpeVrXac8ahqIddeDi3CkR17pUej5jJh7DhV9qvLy507RXO+mIyT+bivuWFeWw+jAx+dWWB02nVqJ3V5h8WvrEa2QlxdiOARgKCT0qYlXMMTpEmb1koMS/CTBg1RFFIcB5Bi9oPXSwp+Z8qlBK7kYQjWBCEEs2QgCuBMXon3iotPVAG4BsErERWABCmFAEphAMrxMCYMhNCVHjw1SBnQFC4Iv2egmiiIbQDwPpHQWOSjJQJZDl7ynRA7MwXB1AI/IxVVkWWoQCpEp28CToIpTg4CAIKpMqwr1JlAPQZdSJGqGqsAaNsPs9E6VBklAGwOufJqudZ2vtWl/c40lfMe5piaQcnH1PK67/kcnba6+YYbJCsalYLdOkGrVaJAYzTmFbU4BEPx9MDCJoUaL1o0kDFLwGPhAEEUy5YA0LBHVQlsNqIwRgRppXgsB4F937K1UgRNWesBZ+B1daodREqLZrhmEMTjWvkDzFTj2lRi3MoQyNmTLAxAtRpO1xQsB2DuRqH3GUFXCVifCrJ6uE9poHdk516JL6uTJ2GHcEqnTp5Sc3N9cxsX/l33l/rogw9k1ifvSzraNkQDqJaijD0CTEskrn11cZlEYD2Nw3kS3JJRQXkK1gX8H0C4vBaeVEyVArwUY6NBoXIpvudjclTiOQUHDsna5aukJdJW2EbjfGAXwvPF61gNmQgBcyTKz3NwP2ft2iexSOmFxsHXipWbEIGHYhyq0KA2CCmrMlSdsUEqQXxoTLhs+OlnOa99F5kCPV0Urtfx1g3nGu8WC/RjbjrXk6krX3fV//hxp4jTbTFwBlAGXjIXlXDOXfzYBNn94zfKpZI3szYHVBff/qfFqSbMMU/zaMhj/dVJGOjH9Hvr99Dvq0khtyE86rMJLpSotU56DBstvYaPci1lPtHLoW4Iu+Jq7exZsmT6VMvyXDEl9SBJsxvWOdigyR4n/s0qLa+Upmf2lb4znodhIHZLxok5aWXn7z6PF9ds2XMzZPWsV1TAVqJjG2xaVLi3AJx/0kJhm++xr4j3dbGuCYn0+soyvWCqdIQxD5wwV0NgfT31c7kTY0uG9pddLec+MQOBFKAM6RZql5xmY8cT+5pg4wCaA15/681SlhyOruUN0AcoXHIBXCKRNqBlPl2ByUAw309tRBAWzUDsSAmICV7KEVDy4W0SDko8EX4ldEOrRBDbC4+QTgmpMunRR8EsWL2utOssz81NyH/C181xQTULpJ2R3/n4PWkPwWYtxJnbNuyQGsyfOGgYKqG/Se5yiiQARJRD/8CASqY0GIGvbdsOSJMUSS7M6OKgF+E5K1dkBCteI7I5UWAm8gFCCEQiIVyOhUM03aOZUkwAW0DmhykVMjrc3KjeSRRwI7jwNUfgSUQmiM0ZKQpVMwx/Zxo2M/OAOqswpgPB3gTD2LACgJEVbEzvkDljao3AiMfCvk/aTZ0gNBLgyR8eMXT8LYGAd//GzbIf/aAu73+RjB0/TlUTMehozx9zCP9djZfzftLpjm1bt8r9Dz8kIR3R9uCUdnAgRsoJx5pA/Q3nPM6VYCfrMH1wIBTHeHIM6d3EuVWMlBZZLGpyirCOUqNSDTdlAgamZPZ8v0haogQ8ozhXwuCJwwqu1LYtYI8Ro1Jhfgj4lUiDVYFxJItGIJSLdiU8Zwpy2RJCMW9gjgrQDoHp6VhUOQUTzHLMVm2QcXfc45W+MoO+r3VEV1vdcuONsqciV9p26YiUFfR0EBRH4jrGAtyQkQnHuUXi+tfRswzHEQIAqxg+XDc2ji0BG1qM1FYVwB/gi2J2gNRQjRUp6+EltBPpuFMG9Vf3Yk05rifmTxkYLLqVhydEgbkMl+y9++GkfxgMTrLUhkB/hnnCsQgFUOZ4VwJ4sxVEg4aNMPaxkleIljVgbev2HpaJYx5Gavb0o6qv3ObKicYA5/P+KZDD4zjJ6Diuhi8xpLpZ7Qirg4ViLez0TCUm1aJxY2Tngu9Vvpk3rX6eErZ6wqI3d2NmPvRzNNDxNaHcgJAv0KRSJJpdsIOsZdBnBe6jMi+kwaFpGPzBFxKHpm/qHOj6a4MTfUzmAul2nOY4/vb4ZFkze6Za4Mlu1dmshfOz9fuY5oFcqCqhN6BRYO8x45Q2hcdiBka3wMn3cntcn8ch9Gv69sarrOaNimHyklOo380v85oc6/oododMjf1ivreRhbTmAf6owZp5rvp9vT5bvRc8OFAmSzYnoWVLD7gxz/FEFx+dFlJiZBgGDr3pBimKDpD4Rg2RgsLuEU6qcQCTbLdcgN10ONIKIXCyZbAIVBUjfgjY0AdB/MggVIkdIlNdwaj+CIZmJwiBOmPNX9IuMtHTAsJMXTkD67EAzrGuq1PgyA0Kmxy+P+d9lMt2knWr1ipU2aZNU6R1RAphnFYFEWpsejpaQdTIPuhH2IqD6ZSWLVurYEfWJRGmgrGJcWCmoEXCPcydLxtUshKIepLD6G3GKrgUVArx/s9ByoJpAI5TFFgWVv3wflHpGLAKoQh2lQjU4UiRkSEtRUBjhRG1YGTIOK45R454PoMMSCGCPt+DQKEQrCO/4rFL52PUpnC8ue7wtdp1nGCd71+DckCyTFvAAPz93QK55uKBMmbsQ649jczxdbJtzqDkTFXo66YchbGhe+lfz8vcZb9Js3P6ADQnKSBBAEKQHoqx0zlpapxUZRuCewTnFsaBzt9M6QRgvMns8L15bbhZJBA8tHW7+O3YJ9cMvVYmTHpUkts2gy4FDFgyWt2gHJ3zkQw051kFqpQq8B7RsGRgg9lqCOrZtLMKAIdjVI30Tj5Ks0OCQ3FN0P+K7XcACv766Vfp37G7PDFturrW1n1q3YlOvQ4fM4tW2Fvq1ttvlcj0eNUs1p/aRDyH5oDREBqHshIKgIZrQzHLvKvK4EKO44dbMu85zrU8jglBC1JrxWCbCunQHRULVjFKPv5knqQ3aymH/ColtVN7eAMVWeeKeRAI/zXqcQgeS9GmJQRl6EzFlkL4zPeLiIhSqU7mFAjew2Cj0KJNWzBhgZKdnSXJjVJlxZwv5W5sou4ZOcK1+upEAIo5P0yAqOeJOb9OdK36v3zeSaDjGE03Xw+TrvMCOWRyMIkoCvvl4QdkN1xZuTh6pXTsAKqFidbNU5/qMEGLb7BiB06jBYQ+bCtg1mt/NKSqT4C4TxcnwFI3NpkIpqxwjK0GXi79nn5eCfioO9LnZH7X7+xLF8NgWoHd2cKxD8i2H75VND7NvhRvhP95ZEPqs4+WL/F5pN1JtZ4/7SnpcPW16nUm6NI7+mNVAzjpVqbQfhoFv4uFP1gCcRvo8Hycx1YPgKyWD57rpY7fQjTKWZoMkBZZm+k8PEe7VZMxU9dHgR9v9uroajNrdBVTiIDZd+p06TDEqvrRKTL1d7s82FdayKlrMa/VQVQXEeiUxiG9yiCJxTMKbEUUAkQVmJlizGt6K4VgZ8nvDKQ89iAszuHwpKHGiECUXjRMB5ByT0xtKPvWbpIWwdEyaRy7l1vOyJpNMO8NNeeM9KfbTPWVbqmf/1ZlYDVSam/Ofkvm/vAdBNHJsh5WAV1RjhwMtzZ/tKwoKESZPEBLAsB7JXum4ZJxF52SmiqJEMzuAiNRkFegzNsIXOgbFIs0FCtXjoD9oT6HIIPBm+xALATADOLZYChUs0mwE0GYBwSDERBBs68SmZckpLnqsJOmHoWBlbOfwCaa4mcEXjIifE8ydordUNohlPjj9Qog4IvAhloXAi3q/cjohSC4B8PWXwl2AdJiAOLI/FQCQKjKRhzL9j/XyJ7FS9BcdbwMRJNJLVD2Nc7mRs7Z0898jXM95D16M/Qph5C2anfO6QA5FFuDbcS58Zh5DZmeYjqUaadydLnPR1C22LEoVfGTiBQW031H4InD1Gky5hEXiGqMy/I5c1VvposHXCL9LjgPGzC0gwCLFYh0XyAAA8upyUDy/XknFkOnwrGJgzalGusZO5lTG0SmjD48+dDwUOMSBoaFKUl/zNvMrbsktqRKJo8dL93QukG3RXCuNeZ81M9568235ONPP5BGbdPU+7ESEbVSYHBQ8YXrGY6qK2rayjFHWb1YXJQnsPuRVJTGhwFwFNAPB5ocarEiAETyYIRYheNtgGrYvejNtmrTNhlz/2i584FR0vnSgQDluUrjVEFvKwCaZGxSWChQjHkTTDYJqTKOCXU7oUFgkQAkqf2qwzUJBZCKoPgb86gY8zMaxoIbF/wqPRujSnLyVAWoOSd5nr5ST770OdbS5lvSYL3nsaKc28z8v3nsJNBxjKNTo2OxB/W2+16LAV5LIPDrxHGy9evP7EqlekdfcydvJYWsMOk08TfBjg54+obiLo4aD+azOQF1/ssKdtY/5Z+BRVf9whSMCsJEBEdPEjeA4/0sgB18VgQW+esXLVNAQHU8twOqGVhNXYWT4WEOGS+SfDghL4QQ+eD6tXbFlTUSx/+yjlRVXGGxvOy9T1VFmKq40oDDQEpOZsDcVZg/8yUH166Vr264wkrVGXkwk+XyBFJ1xY4GYR7rfwQWiv74+UFYOCnCDMCCWgugUI3jpj6gGkGLrJ4SkWIBIlWvZoP6eNM5x/5U+wO1I3STXqdL/1ffRINK+GeoijDr61gupiYg1+dvapQ0o3PtzTdKcRTobZTBcsdLbxyyDdwFsySXASsfRpdHMg4obUAoduGprZvDXTtFsRe0pqdwlP2N+HsMjPgy/9qmgM7k8RPQAsJKXZmLphMsO6+VE9yYc8vZooSvZVqMYGr222/L25/NkUroaho3ayhRSUjBIWiW47jK4REUEBkjoYkNZPvmbajQQRUZ5jk7sDft3N5iWeoCobGJl8Ngugh0khunKZBHIMLdMNkHBrdyiFgJWlidlQ8xNhkwsriRGMNYBCpWs2zfgA7bOLaOPU7FeLWSfFQPEUDloakkWRvez7FIrzAAsdKLY88gyc/gZ+UCDCnwg8f4N6X94lqA657x9ybJRQ8o5TYMLUsKWL6kJmASuE6ouWNVArFce++adRKTVyrvwt8mGmDJl9D2eKnDo+5vu18b154N69fL+CmTJOH0bpKGCqsKaGx4XaiD4r1LD6wIAONApgQxdhEItvT6yjmcZQmPAXYaNWqi0rEZMOxkiX8gzplgrhrPX/3OHFnw4wI1FvcNu1c27tuJ6qt0sGDUttRIZFKs1IVQ7+IPVqMAeh3rPgsHM01gSS0Vr6MqVadGCPOYaccgpvvwH9fcsOhI2bdirdx71VC5Gz2omO5zapt4z5nrn662uv766yUre680g0kg0BScGgB8g8FusgwcrFQc7qkqCPgr4MjM1GQ+9GM1FUV4PBRsTxBE57QHRJoLRqjBYJoooKa+MQbzadGKVdLn3PPkhuuul34XXyTx3TtJEJjTKMwhpi8LMZ+YKA+JQmUk5lc55hKNEskWRmNe1iDt718GYTxTzajqoldPJMBMIdJpFMwnYlOQA5+oMjBmMyY9LqefeeZRIM+5UXSu3ebcMTdcTluSfwrk8HhPAh3HVXMrL9dP0RdUV7uwQmflS8/L2lkve8CQuVOvTxvVi3b1e3kBDq9IajEABC0MLDRvY2POcOw6IxumYaEGVRsTp4BNJejKMri5FsNvohjfCQK4mDCQWikTG1DYmEd/jMUpWV8eyKGDK75z9xMKyvPyT7/G7qmlosd153E3xss58dVns3wXN1vG0iWyCECnKBvN9DzHVf/5fK310d6OPzoFxLDOwDvog7mShAZ0yoOHC74LrazOxwQuBhDSgJXBYfGEh2Qz/FZU4LcHwNxnqJfVD91RqSbunGuxiPMp8ewQf9rp6N/TUrXTYNk1tVnqWLDIVGNxrUJvnhJUk+Ru3iQ5m/6SokMADdj1MvBxB6/Gi87LVozyICtl4IXF+JJ3PpaG3bo7h9n6DLyA58Evk9VyfbL9fA0OVK+rm28SSYmWph3aSyI8NkpxvGXYAVMcWQiX253wGYnCMZwFkJkA1uAg2I1lK5dLISpD0nt2lpgkiG8p8MQCSwYjEkzFgQ1bpG1EgkyeAI0OxMimj465Q+Yx+gqwJvjR5+LGHPJeJNDhZ7Dq6mnY7ycAEDZOT6TPmtq9whBIbUgOHMzFLrYaFU/QJdi71kCkSCJwDi379JDkVi3k4O69qPZBSgBzruUp8FVBMOAGg+fIL7IrDHAEKwR3B+G7RKYnHME6Z+ceNOXdIi0QtNujEz0D5U5Y+q/+awPev5c0aN0S41usdCt5AEgparyhc4JYlxogMhJMV/F9CYCoCeJ7kwml30z+gYOy/sefpVVaY+ncoZNKUezcs0tWAmikQJfU6bxz8TpUlmGTo7Q8AAmF0GTs/+NPue2Kq+WW2247Koj5YgTNtJbbJoL3H8EwWalnZ0yXnzauB9twkUSA6SKzwLnAdYPggiZ2TGVRYF2BeyIBJoEJSK/xGmdBaMxJT78dmjYehCg8C+sZAVIc0k95e/ZJeOYR+QweNbzGc/F94lOPw5DwDDmCgE4TwFAYWdaihwdTTjSDrAaDx90kryENAxugIpAl1/ToUX8js8BrCTuFI+jLxmNrhrYJ25aslN7prWTG9KcU03Ss/mV6Pdm+fYfcd9/dEp8EBqlJMvQ2KOcOiZA4pDF5P9dUQNSOQoIQbH780HeE3jmVpajwg4YnGOL3ILQmqfED6yJM+zK9CTPFYpTgQ58VACHy9yh9//yLeZKI85iIjui//LVG0k87FeNql5bjQ1gi7wcAEwWGiAsawR6ZqwaNUlTlWhXOM4zVawA6dQRAsBIpAEivxLxuCM1aKF7z+ydz5f477pb7hg937Xdobj7cqvjcNpZqbbdZHM0C+VqX/tuPnwQ6jhE+XurKAxBwc26FAd6vqCYiA6LSF7YewwkivMg6/FKvz6j/cIISiyWAiR8WEL5dUqv20uScvpLUsbNEYXEL4a4btHQAK7nwhFosGlVYeCuxAyrEgntwzZ+y58fvJQ++NQQmZEN0hZIbK+HzMQTdEACdIT/8qky5uDCcSMWGmYag4RrZoC1fz5PfOEZ2YCGzoc5VaYdsQGEPkNNPhwssg0pSm/ZywUuzJK5p06ME0uZx6cBvBVDr3czUFp9bAkfQzwaeh1Jj6CAIDuwUmiLDOPr83b4sXiDQ/hvLQbkwRjVqKm2hG0rAtYmA+C8IO3nu6vWum2kNxd5oChjXtAK7rzIwB4UZe+QgwELG4oXwrdmrPo1l9xbAslNaAIVcpE69d6T0uv9B19Shk6nRC7PzWpnjomccF6v98D255c7bJA0NANPatZVAsDX7YA3PRbYcC+HeFWukOxb+kSNHSsO0RsqmnmzGzh075MWXX5Q1mbuk64ALlL0BAzgHLhzBaif0Ia3DEqDRecyTujKbelrXh8yhda46qDrZGj2fTObKDMzmufC1M2fOlKefmiY9u58C5glzH7t8VuVUl9dI7qF8KSuqkc2bNqv+V7w3VAd5+1882JumfbpLENJOTD2E4DmNmjVTQIT3I8G2Kumm8RyACMee7NchBOYQiD0JcnLWbpRbh14nF6IvWQLAEy9nLkDMH7//Li++9grcx8+R1j27KQBDs0YKjPlFJkfdH5iz7DBNdslqxFtrpZuYPsQYL33vE7nt2utlAFI49Csi+KIvzZ9I0z3/yssS0aKptEbHa6aACKApfKYvz8GNWyVs/xH55PPPvJgKfrbz/tFj6kx5mikJr/sc43Dzjai2igmTHgP6q3J9jplK6SGosuKHPkulGDOKboHvIdwuUSaBtHPIBxBjJRnZHLKfbJlDBi3QTilv+3GR3IMxveGGm9Q82QsX7suvuVKa9T8D50KmAlWAgfiH1A0rApUYnC7J+CxWXqXhGnLuslKtDPO6GKl0VmWFsZs3WKZC+CrlYU2IQ1+srF17xB9gePrESdLztN6u1Vf6XuK6RFD66quvyLxvvpCmzVKkNgxzDo+FBSMFif1YOK5bXCTYxlL0jKNAGuMRgOPKQZ+rYPhU0SvID2L1arCf4g9jywqk+mioCEdkLkRHsvJl74F8+e7b7xT4+HnBAhn28BjpdcMQgMl8ADewUtjY1mAclK6Jhp7Q09HAMx+MYEuIwrlpKcUYR6D6qwbNeYuRIktKaQIGN1pywfjFsFko9HYrv/5eerSCm/njT6IEvYGae+YayvN2Y/DN9dXasHm3bdHzSQPDf4rVOQl09JWwv5siM183Oy9W5tp1Mv+O66UMIEMBCjtA6Q25uiG4kNj/zPSUZzHBD54O3XgP5lv9IMprcsY50hZOrEkdOkoUxJG627l5qPw4g7BQfyKKL4Qwbu9vi2XDGy+D5Tli6yrqj0WnTHQ018elVCb2G7KqptWAy+WC515UlVO6LYT+fDcaWy8AnoWTIm0E+tVvzJSlM1BxhcVHjRFvBgNhmSyTOWZWAIQQGUGm5QUXy9lTpqG6IFEBH21Vrm9GX6kPx6VVv+78+Uf5aTg6oDPVZwNTteDbTzavn+cmtX9QuJPtZwAAIABJREFUYAgLTgJ20z0mTJHopunKiKyWqSkGKvt5usJFlQMj4Kh/WAApfMTmTn1VYAEqxg6dTUO3fTVXDiz/w1OGzfEldd6wYxe5eOZszIEUTxsFp9utc466nfNR18ZmgfbBWfXOYXdL2/5noVFqkmRDN8HxZvDZs2q9tAyNlldfex1BKfGot92JnezYcQ9LhpRLq9N7KpYkAOmgCCzeu5ACaBN+NKNjXieeo+nLwQ84Fpt6rGtsAeIaiJHfkOf+9bR07tEJegTMPwghwgFAi9BLqGl8Exl40SBZuOhndIj+XrJRBRXB5rIYC5XOgA6sAVJyXS+/GBQ/bBCwm47HeQcjHck0hzb4I+gh2ONnxqFXUzbSL+xQvXvRErlpwGC5Z8Rwr1S3Hrg3cWxz0Mi3+1WXwRCuUvZDDN0YwJ0ASoMaPpe6HCs9hvJ0zCnV/gOPb/rmJ7kInaofHjde+Z84vxb+tEAemviI9Lz2CgQ8pkogFocGqRybobIcVNf8vU1mvToTKaJGniCmr4F+L7eUoXldzPue78/jWLF8hUx+arqEtm0pjTu0hXdMOO4JlNuDPaHeLwPzaM/qDeLH8+BeEK9J6dheGndsp9IrJSiL55zj5oG3BtM93CREADxyHv710VxZ/MtiiQObqFJTEPOOGTtG/kb6p8Vp3dS51eJa10CLRfab9x4FuCwnJzOXuX4b+tcdgH6KGhm09sCxpXZoI9Ho1UawE4INBnU8AdDp5B0+In9/u1AexAbm3hGWMFcDdCebqKuthlx1teRU5kvL5rAEqEQDUcz/4CCAljIAYqSgdsGnixpDBRqQzm6H1hBdWiSDraHnGiwKkOKqg71BeFSSBMLZmACmpLpUjeHKtdulb79BMgJzil8ZAHnX3XqzpJ55qkQ3TFaiblbnBWBRIetPuYAfxGfkxvPQYyxn9x44RGej8ooNnVFqHknWKU0atULTT6RNswuz4RSNMn5Ww23aKoWwYpj6yBQ5+9xzPdVX5jwzWT7n/Dte6lM//yTQ8bVC/48fd9L/GqVqjQEXgzLQzt/dcZNyPA7QBng6GOK72qfirj1KJqPRiRHorfdlmSkqORDYutw1TNJ69ERQR+UL3wtvxiBqImUPgKJWxUbQfMwCAHw+BI+4wZbNeFz2LvnV7opuMwX6+IxxVWAMr+WCT8+atpcPkdNQ4cR0mToG/t34LOeuWtOTOnCZQen3KRNlzXtvKYGkOg9jnNTC6qF1jDSaNXwqRUUh7qn3jJBTh9+v8vYerxvjeNRwO37XIMgMqGS3fp86Sf7++B01VrrqzExVmX439mW0xgBPokdSDEwVe017Dt2R2yAthQWJn2t/vgZgXBz5swY6SkNlP0edM/5ZfYmswSgBIGV/rR1ffylZG9aqoJqKdFjHm26XhObNvHQ5JhVs7qbM28Qt7eMECprRufmu2ySpd2eJg+YmGzvN6Nh4tUhmokvyiBtuk2shMuXOWDc75LjyH51gZ898Q6a9+aq0v+gcNT5spBgKyn8fqq46xjWUKRMmqtQVA4apDdG7O2t++27caaYhna8xz1fvNGfNmimzP/lQ+gweIFko2Wbzxzq4yJbl5ktYXbA8MOZB6B6iZMOGv+SHH+bLokWL1OxWmiScYzhTXmf0kMTW6arihWkOer/wWrJaiOkUAhA2WmVpNNNK2bh2THm0CI2UaRBz8ny1vsOz+bF3uldcOliCOrSUWAi088HapAJ0MAWmgTDZBgIdinQVyLFTZhQbr/voC1kAMJOAdUFXsem1iYCDwtSHx4+XzbmHpc1ZfdRzQsKt4yvCv9LNO+Xhe4ZJ3/PP91RgOcdXXyPn/HFeI/5OcEI90bSpU2Xh5g3SuFd35TjMtHsCGAEoY2TBG+9KKvo4XTF4sDRv3ly9ZgPSeB9+9qmEoPlk10suUKDxAKrdqJfjWNPIj2sF03i7Vq6W6Jwief+DD710Xt9+/bWMfXKynHrNIMnavkvKkRpOaJxMJ0ewQTVIecUrvdiepWslPb6BXH3ZlZIG0Tmvy/I/V8hX87+TajBQqe1bA3z5oYdblNJBMUW4+ssfpXezdjIN1VexYNzMMdJrDOc/79+Nf/8tox64X6LT4EzdMAHzAgCYOrewGFn/50Z4JeXJoEGD5NRTe6mxOgBfqq+/nAu/oy0y+NwuqPwCG0NmEWAnIAAtLfxDwHSzmqpYsjA/5i/bKl8gbdUQKU6mZ5lWns404fo/pecVg9Q5lmAN4ppNnY4yHaQD+IEsyUK5/Gldu8vgSwYCJMai1LxEFvy8QH78ZaEkApQmYl0pQT+4OBx3ExgrliG1/u17n8nIu0fKiFEjvKrKzLXVHA83l2y9Fvtaj04CHXNk/sGfnWJkZxCtAa1K/5X178xS6QamrTQf4JWish/1pD/Mc7KBDsEF2ROKWDvedId0uu4mNGjDDYsvBbhsB2CTEjRp46N28zrtYQOeUtwsS5+eJluhR7GQl/fAakdmRlxSxmFw0ew59lFpjZLUEKQxnKkE5yR20tk6cBGd8dzKkapZhGq07WBRVEmyrkpyub4m41XPjGAXhuDS76l/SbvLr7LE2PaXee5uY+IFfOzjoebpi6sHy5HNf9dT9vZ1Umksz5V0jpNl7U9zrxZDb5Buox+GNipbuarq4GABEMurhIugBjn6cefxqk+wj0vf/GUQ0TINycsYQWrftvN3A5Bm8HHqLMz54suynwundkauaQYPHdjEk5mg4+wR+HHEFFbKK8+9IK1atTrKGl5Xm/wCKv3RZ2ZIcIuGoP4bWu7d2D1mrIaPTlyaPP7oYxAje/e6MueM27XkYybT4Iuxci64lo/OG/LlHwvl+odGyS4Idtf8+quEobz4SEaW7Ni2R7EZAwYMkMGDL1Vl26tWrZJ58+bJpk0bQfnD2A9zNLpNujQHQ0U3We7EqR0hECLAYaBW4lrMo2QEzhK8Rw70KKvnfSfX971Axk145CjRNc+Hr+P8H3nfMNlWVSJtzzhNDkHgTYDD82CfLVVmzaaMmFMqvYIAxvQTf8+HELxi0w6ZM+cTe9ocXdnCSTN37hfy2HPPwHPqNKX5SQOgogYpF5U7GUug07n0SrlqyBBPY1LzfnZeF2dKy5mu4u+sLLv1phslqF1LaXdmHzmIVCjHiZqY39//WDrDaXsUqoVatGzhuaEImrdu2iT3jRwujc87XZp07ST7oIvKRqDlMTdFqonHUgB2cfN3P8n9t9wlV119lQdwcD6z1cSV11wtDU9D122wbQVgx8JR8YVEnZRVobII903+vkw5vUNXeXTiRJXm0/cYgdWvi3+VZ154VvaW5klC66ZKRG6VwIvsY5oPFXpPT35CtfxQLRYMTSCPTZXUg519Ho1Av0GlbYt26ZIUAxYN7Ap1kvszjkgO0k4TH50kvXv3ViaB+isTmqQZ06fJ5g0rpe8ZHVWBRh1bgKAsnFYEIKIgKC6SDVt2SX5ttHwOUEiApjViv/z8s4ycMFYuHH2fanzKNZ0aL4qQY+CNU4rKwV2/Lper+w+Qu+65R4nr9RfNL6lxmvne2+KHsvx4aHgCAfSaQxYRhfVtwZdfS5sWbeTxx6ehTD7Va/13WbKPSj+7eXg555XWE7q933/zsZOpK5fR9UWh82bZg3z7/Ltu9GgpvBA/Y5drsDzay4YXnP4RMamNpPf4SdK87/mKblVdqbnY22ZwziBmHq65o3fSilpAXAkk/9uUR1EV9oWHVVDHTN2NtdIpDUJat55y+qNTJBktFsg0uDXyPJZA0WsYmd9FID2Ckt2fHxwBWvRvyxqfjJEhPVZpO5I6CqAZ7sL6OVgAmHsf+M4nkt7ndOWno1s/OBkcK0BarJRepE32QwUcLAYf9zsT+hxWKlhwyrvM2zoGWyxjUHMYD/p+oG9SzyeelqROXWDaBcoYgcgEOCbI0aDHFeCoYXfC4nqtih5LzkNFeuGQ3NKFzt2RKfhzloCawEjPG6u8/EYpjEU/nugIMBTBaleek7Ff4ktr5OVnLaCjBb/6vtCL/+KfF8qUF56T2oaxSH2h8ghzNgoeNBkwDGwTFu9hdHxZx5vz18ka6DEwKXF9rzmrzXTq6k04I3+5dKFc9+BwObhlpyyf/61E1cL7BvqUjdsPYseLKiUIPtu2bSPXXnud9EBF1G5U+SxevFi++vILyUMgSEf7glbwgmHgC8D8oxkig6Mi4mzdF31uOBYEL9SdLJ0zT4ae208FVatvVb32iOdOzxi+18MPjpHN2EX3vvQS2YtqRLops1ImHo1GKdQloKIrcBzYIvr1xCJdEwPGJwtmcVU4n9mz37bcqZXRnLfGiQF27rwv5ImXXpC2KMFm37GmLZsrMW4u0msZv6+Qa/tfLEOvu87LQNCZQnT6iLmtP5ZJYKD89usiefmtN6VZX6Q+EThZXUXn561/rpKslWvkuSenSbtTTmEhqGKt+aUD3VfzvpTHMXcan3eGxPK1COZluD+bpKcrIfBmVEZum/uDYt1YfWTOB6avJjz6iCzdtE4aNk2TCqR0IuGFUwXwEQxwdQgl6sH5pRDxzlU2AOZ6rj//XYzllBeelsSOrRS45/mwupUp9t1ggoZde5OMuH+Uh0ky1z6eP1m0yy+7XEoDqqRT5w5YD4oBgMsBHIJkwfe/ywQI8YcAVPLLNKHl+7DL+aDBg6Rd6zR4ODVS4CgUZpy1GIMQ+CBVALz9tHyDXDH0FrkdncW1mJ+vzYCG7g6In6M6tpUopN9YBMBWFizJ55K2c+mfckpMA3l15izVo06zf3rs+fvUSZPkQ9wbLcDCBXJig3GNwHmXwIzx8La9qL6aJueeh56C6jqTnbbWKl9l5c61ySsW2L849Xhuz/lvPnYS6DhG15cgkoGpPD9Xvr7pWgTwjQAi9F8xejapoGl9mSHMk6Wyf1ApJtsbJaV9Bzn7yeeQsjpFBTOmr5SY1ZGGMQ/RF4ti7sD0z0wVqWaMqMT49vab5BBaHeg0izoce0HufNs90uWW2+E6jEoVMkmaGVLH6t293KS1fVHcLI2k50rGkt/llweGKWBRHwC8QZ9K6RBeqDwfRc9W2TXPgfqJMBjlDXj7I0lq117tpE09lB4Xk3LXPzsBDx/P37tXPhvUz9JCeVot2EwXP5NjYh+H52ragIQLcWx6c+k7821Q3dgl4dh4LCaL4wQ3zuNSc8O+tm4/8zEne+e8+Z2AxQmYnH/Xn+MEDKq8nM7It90itagWiYCfBhkvshps1Fm0eZeMAst4+RWXq8oj5fRrHx93tAzy789+Rx554SlpeS66StPqnjb/SIEd2rhdWgXHKB+dpulNPYvtibAz+nj1Z7mxdW6gTRsGfvDdPOl323WyZ93fUgOn4xjoN3Zt2yWb/soAA4vNBa4jXx+Ha9i7dx+5EULaOACNjUipfPXD93LQr0o69ztbLfDBKhUCwzns1FlsQK+ecgASnqdqmIk5VFhSKNuRuuqa3FgeRTk9DeP4/poF0AwAx2tA//7S4Kxe0uiU9tCmoCcRAkgFUmu871VVI+cGRblkEfD51ABRLMrNyrzJMwDIflPpFQ2u9RjxO5mUJ2dMk/UHMqRL/34Q7e5STStjWAmIhMi2HxfKiJtvl/P69fOwFOZYuwUZ5/2tP0+nraY+9pjMx5qSCoNGVlI1Q3oqDoz0x9OeloGwRKCI3eqibm0+9HXTAfS8c86WylZp0gybK5acF9luyvQ22vr7MmlQXodKulmum66ffvpRhqFRcHqnVhKEFFESAnU5pEvBsDPIPpwnPZp3gPnfk4oRpveQ/nweC0EKnZzHTZooxTHB0At1QP+ow5KHFB8dlQ/Dt6Z7WrpMnjRFksCsmsJczWauXbNGHn5kHNpQNJbGjdHnTYnxayF6z0Xl3iF55+33JBUspwk0OH7686dPn47r+bP06tMZouVgiJeRqkQPrkCsPxXwwfly0Sr5+utv8florWJ/8Z5lFduzzz8nXy39VfoMvQqO0tBfAWCyhUgx/HX2L1sjd105VK7HBoaPKzd6ez3X5fA/o1T/saenS11CjMQ3TEHKMAHvkwtGu0Y2Lloq91xzo4wGKPdVxXmsGGDet86f+fvJ1JXbnfYPPGaibx10FFOA1M56UH5Lpk1W+VwrDWPzNx40Yx+wTQqYaSulnVE7c0t3QqFpv3+9IvGgat3SZeapuwVHvZg6J5On8sY+Ou6kuNjk7d0jXw65VEpyjyjtC8tro1GuftbjT0mT0/qoNIyZItFByW1H5zbR9SKmAApFgVi4t2KXvGj8A9apcKGzGQp1zHzI+K4f0+fN9yGLktq5u/R97mWJbYwUCHYeWtiij8EcB71wm4yOWYmUtfFvmXfNYI9w2DWtyJuRC5L3BVA7zoTmLaT/Wx+inBXl/XyeDXQ0oDH9lvQ1M/1j3KazE6C6gUdft4GTBTGvgQmYzDHVjzN1xe7lN6LqKgTUezACjdqpIiCHoXKGwbsVKkFmo4cPHWt1Tx9rsQxB+mAfxMgPytpDGdK8dw81x1RvN+hCDkMP0gkancnjrfJyLeo09VXOYzLHwXleeix9gTzd64oanZdmviZn3XGDFKCVBYWtTZG+ycax/vHF96qpp8VWUoBMUXsA9A8N4bg7VHp17yHvfT1XChMjFZNSQX0P7xM288C85TmHQryaiTGLjkL1I+8pVR2Ffla4dzbOXyijbr5Dbrz1ZsWY6GMlKKSwds6cOfLq229Jmwv7otIGLtP4bKYtuJuPBeiKhh8Og/IuVLSRuUyHhoJFCMkAjtw0fDBhqlyK9NgYBCAGsPrxQ3DH569dvUZuuet2uQjdwytwHXds2ar0Gg2RroP1rmQu+1NmvvKapAN4agNHE3g6S6nNOWfeY/p51IvccfstsgPmf13OO1f5d8UCmAXDpG7ejOfkUejqrkFzUX45Nx0cE2q8hg65WkrSEgE02isDQW5sWB5PkLl3we/y6P1j5NJLL/UKuDwW7QF11bVDJDwZ7SAARqOgpyr3hxkgKu1KUF1319Bb5cabb/ZK0+l7i/cku6RPhF7vj92bpTf0LihIkv0Q78JaGuljdLnfukOmPDhOaZp0qornokrqAR6mAUQtWPqbdCQrAuBUA6ExGbmdf2+VRIj4p4PNolZIz3mnj9S3334rz0ICcV7f3hKD8nuUQ0l5HcTSAL9bdx2QKv8I+fBDS5tkrmc8hl8X/YLqq4fkwpH3oAKwQM3BSFQLcp4X/r1dRt9+t5zbt6+6ZzUDyHPXmq9NGzfKxMenSCZYv8boC6dMHKH3YTXi3o0w+4SuiXozblJ0bDLXJbf70dcapdZ1Q4d3MnV1rJH6H/7NV9qqYF+GzLtqICaE1XG3hhfPit/1X0bk9Ahd7WDOJ3GyUzSY0v4UlEvPVCCHqSoPE+SSzjAXCjeDOBOImIFOTzA7S2UtDmvXyIpnpktp1mFpdHZfxeLEYAfKL0WPUmdi9E/S7+cMPObkPWrXhw9UYj0EmVUzX5GlTz2p+smoNIwaC56tboNpDZ1mdepHwhorpvbaQldw5sTJKIeE+RduXBPouB2XBh3mDlIfY9bff8m8oZeqRVl/1bNwRzfT1K0z+F5c7GLgOdHvxVmS3BGN/7DgKadgNQe8y+8tZqe+qsg5fX0FbOf5mFoV53uY5+eseHACUTcwxfnAXlc33XGrhHVIlxhUcTBtxSoO9noqgVvrzl+WSa9myNnPmCENwPbpr11I90x4aKxszDogrc7rbWmbrBykBGNnuXPlWukQnYIKDmh0ADRMH50TvZWPmlcuLzTHi4v4m/DRmf7UU5LSq7M0atMCaRP0HcI58bbatfYvWTT7Q8sCwE7bchFnk8kIaCgSsLNNRRVPXNNGkgtrfD7Otg7W2KLMG3odimzZrJIpWIKRPDjsMujRJDEbjUxz4B903+13ys233uJ1tNTWPAftTGxXaDKgo+AmIwUaCLoFsxqPQIUl5ixb37Nrl0olRyN90xDakliIw+m7k4lU11fPvyw3XneD3D/6fq/3X4z0zsTHJqLZa1fp2u88BPpCycjIUK7JsegLVQivGNlzAO69n3rYCeec8NwPdlDydc9rIe5C6LOeRsl8QrdTJBXpzcMQ2nIta9CkkSwE6zl8yPVoi3C7VwWavqa6CeiFF1wgsWd2lxadO8oRpNdocEibgiKUexeu2CCLFi5WJoFmdaUGXTRTnPr4VPkSdhrJYD3QxUT8o1GGD2Fx5rZMuezCy2Q4WhpYaVf6WtU7l/P+3IfxeQQmh7nRwdIdZfEZ23YoMT77SNFV+e/5C2TENdfJKABLcyPKz+cm4dJBg6U0wl869O6lXlNLY1D8LRM2AyFgRF958WVVQm9utPQY87H33ntXPvv0I7ngnFMluKwKCAqpcFRFFaM07YdflmMO3SXXoymrE5RyPu7L2CcjIIIObtVMIlMbqKamyWCP8qD/OYh7b8SNt8rFECHrcbZiiAV0eO4rYUcwacaTUgVdUUqrlipdWoWyc97CtfACyESV3IzxE6XfhRcepc/jezllEmY80D+7xSL+7STQOdEV8L/8PGf5LicGg9qKF56RtW+8clSVlXfAtNsEGIBHayyYkuICFte4qfR9+kVUVvWwPGGsSHnUWbktRHryOAObOdHcgp7eTfBvFLzyfEKwkHL37tY6wS1Im4DKTSPhFKIxGPw2+RFZ/+G7ShxIJ1h1lsbYqEWLTI+TEcPv7BVGUNj7gbHSA7tD9VICFDJG1PrYC7JJSZsgx2TB9OCS0fly6GWq35aVprKOR4++mXpUP+u/E9hikeCOret9o6X7nfeglB/5ePzu68t5/dyuix5HvUt16iNOdKo7gZM1pbznlHPu8HiUYSAYiIBWKahagXEYWB2W5JK9YsqzFGDnAKo3gosqpANSh40aN5HdO3fIxm1bpDY+GinXVsooj4CUc5sBJRKP70bVVVsAnclsAZFuGQbyeEyjMb346nM0d75O/YnTbEz/brKvvD5vIc0xDembWLgdNzuzlzRr0Vy5O7PxJZmRnX9ukFVffg9fkRwAegiB7QqyWFjoN+7VFRos7MARrKmd4bWmq3JSUrJKWxVig5MCMJQDcFOAdEEK2FB6lPBn1XoALERBJqpd1m1EuiwIuo3OSrz+F3qqZSN4tzz3LNU5vRDMBdsPNIObMd+T3bv5mWQzCORpmMf3CkBgqioqk1IY4tGvpxkMAfcjOG9a9KvQ6adr1254PFz+2rBBDiPt0OrsM6Rt754KkLMarAhgh0GyCBVcGX+skEtOP1OGjRjpSWfoe1zPC6dHCsfWFLJrgKHZmHEPPigrD+2T7gMvlpycI8ragvOAlVN70GcsAV3Dn0LlkunJojaItp/Wli1b5CakTRtfcjZAXxOJgf/SXpgrspnnQbQQ6ZnaVF548aWj0lbmvfIrtFVksZp36ghDvDopq0UjTTS43P/3LmmZ1kY+/ewTVTFIYGK1abE6rdPf50dYDEz51zPS+vwzJRg6qH34bIJZNmyNgDB/+5Ll0ikpTaY8Ngki9jQ1h63PDpCly5bKZDAi0W2aSTKYtzo4G3O9qsR8YiuUdd/+IO+8Pkt69OzpYXT02qTH7/LLr0DTz1ppi3LzOhj5kS0MhDtzBubXkj/+ku+//xH6LPjrGPey1sox3fnSyy/JRz99J6deOViBb84Rumlv+nmxXNL9NJn29NPQfZV7pZz5ejI8s157TV547x1U552GgocQiJpLVOuSgEC06kgIV5Vnt15yBdJXD3mJ681jca4n+ro4m2I717CTqasTXdX/y89zVrgomhNpn7lXDFA9rRj8dArGTH14grYdH/VhqnCDG5xuw2Hwd+g1doJ0xE6B5lgqheQI2ObpmcFK74b0ZNO/mwuUfq35NycAMSeaW6rqeEFXH69zx+05Pi4GWFiK4aD7y9jRqAD4RVm5KzGiA+R4wAAOvL6ju8WscLGnCPSiF16XNgMHeYKlme937jr1MZhWAOa4ZW/ZLF/ZqSv9eQpA2dfMxFv1P1tNOvkcajNSO3eTi9/8AEAxQr1KNzx128GYYEd9jn2tnQZ45o5Rv8bcCfraXetr75xD5nuY6TTz2mn6/wakH8LB6FCjw/loicUADhC02GyQYkdqRKrQLDEAyDAA1zIIwmXsXxFAIF62GQku9KwUCoemJAuamDZRKdDoWC0gtCbDHIPj3cbmsbqdvznX1WaEQAfC2FkfvgcxZxnYmS7QnMVJE+hGDh08gJYNqCJksAKIq4UGoghd18nuNIJbMSvGKKTOB8DJRdBmF2yCBRrKJUF7UoDNQT70D9GowMqnJgKdpdnhnf2+WI3HIM9UCEFfHEqS8w8chg0/2AEA6uDYKKEZYUJKKkBHAd7balrJnmIcL35Ri0NWh+m/ndu3KU0JdTWl2QXwdkGbBASnOOzc68IDkY4ql7K8Qriho+oPYx6H1Ft4UjzaVTRSgItmg3QIJlDlHNqydKUUr9+k3HWZfuPccJsTx7oeevw1s5IPr5e777xT8gFq+14LnQjN6wDI2GOJQI7i63VffScjbr1N7h02TL21thhQMgCM2Q1Ia+2sLpHmZ/WExw26nCN9x1RLDqoZ//4CaZ0pT8oFYHzMNcp532RCTH/dDdeLXyTSrZi3FRVwC0YWyL8afjTZJdCp3CbDh9+n0k1MU+pAvxeMyITxD8uesnxpdGonaIMK1bgU4zoz4EdBwFyH9TlrDVI8w0fLBWi9oMv9eZ0mgz1bvPpPaQbheijASUVROYu7YRqKyi3odLYu/FWS0XX81VdelQZwgCZI0l8EXfR7mvnG63ImDCr9IZYPAzGcEgPAi3TeMgDliMgGmMtvefn4mPcA589vALwjUH3V965bcJ+Wq/uU3kU5qGCr2rlPJiFt3P/C/iqNynNjHAiBjm41Kg0fHDdOckFypYON4/3r78eGsKDEcN1CcG12r90gyWFRMu2J6bAFaOY5fud6psF/oA9kAAAgAElEQVSbr3XYuS79U2wOx/6kGNlxh2uGQ+9gKKz988VnZfXMl61OtyrtodMc9eFQB0vr7ewkjS2q1bRp+yE3yDmPTbX6HjGo2AI9526K76CDn7nr1yDHLWC4sTzO53lNSBwDj9nX+5vDYqJ1a6Gsr/hwPo9CJAaNbLQ7WIiKqyPY/VPTxHGzxsiZIqofMU95t51a4LMHvvuJpKHJHq+Dsou2mQoekwlizHNzPq4X9iJ4q3w+uD+ccuE8an+ZWqF68GMepX18NpPEz+8AWv4clJ8SDDB9ZQq2TVr3WLscX2DUZNP0OZo5eifAdJsL+jFzvjivE9/zEALFDXfcIn7NG8AVGR4oDAYUxMP+mcLkGvo7oVJJjzmHnpYKVqNVpLhsLozBIRXBnLM+G4E2469N0q1hC7upp6XRcYJPE8gcL+fvBnrM66+BzjvvvC1z4JFCQeymlSuk3cB+KN1OAbtRoBo5cj6FYefbAr2nuFlh+oPvk4IGknQkJoVfjrnBgEiQzSAQhlQcgU4x0gNkUHJyspXwNxwW//EAKAwwJSgHJ5tBQJIE4BEIczqWR/P9kgCiyJwGUYcBbRCNFVW1FvugAZwRmDRAeTmbcrLn0wE4JitfHTaFhL/KdpRilyKAx4BtCkWqITAsGO0V4NaMVEMwKnVCmf5ig0+wpgTi/Fx2BY9H2uTgzl2y/vNv5YH7oJcZOkTt8HWZsmPZO+6vHCceL8HS999+I/+a/aakom1GU7TJYNsZiqhDUHEEgZDkQgSedWCf/P3Nj3Juz9PQeuJ2VBe1hM9Slaxft1aeffYZ2Y70YPPz+6CFSAKqjdjmBvcRJljO/kzJ/m2lLFjws2r26fwy1x5ev6eefgrMzYfSASlSdqkvQZVmBeZsQUkFSv/LZPCAQXIbUmipSDtTVP/Hb7/Ja0i55frXSIuze0oWgCQZblbk1SCFxDH1B+CITE5E+mqR3DrgMnngoQfVuas9AL4PvWaIZAVUS/MeXay1Ho+X0yk5HIAL7VKCMT/W/fybJMAI8L5hw6VPnz4KyO7HtX0b/di+/e5r6danq6Q3bgg3ZLTIAMCIDYJGDuvblz8vkWEjR8sVKAIgQCIwMplezbTt33dAxox7SOoaNZDkdq2VuaIVd2olG/qinPWb5Xp0e79qyDWo6kNbDrCP33z5lbzz7ntSDdYrHr3CCDhZkh4SGC6RADZSilYShw5KEObbUjC54x6ZLAMuvtiTfnOTTujrY1ZeHWtzfdyJ9l96wkmg4xhYfZE0TViEG+HzwRdIGZun2cBEB2ytOPFiAhx5EO74mc9P69JdLnx9tqpsIkVNxsL55bZzNVNG+vkm2HADHb4mnRMMOBkjt3SHr2DpDOgetI80AQHhnt9/k4Wj7kHJaFH9DlKBK6uySrM7rmyKTXFHN2wkF816RxJatVFicAZcHTDN9BXPy6yM0ONksiJ8HZtszoELcCl27QoM2E+0WDc+oCtDvFkerehhoGeaIRAtODrfMUx6jxylqngIdDQ1fqz79ERZCl/vcaKv9wUMTEBBMShLVW8G9V/TFJ23EcRZAk363k+VAmOHStE9fgqAsVmgXVXFtBaDGgMsaXDVNQjjz27cUQj+OWA+Nv2xXLqkNJdHoONpjl5pZVj4zVSiE9gcD8iYz9fz0QQ6OiXy3vvvy7xFC6QznF3XwJitCtepx+UD0KCTRn80dyRQFmkElonnVgAjPoI2ghl6uFg731rFzhCkpEJvwv5IFG3z9ZHwmWKgZ7qKr09E6w/qI1TXaHxWBcqLI6Eli0DbgzwEHoKlFKQ92N+pGGJPVndFsc0GNE4UsFKEzHYHBFfJcEBnSTs/OwBzleAxCNeDwKqgkI9Zs4IsUTwcwlkdVA6wUwr2KgKsAtOwDIz09eJdlg9H3M3fL5BL+qLsHX5GLF+3TCqPTpOfSGyxgA4aTSLNM3b0A7J491Y5+8ahymGcwI+pF74z2zlQBM5jyELZ96Zffkeft0MShjWBx16O9wlCCi8ELFQIjjsCjBc7dquWKQA7GWgf0iM1XaZPn+FVpm8GT72B4GN/LFkit99yg5yKUm3ORjY1LQOwLsH75aNrfEFesQRjLKMxNxnYS3AO4Y0bSKtep0JblSAZO3dLVgbSVriG/uhFFYyWDGya2bpHN9mPvmUJcDie/OhEiNqbqmGij82UZ6dLRJumYOoAavE51bgfKPyOBGMfXo2jAFPHDuXZezPlMNzHeR0JBsvYziMqVJq3biJJEPzHs3s6xkW1EMK5FCJFvHDpGpn/w48KeJvpXvMace0lU/Ma2k98/PN8GTTyXsmF+J5i9kPYzEUj5VV2JE92r1gt1Ux9snqQTtm4m8PR6iId5fAhmK/UcHEeE5iH1gVII2iEwvIyJSUsCOXnv8tZF1wqDyJFaVZuOTe6zlhjxivzufoeP5m6OpG77X/wHGfV1SZ0Q1488SG141CLq46Jxncl+GUIJxDyhFDccQT72AGEomtynwmTpP0VV1k7P6PkT5+S207djSp0e96xhuVEkLZZUm8K/0yQ42QnTHRvAihdWr557udonjnaarXAsanHNl4Aw0sXoxgwDixSEQgOjXufKX1nPC9R0EYofyGDzVFAxWZ19Jg4g5+mVvlcLvK8FnS0PrBiiZbfqLdU/a7UINql7zZy5bEpDZH9Oepn+3PJ5JCh6wMdinWh7blhHKMvpuJEgIgb6HQDCOZ8cDJAzs/RY8bvLFPOQLk9PTnKGkZKOJpfhmPxrUYFC9Oq5fAqIRiPRqNAerGUowdPGR4rBQDgc1TqBuCIIL4cwZbaA44xBbz7YbrWMbGxPISdaTpSR1yA/xOg4zZ+buekgc7HH38kXwDo9L6knwTt2Sor/1gnOWCnGkNknIYUFRmPJLR14HnxNYch3uQxUwjMc+GCng/ww79VoYqGWg32pcqBeL8cAtNYjAMrsjKhleF7xAK4kPniMfG1BbBRoPlnEjqkHwZbppp/YjetOnbjMxLQTJF1XEfAZnAi8TM5dwhwCBbUxkm9F9gflSK3XKiLAXQK4A1TjHYHwfjcdtD/xKQgJaJ8fQIkC8fH1GE0jq0Y2pxtf66BK/BKGXTBhTL6gTFWOpKf9B+CHL5Wbfxwjkeys9GG4mGpbJqsythpUBcAJofHzEakBYV5Si9CEMx/TPeT/SuAmzzXvmBU5fmD9SgCsOC8qIMuJBQpnyh45RDgrf1wrryA8vSzzjrLI+jX65upGdJBlOmr2269SfxKjkhiHEz7sE74I3BjuyXFaKlQhHOvxryOAdMWkRiLjvUAO9ChtYWlR0MIwjeiu/uu9Rukik1IQV5GQFiemN5ImXWyzPvAklUyZfRDcvGggeowxo99WBZvXQffsVPAXCOVSwAHgFkAfUyDxGRJCGETWVgSQGvEUoUsCKsz0KS0FutFgyYpaDvhLynwqworLEG6DcAwEEaV8TFShbKv9Ws2SUJsQzBOrx4l4Hdugrmu//HrbzJ64gTpP/wu1baErA5ZLrptRwKs7cf9nYU2Myynj4E3UykAdQ2ajqr7lO1PVH+xColCf6xIiKAj8dqo8kJpDiPBlehmfiCrSB5D3682cIHXQmZnTHDe13qN0XPNuRE/CXSOFa3/h3/jLkFXFlBw+tV1V0kWOvN6lwdaa4eDvPEET324asHEQtiy38Vy4cszrWCIx8x0kS9WRQcwXxPLyeo4h8g0d3JjinwN6X/yXBNgcAHn7mXFS/+S5c8/pbxIaFGubgD7Q+v3lASDFgLyYsXoM4TFsQNciM8Y+wh2WFGq1FzfRObnmWDHBIb6ZwV2uMjbeqi1b7wma15+Ti2qHqbGODY13vY/fbx6rBTINQ6Un93o9HOk96OTAcZSIeJF2S8/zwBH+mdfIOX/y9//0/fk+ZCZoLj13tEjpTItWqJB1ZOVoDUAykdU92lqUaLA1DA4sZKHCzo7s7M6gyks3hMMbgzIoQjwFCRHYUHN2rZbWsAwcPSwEcrp9nhA5z+5vU3AowPxnDkfy7eLYeHft4/EFucgmJbJ+l1ZshdOz/FoeJnWqa00hFCZjBw9phi0tVi2DMEvEiCNwI1l37TWp5kfwRHZHbYDoFcJx4fppjywgvHxGDM2pgQYOgLQFIKmihEI2KyUItPDlBbbSlQC8CRjfoQjoNB7qxRpBJ26YrqKbBhTYNxd87pwXAuheykAiKCuwh+gKxtdvA8jFRWG1EpTWPhXgOJJhxkf2YvDcFlWZnOY0OtQqeQPPdVtt96K5qIXeeaiqcs51njrcTXvH4vNscrgP/nwA/ls4Y/Sot9ZkgTX67oyzBd8LtmKXIiiq7BBoR6KZnUMsKVgxEIxf9i7qQJNNVmdFASgU4xzK8ScKkMXb+XLhMBbBfF7wfL1Mv/7+Wo+ee47Q8doPsZ1lOm4l196ST549w3pBnF8McTA/lhTgqH7qcXtWITJWhKD9B5SZP5gIblBicCYN4VVRBWOZ+uatVKJzw1BajGvuEACAbp4XmHhURKG+bACXb2vObufPPTwOADWMrkBlVDFiWHSBvqcQxDz834PwnpVBSY0kGkrv0BlN1CH30PUTslfjmAuFOA4w8BgBcCnqSHGJpb3Ev5cilSfH46rtq5clqDaatLEqbhu/b0qvfR9bgI9XTU5FsaJJbHh0rxnd9UEmKCZ5xWA86aerARzjcxjKkAd521u1hFV5EHmjUw0niyJOMYwpO3Kc/IlHGxcItpzVIM1/OytD2T0XffJlXCmpqWB3jiac8NtLjnXYXOz/Z/c6/8XrzmZunKMotbocGHI2viXzL16kEWh2rsiD4hhcLQDmgqMalNvB24VKNloEP4OQPlnPfm0ND/3PEvTYbA5boHZjbHx9ZgGO9ZC79051o010EDBF9NwvL8fl4lAwONCwjYZSx5/TP5G+WR9jyurpNwcP93Q1IvVUaAEKRSAzJ4PjJOut92pFllP93O74kofq3lM5nkpwGKDDv0zL9KRLZtkwa3w97DfxwlmfBH7JpNndlkn7RyZkiadRoyWxnDHrbNL4N0Aoy82wslInQibY05bJyj2MFAEc0aFmvn51AwcANC5H3n+4PaNlRiZjA0XbH/s7sheMV2jRJj2exAAhCBFwYDPYKbaIuA6aTaHqS+Cg32g/NvCR+eBYSOV0y2BjlugdYIVX6DPjQ1y3js8zk8+mSO//PKDnH56dwmhMBV0fHkkyqvBxm5BeXnGVgh9cfwMOCyD193IufDzOhJokJnhmGn32xqAPgrpgwA4OH8pYKZvCQOsYgnV2NDzCdoQtnpAoCH7y/uxGgBFzS+MZTjSWdTHMG1N8GTdu/4K2JAL5HtyPFT1DZqj8vdigJ8AtbDUoPM6BOEYbwJ0dv2uQAqGeiCuQYVgesqRhkiEWPqC8/tBVzFA6Yf0PXIigcIEOGZA0+NsAZ1YGY9+YevzsqT7ZQMsNiwU5wUGpRhAsaAYol4cH4XWoUgBUWydD98uaoai4fNShfMIBZuh2G/c/DkAmvtQ6EEmIgiP52zYKhd27SWPIdXGcXamo/U8d2oaly5dJjffcqN06NhG/LD2hABUBbFlOrQ/hQA9tWC/IgFeQNOg2SsqA8HURaKYIBt6lL0wDvSHdioW3khkPFgiHo7jj0fJOh2bt6L6KhIuy89Me0q2bt4s015+HmkrdP9GGTvnf0w80nC4rsUQiBPUUEPFaxaGjw9EapFjU4X3LADrGY7rw/kSDiYlCkxWAAwsaypxr2GSFOQclA3rt8j8+VbayrynPeuXfSH5N+0d9Sa8o557d7acfcu1Eo90JudaDhhDAk3qe7LBKCmBNQA3087KS0elF2Eki/hUh5jUAA1G65DqrAIDFpaYJFmYy3GQCyz+/As5q10HGTXyfnUNlQGtwzvMec86rTWc9/g/JUg+CXQcqwDTOIq9wYRcDovyNa//yypFNYCOyeR4+kUpcIP4af+R37hYtTz/Yrn49TfUJPNz5Midk9kEGr6EX243gHMyORkPM9jpMl7nIuh8X1+gxhlgzYDOMfPHIlwIz6HlKC3PXLHU6lruESJbr9agwfmz/p35epbgnjH9OWl+yWCVP/c0HbWvgy+A4wQJ9mpvfSYDP4LRbyPvllz0u2LQUGNlXztfoEdtzOzjNo+dV1xJrPEeDGINz7tQ2t92NxaLRE8pvCKAjB2pCVqd18ntb26Mn7m46KDEOWsCO33N9Wfo664/QzM6YyaMk4DWKRIKrQQnMBfFctDqwWBswpBaYYdksja8jtHQn1gLrNVRm4wPTe0o8KVLsAWOymXHn+vkFDgFPzB8FAwDm/oEOr4CsAlsjvccno8WI38KoLPy90UyqN+5qITJk8PQLZRgh10IjVElgEoJgEdZSbkU5xZKKCpNyEqV4HmludkSF50Il9vWEhALPxukoMqyDkkNgAZP9FBmtnTp3FXOh3lcPsZD3ecEQxosq02GKjlQOi8+wcn2up3HsZ6jPkOlcq0Zx10xgaSi/hWAtxr4csyZqmjaBIwVzAF1/yxeI3MOuFUiOsGNDmJ8rtbz8FrwfQgCd8PjZ8oTU6WyUZK0PA32GLhHgwIAXACM1bkA5IYBQNQiPcL0Jls1MJUSBWDB+UTwwoBZXFKgGFqmtrLgXXME/8rBPOyav1jexVrZA8UHen0yLQncNnP8O1uZ3HXv3ZKN5p7JACd1aMcQCSDBTUcOiyPgfxQG9i0qPgmibmgkcZ3KUP3G+UsNYTEYOVaMVaFMPJrmjUgB8twCAZgqcVzb0D7j6UlPoFP7cvl27RJJ79lFadZ4AVRKj6sDiK1yMlZs7VNVJnGoyKsBE5gANjoULGgp3i8AoDAULUUCK5CSBJggmxIaALYL5pXr0Wy0BfpMPfvsc0eV1LvNHQ12Vi5bLnegCWebAedLOkT2nK8sced6ZVX1+UFXBT1XWYkqgokBe0i2lmaXxbA3CAdz1hpsV13eETQYDUEFX6rklWNzA93UDjQarti2TSYjXdepWzdrHcBGgHNMrzfOdcdcr5w2EVpI7eue/m8+fhLoOEZXGdthAldjYn4OIWPuru1eeRUd6NRGi9PIjo7W43ZFEW8A9kYChd1n4hPSFuXRNQQ6tsGc84LqCeFmLuUFJEywZbNJfC9zQePP+nfnd714uIEa5+c4fz9WmsTzvvRpwI19eO1qWTV5ghQd2KtAopWdsgZKZ36czIllJ2g9gZ/NINTrqZekISoWKhBcdOuH46VrzOM2x9nzOMYt8/dfZfWU8dbNqnQRSkWEp1usk25Dcawbrx7wWGBHHRd2POHoBNwGzqSNz79A6SY8ncttIKLf0+0amWDEF6vD1+sgpAOSGaD0tdCshPldfyafo9yNkcN/8JHxEtyuEXaooNUBcsKwEy9Ct29WokQigJKhKcZOnYs6+0QxPVWGBY+BlMCRaUqWMhPM1rB6Bgvhwa07pU1sioy4+14rdYWdr8nonAiQMcfeZG+c10RfV57bZ/BNWb9siQwZeInkFGEhR6lyEdgChHypxLWoReqoEudTy/LtkHCpxm67nKwLmKvAoFBJxe7VLyEaO1dUYyEIFEPYSePELWs3yuALBsh9w4dBD5OtzoXnr0uO9f3ka+79Jwu4CUKsXTJYCoytbhjrBCL6WMzjMueYG2Dmcen3Nt+XgcwULpOxi4WGa/asN2X2V59LWh8YK7LpKVimPLBJ3MQlonKMwuIwWA+wMDUAY8t7n6Xdao2CczHnFhmoarpSs4MOqAyeE1s/7ID3TuXG3fL1V18p/YgJ+o83fjxn6lpefmOmtIEpYzlAaixTqUgllaMSqiY6HMx6IhiwNGxEUUbOdFok0ohAA2VIL9IVuPAI5klJJVKP0ehAjo0W21HACDASTs9b0E7k7FP7yM5dO1XaqiE8jegCTpBPlr4WoI7WIeX4mTYioQA7YQQ3hflgvEJQ0QShP36vAzgKYlUXGngSoEJQpDRM5RXFsuqXJfLCs/+SM84807MxOtZ562IZgrwJKHc/UFcprdCMlmPJXmEUSYdgvJUFBBjCQlQeco7Q/oCAJRf3BrufK71OSCCuA5isCPj2+EG4XBsoZWSmARaXv/e+PABj2cFXXKmE83y+nod67riBHT1/T2p0jjd7/8G/E+zk7d4lnw48X+3WiYTddl9WaLRDnh3B1fM4hzH507qfKoPem4OqFfhXqOda6RQvdkhR2Fa5trlQatDjDNbKh0KVuNcDHJXasel287vezZvfnekdHRiPtUi7sTt64dQsgvoMajWwI9rz03xZPWkc8vGWZsXCOBpK+L6wVkUWSzgh4myULqdOmS4J6AdWw6odGyjosXNjLHyxJZ5j5cKOhbUa77cCHa5zN23w1l7Z18i+hNYY8zX2d6UlwvG5dTn3ZvlEkk87QzoPvx/akFbq9Sbboq8Xz0EHJhOgugEBM51gBiXdJV0vNnpe8DMYoHQA1J9pMjoH4CcyevxDUts4DtctRokTKyG6DaTIlQwNFuyktBTsfiFi5M4VAbAaAUuXKLMHFP03yC5QcFoCcBCKnSydeFvHJgPo3KdSV0xDmoyCngG+wLRzhjiBjjk+3kDnU1m77A8ZeEl/OQDxNMt2S3btkAAcZ20VdvEILLXU3XAjggW7BsEwICZe/GHZH4hUXBUW9irogBPRLDEC92wlKlZy9h+WNYt+Q/uF8+Xe4SPk8OHD6vCscmNLu+IGdI4XqH3db86UHH/X11sDEDN9wPfR9zyPxTmfzLE2x9XJBJqfYTI6fH++JwXGY0ePltVZ+6TTReehNxM+l6XkSI2QIQmCFi8Y6Sf2PAsE+8Py9iCOIbU7KO2vQrl3A2W+qMgPCQjDOob8lVrnsP4tefdTuaRHH7S4eNBrrpibP3OcNXDmY2R1Vq5YKUOvHyppzRsKV9swFIAEo7IrGD5I9NkJQEpQBX6AXMVSloGto0s2bQZQmUUGOToqVlUfFqGreUVWrsQj9RkLoXA2tEebl66TUJRiN+6NkvJQAEHMe7JcNVjnywrBoDClqXQ3/hKM17HpbzTYQaa1uOkF6SV1FGgDUFMPVAHWhKnNYDqUgykr3nMIJoE/eHqZHW/DZgKJt+AI/srHH8gl998H8fEB5afEryB0QyfwIgnIdCmrrJjCUmasFL/j8VKAfNXLTaXSwtFANV6xuuwHmN62hfz01jvSHvfyPffcqyru+Lma1dFzRl8LvQa5zX3zeH1HgP/eX04yOo6xtQJ2nfyFifPH1AlWgFU7fouxsZSzGqxo+FLP5vA5LGNk+qXTLXfI6Q+NV4ZiDLA6P+nWBfZ4QEMDEh3IzMXNLZhpcGMuCCbI0Qukfp5+f7fUjz42/s1E7xrRq0WTYICMDnZEmzF2a2ZMVouKxb/bjTo9QMIct3qRsroUqnlipaSi4urUCZMkGv4XddQ02GkmHWTcmAp9TiaoMMdBHz9Zh9xNG+WPEdD/cBFS17YehGqwqrJS9nV3MlI6OeFpE2GDIbVTU4EQPZCi46TT3SOk7ZVXq15iGgxqgMMAogOTeT2cehZzbugg5wxM5iKj39MMes6ATEaHfZsIdKpSYyQKJb+c98WoOqoFIFCNEMkkgLGhszDTrtSGUHAZhl0qy6NLsaulbocAqQDMCQXkHNt8gIOOKY1lFPxbzNSVG8h3glNf809NDccmwZyzFqPzqSz77Wfp3aen7Mc9V44UVHwVBJoIYhEEaQhEZWAfShCEqIUJQjWOPxb2UniYVOA8K1H5EoFgFobKrAo8NwxBqQyusat+WCCXndNXho8ahR5f+z2pMpMh08uIeYz6Z+d381x8sVUcFz0PzGtu3nN6bmuQ7Px+vGBpgh1zd26yOdoRfCv8fGagjYVfs1RpfVp3pIdgvIixzIH9Bs3yqAcpBTviT1BBs0WsA9SaREDvUg6QU4p0aKPURkrwvhsNR4tK8gFG4FEEBqICwfavOV/LR2+9K127dfHyjXF2vXZ6ynAsVfoKYvARYNx2ZWyXFl3RvwmOvxUA67Us/8Zz6CbcoFFjSUa5//69u1UDT87hCgB7QDTMB2ilcA6VYJtqYMoYQDYHoCUZDTsLoGpePXeBJDbD67u1USk59oOjkJz3Cg0ca2AtoFLjSNvVFHODh8axuKcIZvwUGIY2ByAqECLpkGAwi1hYKN6OB8DevmKtnN6lh0ydCo81rpf4chPwOs+d15vXavnSpTIW7Sx6X38V1pyo+ipRnDsZtKxDhyQLgnWuTelgWAksCwH2WEF4GDqlQjBPMagUDAUbHwvNEUH+wf174AuEqjlcn90LlsmD942U7nB6JjurzS1NoKPnqrkBNkPrP1VtpY/hJNA5CujQK6VGfoQ3we6F8+1UhtVJWy1QdrB2ftd/Iwgieo6BE2rfZ1+C2V0v9X5m6sXxka7CM5PlMXcyejHT4Ia7djMfrxdRHdSdE9BcDM1dvv4M57GZ76ffUy+8OldrpYBswIKf17zygmyY9QpMzLB4kH3yFrZYOgYVuCwA5HVD2GZ07VBx1X3Ugyg9hTCPuz47yLmBBDPgOAOnGYD0Aq52xjjOLR9/KBtefc4Cszx+xzV2GwvruOu16dbh1/fuUoCpfjIowJN6GkDbmHES17KVmhv8p3ffJpPj6xqYAcstIJlsDp9rMkYa4OigqMeRQIeMzphHHha/FskSCxajFosyha1V0LEovyDsCNn/ijt0Nv4jiFHdqKFFoJiR7sisqmOvnyOs/IEmLQKCyxxUCLVLbqQYHTN15Rbw1ejZGiZzvN0Ag/67BgHO9/v00zmyFB2hz+nTS7ZDaF2OwNswAucAi336uKimkQjOxUxV4fgZ3AIA6GrogYM0Swgaa1ZBTFoOEITkCuYeg0agrPtpsQw48ywZMep+ZfrGz/XFwDkZGee5mb/7Om+ep8lk6HtQX3tzHJxrgx5P/Rpfc1i/v7k+mBsEfR5cWxIB/N56faZ89cdi1TKBbT4qYFrI1FUpKip81AYAACAASURBVIoYgKNViXypFAEU+GEMIyHujYKmKwW99PzBZBRAZ0cHZJomst1C1qFMtItIggC4VHJ27ZXQA7nyxWefoQyfzWWt+51fpl+XmQYxN2g8B6bI3kQLkNfhOHz2kIskAyDiCFiZylJUa+KtoqFTCQPoim4ISwBsbnIB0Kg7I3uRs++Q0tyktCAIgHAYrF0+yrKTsYazVc4hiHsPrd4Mc8M4SenaGtXjFJNDuAv2Mgg5uBCAmwpUOFVB1BsQjLJ0prKQ6vMD81OO86PLdTDmVyj0YrV4LVNEFag9rwbLEwSmcfVn89GWYaacCm2SyXxoTctR7XUMnSLP/RDuvcnQTm3Ky5bWZ/aGKDkWlVYNlH8Um6/SLyofmhw2HqXFQZBKNwME4X2o56FzfRjOE0ejCmjCAVbJeFWhYWtsXKLMf26W3HvNDXLplVcqMT3XUYIdE+jotdXcFLvN9X8K8JwEOo6VgIC6Bgv5nAvOxoQnClZxzA5n3k/W6Qor1NkgiDQh6H0aBF465wv1KAOpFtVxgTFpfF/Mi16w9GQxAYpmAnRqQgd6E4iYeXZz8dUB1skm6M/RQUSnx0xaUlPazjytWvgB5nD3IN+dLyunPyE7vplr99JiXykrJVXvV+ONffQ4KnM6LlrYjfd4EK0ybrqVLmgeEKWDuKlDMAO5GQCcgdJaNC2tg0r3IMDVgZ5dOW2KZKBnjDb843Uk7NENRpXuiguLnYFTFSNK2eM4BzVPrMmixoM7cutDlSdQCBbaU+4ZKU0vGqjSnVwwTBbnWLt+c9bpYOT8bl4/M61nvq8ZBE2gE9QmTWLR1LMagKAot0DtUnmOBOc0BqS2TLkI4wJSEFuOxbEMCyErZcIgWmTwosdLGQSdYdBDsP1B59RmMuqeYdIIYmTm9p1zXoMF/bhz3rldP/OczaCv07kfffSh/PjNl9Lv9F6Sj2OsBNAJxDmFB8D+nmAWN3M5wBjZGpZ5B4IJYCkw0I4UKNYVegbQ89XwUKnjzhu743I40K2BAeIF554vw0eMUEBHf5455uY9Zp6TPg/9GicAMXfAJtBwBgz9OvNznJ9vgllfAMd5jzjH2Tlf+HyW0E8cP14yUALd7tw+krkLhofIxYQB5NJSgWlLesbQj7EcAKASyakwsANhEN+GYQwJogtxLdiaoxLsThECbwnK56NhRRAP075Vn38t1104UO699z4vLZcZ9M0ehCa402sC5/OS3/+QO9G9vXP/0yW6eRpYxhLZv22v0qMR1LA8PBwarFgAljrVu4pmwDB8ZOdueCQ17dAO3E6dZKxZL4cy9ksL9NCqQNXd/l370DakGC05siSpU0sJa8DXA+QjBRUOrVcI3ovsYSXuG3+abDKtBdG1H8AT20r4kRHF+0RBeBxAhhQi52qk7agdK4LQvXpLpnzzzTdGiw5vKYNnA2Zv9pznz+zBO2h/8szsN2TQA8MkEqkrVv9low2PH7RStC/IAXijfxMBCl8fg1Q1GVr2a6MNAO/3A7v3qcaySU3RsqRhkoRjAxAJVvrHN96V9nENZNh9w1RvNm48dfrKa7NLZt8GqG7rjhWfzKh5vFn6f/f3k0DHCXRI34Pq+xD25LpaSPVesoObil2ccFbU8Ly6Plhb+Y42l14lfac9o0SdqnWEPQFMoKMXLz1xdWrL7H2kg5Opw3ECnfrXsyoDAlFbTGgKFp0gQb+HMyiaw2EutiZIMDUielFXrBVunLydO2X51EfkyLrViglQO0cF97xTVHrkrJSRGgkPeGBOu8+TqLgaMBg6CQiR7b49eiE3GQv9mNvuWI+defPVp94AerAgVeNGX/How5K1eoUlELQOxXOw9ewNHjQZKOtXi2my9UeeIKI+2HgbO7XH427cf6C0u4OVWUmW2ZyttzIXBrdgY57fsQKiPldfS4SeKzQMpI/OqLEPSVCLFGWmVlNL12MEK1XGHGB56CDol6HkvACOxwRADF7VEOtWAEBYjtBYvADwypHi8cP9EIEy4sytu6RDgzSUl49SLsQsL3dei39nCdMA3gTazvnIefbuu2/LvE8+ktO6nKIW4iqAndpyOBLDjdbqzmwJeqk3qgTIJRANx/kFIGAVIQ1Xjp14CL1u8E8Zz2GMIJqQ1Sj7PQfici70mZmZHnbR15w71tibGwfzvPTP+vrp+0qvEf/OeP2nz9Vzw3NPY5xodLhh3TqZ9uzTEt46Xdr06CyHdu+UcoBasjZl0EKVgzWIprM25gPL3gswlpUI/v4Q4PohiDZs1QJ6HLAHeUUAEniM1WrUE9FfCz+vfO9T+fT9D+UUmPg5DVvN+azvdT2X9OaPaxmP+f+xd93xWZVJdxJI7wmEGkroIEhTQMWCBdde17oWVMCyutZdu4KAogiK6AqoqKCi2FHExlrXAgjSkU7oENJ7yHfOc++8mVzeoPv9dvUf3v25Ccmb+977lJnznDkzk7N5s2u2uXzXZmneqxMywjB/Fd4JJS+PWUZFTjDdBBWN41DbhyEdllTIaII2HVgHyehLFQVBfQ4qCpMhata1kwsx7UHtmRiIl9d99rU0hm4l6/AeLhsrEr4iBYCG9WuK0S+LrSwqCXZQTykK168GW0MRdjSzlHAdcKNSgt5WBILsys4MxV/QcPXcY0+Wf6BOjz5XuLY8wWfXQxIPuxRvf/H55/LAo49Ir/NOl/bduzlt1HrYYledG+Uv2Mi0BpubDI6rW8Q2JHjGGswX54/2uBR1jSJwWGU/uxoAkmjMH0PY235ZK9v+vUAeQv+s3oHwVRDoBCMIdi3+USCH93AQ6ISxCuu/mCdzhl0RxjmbWjC+M6wTlfGZjWicgg+75R9y6F+ucIJcnhTrK40d/HhrPJVeVjCiYRsNV2nISn9vjX+tQ6+t7GvDXlbj8msgQR2rXtMCKN2cNFxR2Lzb5v8oC0fcLSU74BCwaQgGw4X59LktAPKYEJwWEDI4bNRj0rzfACnHCUPDfhbU2NPsgRxOOIBQe4rFCYTpoMgqWjjyftkFsKPMgoLYEFMXZp2EtD21uCiEk3ysEwpzOQgFhoTZfBldu0uPm/+B02EPB4RdWr6vQQp3IrKn+PpAjgUSQdCkztKOGZtWEugMv/EGqWmOPkrof8Pfs+Ab68BEU4fDujnItMpFVd5cZHdEQOzAVPJo9MViRVuYcVdNmadaGnpmFkbD6G5culy6Nm4ptwPotADQ0eaV/wkwqD3N17JwKrwOinL5c67nF55/Tt6ZNVMG9ukBp4qWLXAokftYywRrkH2aEIorRliuAIa9iEJqDEwqGKh0sjjUahHI4VkiXFFEzBXWYx4q3C74ZZOceOb5ct2wYbKVWgejF/tPQEU4wBY8NAQZnv9kzP6TezkQGNN7IDBny4qpz06WKW++Ls16dwcbAvCLcS1Gin4lwAzrzlRXVyAsha2OEE4MwjnU6VRizMvh5B3YwXpi7RoETDAPgho/6Y5JYP+wbStXS8KuAnkJPZjq621F8BNkMezBTRle2sXXXn1Vxk2ZhLplh4GtS5AMZEHmIaNqJwEqtUTIQErNQF8xMDvMRKJOJzYmAWEetD7hgZQZZmApeb85G3KkCOuaa75Rq+ay9l//dhlj7Y4dgBGghorZtdD0YI2xwWpEGQ7JYIcaUovDQx5aUCRgPbHsQARYzyp8Rg2ymyjYriiCDghjthz9tGZMe1m6wxZYUFtfmM4e9jg/BGRcQ+yRNmHik7IJ+qITLr9I8iAS3wLgx33RsmVrp7Nj3Rwe3Jh1xT3Ja7EVDENXZNEJhijUpq4nATbYFVXlnGLffP78i3L9Xy6Xc84/32N2TfZVMEtPnyNcw+k/CuwcBDqBHU+KdNELU+TfYx8K0XD7SUx81x104NxIjIMmZTaVE8Y/LS0P7+fK6VPIGQ6tq0OyDsgDK7yOl1mlG9yCFG5sm1ETZGXUGSpQ0ke0gMkajiALYO/HOlZdwPozvYYDKNh00WAANn/8EYDOXe7EVq8x9R7My0QyIIH/psNJbddZeqNCaFr7jiiSxm7PWqJv/ytap251DeGcvWWo9N55H67IIcKVC8eOkRzoshjDJ6PBm2O4LZR1hY+37JSyUvp7S8rye5ud5YXEPLBDcBOPDJQ+/7hXso8f7PXx4niFATvhQE64+bHPFg7YBOdY08uvHH61lDcDjY2KsMy44jymoq4GtVH5AAsl2/dI1bZcSYPBZj8oai12o15JFcBOalYTUP6pLjTFFGOCJzaYzFm6Sro1aim3OaCT5Yyqhm7s2qmPfbLrKhguDWZ88BoKdKZMnSLvoEjlgJ5dpRiahAjsxdhYaBEYZkDIIA+9hJZs2imlqKGTDgqeTR7ZmiAjRqRLs3TJoB6MJ3KAX6baE2CXgnX4GuGPY0471wGdLXCYWqvmP30WvVcL2MJlUv2W6/43QM2BrhHaH3jTP8D6fb58sfQYPMj1i2NTXKZkU9BNQJy3Y7vk72KLB+xdhEDTUFk3CgCSzVzL4NDZD416Fu4eakNYKZnzyIrTC15/V/6KA+GVVw5xgmbVpdiu5eHslw3B0xbyP67phT/Ol7/ddbukdM2GuBYVmpF9RSayECEkZiEVo/pxDLSDMckofIkmqdSaFe7Jd86dIIihrHQ0gk2AvigXXeirwARy78YkowAiQkG7VqyVpt07I0misTsIcD9ThF+KfdFgH1liiPiRrs3kgwbc0rQDDchgAVT49djKWJkYn5WHBqYxuwrlTRTms5Wg9XnDsTgK8DSrUg+91M/NnPGKTHplmgwccilCgwUu5EggRNKYoXJmxTVGw1uGrzgenEuKkulPUhC6y8DcsZp3HhrDJqGvGxCc7Nm2Q5qA8VqKdhOdIFj+2403QbvU9IDZV7qvwzFTB4HO/3rn/sbrMzPjy/vvkuWzXq2NN/rO2J7gna821/RCMBGuVHZjpBSf+cosxIMRz/QdWDgwEXS84Qx/EOhYujZczQzdHNbRB09D9TmY4BDZ06UFXRZ4OJDjh18o3Fv12gz56bFRoViwY0b82HIdUON/WCiE5QYQ7ArGL2vQSdL373dLHMaPhbtsannQCQSfM9yJ2AK0sIDApbiyEaHIsmlTZNnzz4KOBjXtAFYtnLWZV6GaSfy9e4vP9rESK0I5Cnq8NVOXF+JnUfgbg1PT4XehB9o557uTYTigpnMSBMUHAkD1LXXLDvDZtsFpX4KKssXpcRINoMMUbOpY4tkkEs+zY/lqaRWVLDfecrMcj/RqxvLLMB8fzJ4tTz31lOSU5kvmIe2d8yJYi0a3bfYt2rJsNSojN5dbkHXVAo0xSZ/TuQfHXtdRuNO6zpmGYgkIrC7AplgrwzJ58hR5Y/rzMgAVclkpmD0AWOcnBnVRtu0pkEUbc+XUM8+W664d7jqG87UWbRUmPPmkLIDQdhAq3qZTd8LGtNRxsQ4M5uWrtTnon3WuXD9sqGxDuIP3YddUcH0Fn0fnw2ZP8Roq6Aync/i9mRzrXL0Dh1dGYPHChfLgI2NkV8NqycBcNsRSZl0YMmSs1rwbTF8pMu4iACa4z6sBEmvSER7q2A5AA2HOMqxrOMwGAAUNYiBixfjy2V1RUADr+S+9Ie/MnCmdOncOZRzV5+iDtk+dvIIe3i/bYYyf+IT8hMyujHatXJiS6dZVYFeY412JNaHrtQZ7sALhtKp8NP7kARPruAznm2gwPslw5jHUakHL7FKxQU4T16xHm4YmWS2gY2kme/G37IdVAzDHzFBmd0WlJUtaNprGov6Oy+TCWqoC40VQx/R2dkcn8KdWZyPCQZedfq7chObAGjX/rQBPD7oK8viM87//XkZPeFyi27HSeQbAPdYY0/4JeJwm0BuLZIiy9+Zsk5zFS6WcXc+ZLYufxwPoxAPANQYLy0agWyASJxPVDEBnJxIXfvn6axnzwIPS5zBkXwEkEVgeCKirz/ijqiFbO3iQ0Ql4BfbzmX31ZbL5u688zYafIURYUwfYmNCVXoLvZzfrZj17yXmzZjvnpWyOTjoNmLI2tnZOkKq0fU30+srIWI1KMASl79HPqw88hWNqQs9havUEnZGGr2zWhsuKcmJPNOVjxtXUZ9xJT/Un7l4MZKgb8vEG0gEDGD+2FOh51TDpe9Nt7kStrR/s8/wauPm194YDgQ6oUKgM47Dus0/k+4dHSEHOJu8ZHCNXtzGpAzoMiXiSLM/x+V/tv319smGuPIjkUlEZTgFNPuDuEdLlrHM8QOiPZWBZ/uZ/WgdpmR91xnZstiMl96LLLpWiZIQWIAqlpiASfDrvfxeMXJvoRHnyqaelYwf0VmL7Er/eE+nu+Tg53/L32yUfMogWhyATBc6ADQPZSXsHel11SGpcp46OGkQbUrXgLZzuSkOxQZBjr6XPxfU4FYzO69MmSx/0taoohwMCG5OEAnaF0GEsWL9Lzr3kMrnl5psd08D55nOyOi/37MhRo+TTt2bKhUf2hSPyGmzGYC1UQHfxNUIYA844R64fOky2o4Emq/zWB0445sE9qfPwW0CbnacDTXqwEJt974Ea+dZ3zeC64TMQ2LJGy9MvT5PmPbu4FR4HViSGom6c/Dcu/0WagPk466yzkdJ/pMv2+wHVg998803ZAQ1XM2hF2Cy2FOE/cNCuwB77TLG+Dp1uLtZJen6ZPIM1Ri2QZZH0AKUHNx1TG7a3mYsWRL/91pvunnucciLaPICBQ9HAcrB5lASxlQcdf/E2FJNct0F6du0qJw4eLK1QWXovMqe+nvcv+fL7f0sF2J5UpJOzknFUJCrzwATg0WXtF99Jc7RaYBG+3dv2yNEo8Df45JOlETR3GzZslHfeflMWLF8qmYcdIhmtkU4PdqcUQmY2vqU9i0YTTyAfJ8xePXeevDnzDencmWNb+9KDo+5VC/Ds81vpAot25ufmylMonPjd+tXS89TBmCO0EMEcsg5WFOwxy3aQdSsGyClevUH6dDtEBp14AhrdZkJ7tk0++ehDWbBiuXQ68Vh0Zm/pQtbspJGJTC32OXsPmXdDL7lEzj3v/FBSh62UrHtbv4azRQcZnd9syv+3b2Tbhlln/Un2rF1dm33D8IWnaduPxfE2p5dVxBcXX9ujB8mpU19yqYQMi7i/84XLFjjYU7k+VTjmR38X7uSrhlUNgqU7DwRywhlUCwDs/QRPl/Z97nvWc4BToJ7m65H3yar33nJxX92wNsQXnD2f8HE/pvMno3P0A6Olx6WXuzTs4H2Gu8ffwoz9llXjpcIjjRoGuQAnw68fekBycNKn8JBhJbdJLdr1L2pDm8Ew5/6fa3gtVutlJVUY+aOhSWo/+E+17TL8BaXPe6D5UINoP8v+nToNL3TCgpOevmAbnvEiNCncDY49DiJiCnFdJgY0S2Vbdsq1F10mw8B+MEWVpzf9HK5xihmffHy8jEczxY7H9sfJ3auAyz5S21evk/bJoLmvu0FYt4P0ua29oYaQ77c1oMJpzjTME2Rz+HN9MeRBJnbq1Kny+nNPS+/s5k4My5NqAnr+5CCTbHdEkrz/3rsO5PBaOj5co7zWypUr5fabb5S2CHW1Q/2TEmbKwUlUgwn4en2OHHnGeXLD8GGyC/VXKOQOd5JVZ2zDKnrw8MYeKhUyRbAJwVokuldt6DqcfbD7Qfd6UDNk971leIN7pz4grIcYzsff77hNvlz6k3Rm00iEXJhGHgWGYv68b+XQbj3l4UceQduFxo649Q5x6CeHDLy/Yt2shgC4FcTLcWA5mOrM/UygEQnnH421tujVt+Qfw/4qF110sQNVqsXR+1cHb0GOZXHsoU7HgFWBfwII/8eI+9B+ZyDExAhPItU8Ell01NqwnlkJKn/vXLBEzjz+BBmKTC82avVYPAB+/P28Tz+Rx5+cIFVN0qRJu2zJ2wa9Fw4AiQjX7l2/QXb/sl5SkFV2//0PykknnQgtkte7LMb1Smsojz06Vl5+a5Y07d9T0ppnuj1dif1BGQPFvVxTTKlPQ9HA1159zet3ZhJbrC3XZw8moOjBwO5z3vsbr74iT7z0ghw39HLZi15iLluN94Z9wPYc6xf8LHsXL5fhl1+JasfnOr0OGTfuiURkyLGMwCvvviUtUCspE8wOom5ufNgWY8XX30oThHRvRZmF5igb4IFhr+SErm09QNsDvRWYHwQ6v8UT/Q7v4WJ8+dh+UoLuxG7D+Se//T7a+ivPHbuUZIaq2g0+VU6e+KzTYjA1125cuxDUaNVncPQzg7+3Pw86OWvY7ObR94VzgOEMpd7zfqDG35B1noPgABt8D9JO56Hi8LZF850Yr5bRqRu08htl+KNm0rRdBpPI4Keek7bHDfIaZIbpDxZ0/v/psrBMQlD/48baZ3G4KZe+9oosgrixYGuO2/A8Odlsu7qfbTgd88ghNsv/mb+sPL0PABR1SSnNs2TQ45OQLdLbA3iKnPEenUcdcxqYIGCuD+wF51vXAQHPVnRfvuSyv8jeSLSuQBPIGNDXDQDyclFdNR044XFkDXY7BJWpsaZVl8LP0X/PRZfpByeMlYjGaOKIcAZTtePRvXszBKbtUzPlJgKddu1cdpk6dmVpFHwFyx1Y52VBTrhqrPrM2uBwCoDOrOefkX4dW4JBoPFFd2uAtJyCEhSRGyCjHhrlN+v0Qk8WKOyBpmfcuLGyHAUHB/foJnmujxOayyK88t2mrTIQYuS/Dh8uu6HpoZ5C702fRw8c6pBsIUg1+irgVKBj65DY/WbXlK0jw5/rv63z0PfXx/IEDyrBHkTBOi2cE97b/B9+kJEIW0VCh9W4JcAjejilACzkLF8hhTvyMF7jpXv37g7Icn74OQQinOtly5bKDTfdJLGdW0sT6LSo/4JRkEp4zkookiPx3rVvfyrvzpwl7dojK8uvDK/zYkGOgpv6aobZcSQIZfXqxx4fJ0t3bpF2A/pCKJ8PZi/Faa/K0SphxRffSI/U5nLvgyNCLKx2jee8UYMy/tFH5fV5H0lml/ZIUy+AgDkDOpZUhNvQruHduXINDmJXXnVVyMHzmdWOUsD9l4svllXFuZKA1HrWomLWLsPCiai0THuw4sN5csOlV8hQsIR86Z62Okp+bwGOLQCqvkMBND+bGroFmLMHMGexndpIo9atnA2mho5tL1itetWnX8hxnXvI3+64A6nk+SF2kvdGkTGbwd5y042yHm0p+p2Kxq1g2Xft3gHhODKywNgu/eBjGY2mq4f167ffAcYmqaitUr3pHx2+Ohi6CnhJAp3nQTtWgu7zXp53suEWTyZc+7IiVFKy7U85SwaPnxiqiBzuZBZs2hkO7NifBZ2zZW6Cf2tZHmvQ7fvsqcGCGd2sulCtAeb3NvQQAlIwWgQA2xcvko9vuFqKd6N+A8W8Piiqw3h4BwwT7vHTs8Fu1CCjIRFC7pMmTpEmPQ71wla+EDncM9pn0I0fBHr6HLXOwEuJDgcMak/V7Ebt1VohU5Wfs0W+G/eIbP7iU+gSIDpk/y7/GnXWgVsqFsZ568dLP6/9uWW4ODY0EDRGWUccI0eNGisJ0I9QKGjn3D5H8N4V9Ng5s3MVfD/viiwIgc7Fl/9FShKiJJ6NDLGwY5Aau2fzFmlUHSnPTnpG2rRp48CBpaPVmX06d66Mmvi4RMGYN4K4twHGi1qAdUtXSKfM5jjVXy9tsrMdcKNz538WINsQj7I5dp4UGNCJhqPIdb64l8jUPPfcc/L29CnSr3MWirrhWaCHKMKJde3OPOk7aLDcfdfdzhGrU9b1y2djs87x48fJormz5bReh0gB7xnzXIy//3bjNgAdMDoQI+9GeECdompudM1ZRsfWd+L11RnTIQZrkNi5tWvTri0LdgPmJ7SW7Xv4va3ErnbA7hP9Pvg73juZiWefeUaeA9A/9MijWEUVILihJKOa8RezP5STjjle/o6U6DiAPnsdfu8Jg6Pl0osvkZwINLgEQ1aKhplpLbKkCjqXUoS1di39RbolNQIr+ISrGKwsko6lrfOlOhS7RnQ96rqymT8c35nIvrrvsUek2+DjIAJmjylU7C7YK3tz4bQxn9eceaEMAUOXh7IJBK56HX5+MgDDxx/NlfGTn5JdSAZPxX5s1QHhWZRV4LisRvZVr5bZ8tfr/ypN2UEef6NzyvnjHL8yY4ZMfm26pHZp5/RvJUht56GX+6saY7nm3U/l/bfflezsdiHArfNgAY4mnljgzPdpGFT3CP/NkBzr4IwDyJv7049y6GknSQGyr1guIhmh6X0A/QXQz12B0icn/ukU6IYgKDfsJD83FQklM156SV5HG5/WAw6X5mC0dqN3WC4OAokAi19Mmy7XnH+RnH/BnzFmHpsTrgebrlHdo7X72nrL4Er+3/37INAJjC1DV1MORRdYTDrzhuy0hNNg8M99djCUSdTp7D/L8WMerQN0wp22goZJDYZu+nAGTZ2WIn9rZO3P9ESkn2FBQTgwYO8laHjtKVy/t/FYAhqGqtZA2zL3+mt8MkKbZdaOoTp4C3xC46utH3ofJsc/OkHSWrdx4Qh9KXjTZwxW/HXzUE9NGjUM9t4tYNPf25OvGw/qLWj0qULEa/WHs2XhM0/K3jWrHQvjUmf5HrJAfgaZ3m9oTfg/qKtL2n9D02Cx306PG26Tzhdf6jQMpJQt4xR0dkFgU3uKqk3Jtu+xISMa7C0AcJdddaVUNkYpe7R2ICCLQlXb/B27JTqvRO6/7e9yymmnoo5OmTPeaoh5go8HFT79hRfk0Reek55nnI7iO6iKC9YrDiLL9Wjq2SqjKYCO19RTmwHq+lZnHlzDOv5BLUt9wECvo4wOQ1dvzZgq/bq1kYK9xaiRg9ReZML8sh3hJtT1mTH9ZfcsNnTFdUSnvBFiy3v+cYdU56yVftlt0BeL9U8wJ6g98s2m7XL44DMc0NmBcACdgz0A2L1ln4nPq2BIHYI+iyfI9eZJ58gydXaFBNelB2L3749n90rQwQTXTrhr8u+VzaFz/AfGFm1P4QAAIABJREFUY/6yFdK7fz+EM/NR9TpZMhGmmv3Gm3Le6We5vlR8cZ/azyMw4fPegpYZK3ZukvTmTaUIazkegKG8GuMPhmPprA9k5K1/l7PPOc8Pp9b277PO3X5v97eCRwt0dD2wRs2CH3+UYTfdIPsyUlHdGBWMMd7Mtsrfg6asWBvXXYrQzTlnu3YOnE8Fovy8NID+pydNkonPTJKkzm0lM7ut2+NlVaWS3hRhOoC2LV/Ol1F33iv9jjwy1BZB1xWv9/nnn7m6No16dUWj4zjXzZ1C/oaxUbJ7zQZpVRMt0154ye0ru2aCDKcN1dkDi83cs4Cb/aheefFFuW/CY3LkZRehTlCRy6RKBZuzHfVwkvJL5IYh10iPXr3cAcRWOOZ9sG3HJzjATEYbn8QuHVDhH9WrAfYZeovDvG1csEgy0cvrztvvcDWyguEra2N0v9vsqz+K2TkIdAI+hyd5Ah1SfraZp/e2uufyOlyPi3J5zrHj6WfLiY894TrbMiasL0vjqbreGqygoQqCEwtegoJk+zs1CDYMoNdSZ2UNnf1cyw7oQrWgRg2M/UoRdizCHkteeUm+QMYa04wpBPXVS8bVe2MYZMjcG8AAsfljN4DEgQ+MxCko0RldNb42Vh0UIdpnsydi6zj11BHUVtiNqca69u88Z0LQS8DDdNJSpGV+//hYWfvhu1KC06ALZYXYHV9oHIbF0TG2Qbw6MNr9ogaNAzOk90OPSho6aVfBwCijFZwja/RqmSi/gJ/PIFhgFwyTUGOzGc79qmuHSlI3tKbAc1ajiF6DuCg0Btwm+RDgHtu1t4x7YoJXAddVkvUS5gmScpGCeuvNN8nPGIPDzzxTdv2yUiKQhdUcjnAlNACp6B91w9Dh0gpAxxUg9DU1rJPkpptldPHiv0mZu5UB500WhfetLE59mVbWsXIP8f4Yupo57Vk5HLQ921Gwcu2+BkilBcu2CLqKx6Ep6gfKnXOqa4vPwtcrr70ujz14j5zUtZ0k4mTMu4uE0hwdneTHLbsAdM6S4VdfLTsBdBT0BZ8l+DzKYAVBDv+e9x+k+sPtSZ333+srx4UCbVYZHo1yCyw1kAWHVgjdFtm6DIR1vv74cxl01NFy9933hEKa3lrzymIQLBA8XnbJpbKtsghhrxayG9lJ0ahd0yAegBlztX725/LerHekTVvUeHFry5sT3dvK4qijt3vc2qNw2hCO906Er55EXZnPFvworfv0dF3IGzVvhlBkkaz/doGcNXAQqihfh+rBu5wDtwcKzut9994r7835UA45ZbA06dQOdYPyEKopRfQN/a+QVfXlP1+RWy4bIudfcnFI48K1SjuVDK3LK9Ony9OvviyNAXRcNppvD5nCvfD12XILEi4uxfhwHajtVtZGwV0Q5Kg91rVjbbBbe/hsgryF8+fLQyjwWJGJkCNAO7WiDVnMFfta0IfumosulRMgwHahKzac5iGNiTR4Hysfv/ryy/IKmM2WRx2OFPwk1+6jAkVDK/Ef98bidz+Uh2GjDwcA5qHHZl/VOQD7i9YC84Mand9rJ//K5zB0NaVnR58d8FJq1HmGtBb+NbwKyZp2431PgNR+8Gly0hNP1xEj6yK1Dkuvy5+FY14sta9GQDdFuCyVUHyXTUUpdPWdijoSdSb8d9CohhynH6vV96pD8hZr7QnU0vHuJIPfLZo0QRZP/adLaSTQ8byXp3MK96qj3PF7XPX76y3S76ZbQ/2arPGjAeDG0p+FWJ4wzlPvWw2hPUnrKVAdDZ8lnJMJZsKxYjNZHJ5K1uLE9uPjD0su2J19pPXxc0+TVBfKuCHg/Na37pwWx19DAHus59P+iqGSff6FGDqvU30QgBEQuDXjAwQ7V0EGxwpg9RTIrwkIF+Rs3CSXDbtaYlG5lrH5EohHSc9HIkSxdzv6/azcJJeee75cfsWV0gxOgi86ss0oRPbspKfkg39/Ke2OPtJR5hGsd4S/TWmUImuWrpZGEfFy7ZBh6F7eGiwKMk4OUAtJh0bvNVzISrOcdB95xh7tNZi6bEJXs6ZNlf6d2iLkiMwgiD5jkEqblpUlC5Eqv2tXnowePUa6ItOGQI+vQmSmfIqqsk9DfJpRVSL9O7dHCjKYGAIwplDjmb5HqKMfgM4wAJ0dqKWi6eX1TSnXkqvFg/kMhhgOlH0WZGHqu/5/++e6ZnQ/kZGYNHGiTJs5XQYcNxBZRx7bx+wdpmZv3bBFyvIKZQzGsheYgUoUBnRVFnynTaC0YsVKGX79cEnBXGQ2y0I/pp1SEwcQi3o0O5aslL5NW8nDY8bAMaO/GBxsUI/CfR4qn0GQELBZQZCo60IBEefo/XfflceenSQ9Th8sSWh50BggIxoVjhe8B+1NcY2MeexRd91y7DkCbAqSU9CrbeFPC2UEgE4BMFn300/FoYvanEJofdDmBECpGcDD5h9/knZxqXIjwlctAOR4/5xbhsH4/EMuv0zWlBdIE6wn1vHh+ESDBeXOXfLGB/LR+x+6vwuK8S3AUxuv7LU+ox4a7KFUx56/Y7Pdf/7zGfl0yUJknp3kavzEAQCVI3S1+vOv5IwjBsrfwMaxuKENGfL+mf12N363EoeWricfB3uLGlkQoXNTkL0m0P1syjS57LSz5YKLLgqxYUGbqmtK79nZKxNO/W+v4V+73kFGJzBCLHxWC3S8X4ZCLn6IQv8kXCiGTRyzjz1JTpvyghe68k/8FtTopNuvIZDCkJl/sjlQRooDPL6Dt05PAZPd+MHFFvy3vbfgfYaeVbOA4GQJIhT00MmwEnQFjMBPj46RDZ9+5ITILJdHfGOFt0FnXxsWdFYSupgKOXbko3LIBRe5Sp3VuIDG6mn46mRc+EyApeSDz26dvNYtscxOODZH58SCC3tdMjsU10aB4i3YtlW+fXgkigx+DGOPWjFgEKjrsYocWxJxf7BjqvG4wSAoBMWPSqaH3jdKklq1cQUTrQMMzpXebx2GxwdC1tHaFG2OCwWTOWB0LmXoqlE6uhYjDRhzGBmF/k9IraVTK0ZTxMIN26VPj14y6NjjXLfm3RDpf4yslOXrVknLXt2kIRxHZFWEy8ZxRUdiImXjijXSKr6xXItTaxaADhmdINAJrjP+W0FAfWyOBXE6Jp6Dqc26enPGC3IMKviWwjGxSFsU1mYyWKZizNl33y9Eqnm5nIZ06KxWCEfAgS5f+rN8+fmnkonnPqprR1SuZXdpZMHAebPOSjFaHHyzZpP0H3ymDL3maoClnXU0WuHAiYagNKRgDwU2VGUBxu8JcuxaUVugn0+2qQA6jwfRDXvxZqQpD+gnVYWoRwSOiywNm15Go3HlFx99Jn26dpM7774blXdb1LGim7Cu7kSRwfVFedIac5EQmyS7wCSUgzGMSk2QpR9C//LQw3IqxK68F7vH63wPW6oApz4bpiJa+5UhXzIbS39eLPej715sh1bSrFMHCOZj0N07UbagRcmWr+fLWceeAI3aZa62TA0biZJJxPNPeOwxmfnmG9L7gtOl45FHQJdXju7fObJr2xYp2L1H0sB6NENRwWXvzJFRd9/vUrSZVcZ2IgWoLfTKyy/K1FemSwZS8hs3b+6YkErYLxbTXPfTIumS2gT6p2dxQIgOHdysDikkuvbD17/12fk+xyghfPXurFkoHviyawnBuj08jLD/1Tr08areuFUuPf/PcvKppztQ5sKVeHY+wztorPra7Hcl65h+GLP2rmAgAT9qWjtQWgN7v37BYkkpLJP777pHstDLLhi+Ch62bAHcg6GrX4Nkv9PvyehM7d3FNWIMkhH16SxCPyf9B6DUos9hcs7Md7ysK6aU+hU/LWuji9IyNLYAoAU5jtnxTzU6DHpy+TUDaX9fX7gq3NAGWQT7eW4h+4CH/jkG4r3CtWvQRuFe2YsQBgW8rh4MfsexqS/l2o6bQ/tIvTzxyWelzTHHIbZc7ICOPeHoyU/DDnoaUaeppxrnTPwwiDp4FYEq0AlqdBQwWJG4DR3qfOm8eEXEvG6/y156XtbOmIaGhYWO2WGoS8svReAb9vlhvR33GR6cqfu9oXy0vk7PB8dKkwFHul5cXIhB9u9A8+6xHTBNPngIhk74O2psNm/OkcuvRuNUdHSOA8PDjBLWfkJvdVdFNZm1TdCZPGflWhj5HR7Aw9+ltWgqLTpmu4JkLAeg4xQP0SUdxS+Ll0krpJdfP/RaZwgZkrQnPAscHfsRmC/OlWoHws0Xr2VDvsrsTEHNl9dffl4GotdVBZiYWOw7AuZIMBLFFSVOnLwT4G352g0Iw2B9wmino/dRHzxLFirDlgLccO1G4O8iyBTBwBdhTL6EY+yPHmVkdBi6UjFzfYeC4OEgXDaKBRvh9uWvXfv/aw7tHrH3qeuJoYtPPvpIJj73rKQhjNeidZYriFeWD+EqCi9yncSg2nBpabV8/u570gn1Vi5AXZWmTT3Gj60IXpv1hqzaslla9UKLE8QAWRmZ1fSiwJqUQ8u1feFP8jZ0Pi1atnTsQxDouPAVQA4Bi64P3Z/q9HXMwjHT/BnnqABh5uenPYf5WyLd/zQIVY8LXRYeNUKFaDxbsGytDOzdRw6HvSbYIRhZtXq1fPzFv6QxQErvEwcBpKPPG0I8+ei5VwK9C1tCkNno2re3zHv2RTmuR2/U0fmTA+kEFN8vmC+zP50LIW8ficcBgokLPHfs3LLdMY8rPv0XtD33yVlnn+0AQtC+8dnZqkHZ2vqYd7uH7FrQ8NXypUvlySnPSmFyjKSi0GMswGkyNFasyrwObNQ+MGwnwc4eglo6ZDcpuv8JPc0++eZLSQIL1x737+7BhYCRkg8tE0n6GNQkigOg+2LySzJuxGjpD40Sqy6rjVFQH47R4X0eDF39f3fuf/nvmEL80sDD0CsH6eVOa+G5p9pat/t/YMh5wQCzmVomWhec/fo7jjZ3ztgPjSg1zK/BePR+LA5WFTe6vuyCr2+R66nZey9v2xPJRvpZQnotDdWog7IhLmtA1LgEnWod9gBjE4diUruxweffcxt6uBSGnlfZDM06UkfvjFUoC8lzdASYKVltZNC4idIEBReLWZo8YAho/OwJz96fHR+GDUhFWwevQEdP2Qc6Teu46PV1vmyxLn5fgX5J1axJg1L4m+Z+IKuemSCVSMOMRJaHp2epBTUa1LJhLGW8Qj9zxBbGAga345Dh0v6CSxxgUc0Vr2eZvCCdr2OgQlcNAQXZHD47T+c5ECNfPuQKiWndVDLR6LCCPaBQA4XGjMwOOy+zRH4SNAfVKIWPhsvoYxSNjt77JDYiVrLQxoJSm/XbNksRDgYJ8eiDBVCxZuFSiJEby/XDr/eADsaJ7JKuW6Xi1ZlrmEfv90CZSboW7ZpUjQ7FyK/CsR15aDcATZxCwciUw0HTUJdVosM2nF8CnFws5icJRj8SNV2qGOZlphxYKV6TBf8JsF1vLGzsEgDNL1asQujqdBk65KrfBHTCHS4scAkeIkKHBh/Q2t/rWlRwHw4UWYsUBAAa5iQLG3Q+Nmyhn5kKIe5TEybIxz9+IwMvZJ2VEnSA3yel0GI1xJimot5SVEIaOnAjkwhjs2jeF7Jj3XrJhJaHr+0AgqmtWqATeDc4yWqXpVYD1iAWLBn1PqvRCb5/h04uA47amHIIdC2boRqdX7M9BwaHXl0z1pX58L33ZSyyp3qeyxpV6EWFNR2DdZoOYFaMjKR13/6IXncl0qJZcykuLUIXe3RoH9hfuh7RX6JQSXk7wrQbN6wHiAFjgzo0LKPBsUpEdlLOoiWyAqGgps3R7RutFbZv34b1s086Hz1AWrTPdjYgF5WHadtK9qLNBL5u+Pwb+QBhq8aNG4We3YbpCPrsobI+9xa00woA9XBD0DZ16mT5EP37WDiRrFICWFzHvuAgsXv9Rln7w3yJh4YtGeOUD7tVja7qmd06orI/KjuzPAieJSoSJSMQjivFGDGjixGKdt27ykcTJss5qBd36WWXOQGz6uqCmim9r1rfU8vj/5dd9wEvdzB0FRgeLsrXTztBcjeu3//k7b93vxCEOaYT3SY3bS4nsCZK38PQAwiF1HygE9SbKIOj5bxtJlFw1oInPDVaNGSuLxNeVggWC5YlymllcGrASWMf7kObY+q1NFymjlyBmDpTBVpWJ2Lvy30etkM8nFrOpx/L/Ptu90AV2z0ybGXgjJVxeynXmnjt3TeZgZYDjpKjRjwsCShGVYpNxV5EoawL/4SnTj8c+NLntwAnGAaxTI41FjYzQA2NjoetZVHHKAOMcr0444ET4Rac5H7555MO7HGstQZTfVs7yGh5OgfU1cFctTrxFOl7+10SC8fDbKzgPdm5UwDhMR2ekNdmZQR1IZxDinCZXn7pFZcjMwU9gSAUpWGOLEdNHTggMlXFCP/Esis1GI5IOLtEGEVS1xVVNdI4LVOaIWW1HABn4x7oecCYRMIxxKOK7JaVa6QlND83QL+QjfRylotXJkEZTLfmfJZSwacNL9qU1WC4JwhwbdbVjBenymE9ukoktQU4gUeApYH9dustGToN13EdazQKxnsf5ohCygas18RO01y5yIopZ3gSji0CzqEaqdA/oGDg4SedIsOuIqOz06XV/n9ffO7Q8/h714pKdV/r/KpOQ0G+/jy4/u39BG2DDaEd6PoxOPXv3LVDJj7xpOSi3kyXY4+GWHe3a/kQif0XgayjeICW1IxMKWOpYKyLhvjKukt7d+RA61KK5pdZ6H6NatToZs9DQAUK7RFMsos3Cwd+O+0VGXf/SDl20CAXttGQdFCP4u4zjBbNHkL0mXUfKzPIVHK+mCq9ZPFiuW/USNnXPAPZU6iYjay7GKzvhkyrxtyzSF4B2yDwoAUgFoHwFguGxoFdxqpH9l4e2MztXrNOaNfY9JbrlgX0CgHiNs77Tlr16SVNOrR1zCuS/BywJ2Bklhd7SVHIm5yQLBt++EmyouNlzJiHvZIS9YTj9bmCz6/PadeA2nKdV613RWbunTdmoXjgc3IINEqVWNP0BXFgZHnAYud4dwCAnc1HEczEtFRUR0+XPbt3uVBwBDZNLAAhDzoEOVXYTw0iINyHfWkChmg3ioKWgBEbcfd90ppZaYHigaE16IP3g0Dn/2sx/kd/x6yr99EUbesP34Y+wZ64nW4U/9kiubW/95tbYiP1ufF26XPVNUjtK3KLI1zhJ/2ZOm/L1OgCtptY0bFmc6gBC6FovIH6GGYC7UR8ugj0MbOXMlGTJqlZC6ny9R4unISHUICjzseFyIL6IN8ZWbCjRoi0LGO7MYjdrpk5QxaOG+P6w1DH8p+82PeGzrAr6jMcdsddCPWgsBdCQ1WksP0Gpgo6dAwsSFHnocLPYLjKCuX078N11rVgQsdGBdD2K6llgsAQ0+Jn2zWA81z3+gzZgH5LTphMsbovxNY18mvnGcfo4PpNuveSYx9/SpIA+tgWg39nQYIaO8v2KNCxmWWWwdJn51ctGPiXKy8XaZou0RCJkhmJArPBGj7eyQ91MpAlUwb9USSeNw5AJ5qNCeHcGkKPxBYJrK3C8EQR1hYNYnIsOtgjNNQC4Pdv6OHTHu0j2OtK509BffDkGg6chjsdButPeQDfy/Zh6IpAp2/XDtIQwJlNPT2GAPOFRZ8G7QJ7+DCcXE1tAsCee0Y4IgKiaob6cOqNcN2li9EHKB9C0nJZAE1D3xNOleHXDIEYmY7Ay9Sq72Wdj2UeOKaqbbNrUkGdzp8F2C6UAfZQmQ5ldkLO0F9jdZy9H7oMgl39bL2+XptzQWYlDczsxx/NkcnTpkmr3odKEzDTFQjFM7U4EWHJiJpyKQOz0xhOPB4dyIsR1qwC4wNqE9V+4QyROl5J+4heCfvQOqGKmjWUK2ADyQZ49gIIuXO+/E5enPoCWJBmKGJXFLI39nn0PoPMlrVPQcDjxo56QQAUZTQJYhmSmQTh/DtfzZMOR/dzuklitCrotygOTsM6pf0pBZtD5p1d1fk5LK4XB4BH+8ZDGO1RGcJuu8Da8IjGAoQNwHyuQj2c5p07ARQOdPu2EMJfZutWQW9YCeDHr4kI9cVExcoPr74t99/xD6d3o23TxAobgrfPbn2AtdHBvaPPriw2r8HigSuXLZOxT4yXvfENpRF6jxUiU5ItIRiCpiYpCXolgjqurxJoi6gvjWZ/LxibfSirkIFyANT27AUQKgEzytYdrKXTHECH13l/9BPy2P0PyREDj/rNQOegRuc/8Yz/w/fSYM679++y6s2Z7kThwgsEBmE+M+i8uECoxeCizD7pVDkRmVcFQP37sAlZsyAEdgKO0hrDICVrWQqblWJP6c6Z+ad56kN+hmZkNZqSFkEsy5Nr08P6S+9rb3RVd0lpenEtD+zUOWGb9M6gRiicIeLnMsMKDyaLnnpClsHBc2PwxFNnzHzqwv7M+977fz4ja630vv4W6Q5dRyli6UrnapEwCwLtVOh4qVG3DM6B6q8EpzMcyAnGz13oCsaAYNgyS46twBhEAmRWwXgvQ7XgXf/+ymmOPHHy/qFPZXN0XenYcB65BtPbZsvJ0ACkIvTjWEHj0PReLchREMN7sZoQDVPasIWCgxxqdK65SiIRtoqHAJmNDVk1sBxGj+nVDWPBziGEVc5sM+yFaDiEGHiJKLJOBLMwdq6WENYcz7+wmHCICbJ62UppnJIht916u7RH1dtiOEPecxDs65zaubNhq3DaFp03ux6sRueNGS/KkT26SDkqGDdkBgocTZlrmIpCcDihJsF5xeFrDTRI1dCcMB7XAJWTI9DTKgJGPxqanQborl1ZiJ+hHxEPB19AXN3nhFOQXn7VfkDHsmm6pw7EtgTBuAI8+6zBsLaOmzLA4dhMe4KmwyerYUOWai8syKkj9MccJ6DD+D+fniTvf/m5HH/RhQAOmFVQFOxmzVBmQmKslKOdQjS+T0LohYA3gp0sAWTLoWEpLwELi7UenZ4G+iwF7EgStFL7ZPfu7a57/IqP58kRnQ+R64Zf64Sx1G7pS1ktC9It88y1HhwHHXsNfdrMSgX4DKu8+fobcu9jo6X9oCMAZr1iiOxOH80+VmCxyJiWOa0Q1gAYKAIVsphNICQm41MChrYI1ZUJDnjAYRYhAXIywN5urI3d6zZLr9MGQ8SfIrkI3fE+IyHargErVlqKek7I2irLLZTVsz+T11+b6dgeAktl8IN2XcfCHkZt6rnql3TsFDTzq62Lw79/AkBnBsLq3U4+3jH/9GmleB46NjI3lGowTOXZFxxmqNWDjaOtSwPYY300apMKoU0if58AZood0BMapcmcCc/K6f0HyhXIyqT4W0PP9el0eD8Hgc7/ELz8J5emk/n5xeflm0dGeE09fZATTogcBEB8D/+GoCYdHcyPmThZGkCnQ3ChAjs6SetUwxlFC26sYbSnQE239cJHuBMsUlKx3z/5uCx8eoJXpt+JguFgcD+NO3WSo+4dJa2OOAL/ZjpoLbdg2QFLIev31pjriUPBFcublyLW/fWDd8k6hG5YXE9bP3hjZqW34dCi93tmwBx+90hpd/Z5UogTBLsOc7Mps6KOPOhYbLjGMjnWyOs96zWCxdaCIIfjoUBL6XVnZP3wmdWYWOfGlhUM4214/21ZPWmcAz9BRfuvjEYoxMOWEKeC5k9FDROuGdV52RCmdfYK+HQ9BdeV/tvWcmLBQIqRY1DLhHqGhnD61fiPYQYClipUqqYYl7F6hh+cQBkdmFPA+kTBaJXD4eWyLxaYnMzEVDA+0C7AWS5DkbmkxDS5+eZbpW3btk5wah2VOnKOnc20UhGyrnOdW87fgV5Wo/M2UqKPQTbYXtRRaQj6PR+6I4ao3HqA444By5AOB8Umh2SiXM96GP7qYmTFUJuErKBqFgoE0Ilm6ApO/AuIsXsNOlmuGTIEYmaGrjxGx45x8IASDkjbvWOdE40/WQUHmJlN6TOrQceu+zTcWOi13Vcf6FhGR21KkC1SppLsB9fD088+I9uqyqTPScdLye48qSmFFg3OuiKySpIQqmQ3aza0ZE8zxDdwsIMeDnu8FAe6SqwFqo4bwuntY4ZOQ3TExvf5BblYA4Uyb/I0eeS+EdJvwADn6FUbSCbCHkp0TXA8DgT6FNRruDYIkvmsLKOwGOLnu0Y+KAVJDSStbQvoTjjWzDKCuJ4F+yh6ptbONbT10s3p8BtlNnF2qQAsDQ+syWBmmNFUhKQDAgDa19yt22XFB/Pk+CsvlUyUadizYyeWU6GUlBYA4MQCJBUDcGNsFy6TLgj33nrbbY51qkAIjC+Cj2Dpi3BzFdQHuvXnJ1xYbZsFtKzn8xZA3v0oHph93JEAZighQcbKhbFgU9yeRjd5P9THZyWDFwugz/3B56P55rojU1WD8G4j6PI4NqyStnHJcildukbGjhyNVi/Z7n0KtILhZmt//hN//N9670GNTmAkefLLQffa96+8yLlo4gEXmXBO23vVCkvrchTa35yOnkxKx6uvlfYXocQ+4vo1WNA2tqpOyjqoYOhBjaGyFMFYuzqAGpzGqMdZgmqW34y631GTrvO3X2eFho+nlnSIfY+4d4RkDzrea3FgmB29Hwt6bEhNT4y6gN1nM7sBhmLPml/k4xuvRSNUZFwxtOGHaxzw81yCMyD2pSyHc9zcIAix9XngYWl29DHoo7PdhRrUKOsYBVkdGwY4EJPDcePfWocZBAn2+WlcNX4e+srYvAGpCnD0mdxG5rwz7Ry1dZY/9rDkr1vtZaCZ8JWluoJsjrfeWFxsH3pftZTTpr0KoNPaUcp0hPYzLa1tHW64sEkwvVObetKxXQFGJ719B4QcmXUC0XACWCmEfGKd8QPEwcmUnBQLxjGuH4v7aCEx0hyn4eIGNbITKemM/6fC+EWx+i2E2UtX/oK6HWlyHXtdtWnjgI7bN/6pPMTkUOPhOznV59gTqV1zugaCFcb1lKhNPd98FYxOz64AXwXOgeVgONUyAAAgAElEQVTiJB4N/VRUNPtTMVQFUSwEtbG4Tx5K4hoCXBTj2QCIYinWRKiuCI4OVIQkQItUjdP7vJXrpNfxp8oNaFS5fft2X5BaC7688fdhPe1FmNQFDVvpM3l7mZoqr9ZOLVBiooKXbaQhCt2TwX2g8+5O+36Il+PsDkGmjo+uf12rdl/xezrRxpmZMmf2bJn0/BTpeuwx0qJDNsoN5EkhQnVVZYVSCaATm57phMhxALxJ0J+UFiCcAyCUAoaCIZ8ypJNXASTVAAfGpKRjTaUCXEKIjPDV5tUrZdmcT2Xcw4+5sBXXBO9fD2wW+NkQmwU6Gr5TgESQoE7e7n+1k7rnGb4aP368zPriI+ly0lFSuAshHArRWdwQ89wAAnqG3BMB3jiW+Xv3uirQBDWVCF1SDsBsLcoV2LiT+7EBgFIB3pe3e69s/W6x9Dl+kHQ4qp/LuqTOZfOm9Y4xwaaRmvJ9svi9OTLizrulX/8BISZHnz9YzFTXg4LeIJuj8xjcO5bl57MTvK5YvkweGvuwbEOPsWbdukCPs8tplMhqlWHOvKrQDaFBAmPDQqO4Z3aYJwAi8InEvzl+ldgTEfvI6CRgX0HUjfmLB5D6cdpMZF+NkqOOPrpOlqdldXTd/lFsDsfrINAJAB36pBLQ3tOP6+8EvBbYOEcTeL+CHzV1Coj2YTOkH9pHej04xgGOGoqynM+vZVKsk9RTSXDjqgGwAMM6M1a9JPpehfYEX91zB4wNUpx9x27BmWseCWednNlM+v39Xul8xplOSKtC6TogxNfvWPZADbT3CL72hOJVbJJtPy2QD666xGk76nPkOnZ0D04j5H+gC9VQwN22nfS88wFJ7tQZGR57HZgMvoJsjo6ZUrZq7CzzpeDR9c3i2Pv3rs9jAac1LFYoqadeZXKsw1Bn4zYzqVkYQtYUWj7uYXRI/sFR3Bbo2PVj1wzHxQFo9vzC2sno2Fn+9Ow0SUZGBw1OLcz2AKAFber8LaDRearvXml0NiN0NQS1YdI6dsDJmx2mIShGZ+lqUO5YLNIQNxsNlgNHYDdh5aidwS7lreAAmsAQMiOnAusPsSwHZBtgnSchLLQQva4aQqtz9VVDpTVCb+rU7HrnuOlJVk/iThjssy92vdt5D4Jd/rtOHZ1XX5IjDiXQwT7AB+ajx1A0TqjUHkShY3YRRMblYGlg0p1eJwpgrZIhF7A3XLusdcLR5rrk85fDoC/dvEPa9+kvp59yquuJ5RwY17BbyF5BR/7Pc8DM+PHan9QNensp8R5LQa0OT+S1Hdj593xmnWt+5Vpw+JnhT1evwAv26mcz1MDrxcP5NEHPJXaU5niQUVCNVXAPaSFNXR+6P5hZNwmVhN+aiz5WF18oUQB9DQAC92zaCLYGHZ+gwYGaWOIaNZGk1ESUS8K4FZZKeXGZJKc2ckUW8wr2gA3D6MVGSCrel4oSA9Vol5CI8Z/78nTp0aodml1eCsYgzjl7/Wybdac/43Pofw4gY0+458YaUyAT1HVZW+mNEcEiwDnmdBZCRqOQFdnl5KOd42ZIlr2nuKarCWpTEqHXaeQK5FGH48YVbBRZk0ZNM5legd5QRa6GGAvoMZRVirWVlJwqeSigWI4Cih1RXDENYR3amm1bt3rlGDCn5chkzPn3fHl64tOu8jDZLLUbdr1r+FLvnfdvGXady3Bhem0qqtdQcMy/n4DeVy/OeV+6n3oCem55iRIEM5UQTdPq8ADH8LgrhInnduwi7INbg/hK+5eMUCRLNTC9vgrZdFEAu3zWn9+fK2ceeaxcc/VQFFtEJiOe1wIutbP6vAfTy4M78g/6N0EJF+qb554qe3AKcYvOmixqdtzR2/+F+b3eMn/FUzmV/W0vHyptzr1AylBorQEMub68k6h3mrMiuvqctTVMyoKwkBPbEqye84F8jdYLrGzrMSp6196n1eo/uGjRsyQ1XQ6/5U7pfpFXvtw9nwEA4RyLZQ10I5LBoLBz/ecfy+zhQ1w5cRZbUMbLjl1wOkMG20+nbtL/SOl28x0oKJbmxLf6GeE+NxQCgMNR8aENewRFrAQOIadCkbDzMt4d2FNyKMPFPx1bVkdPVZaVs89kgU4ZgPKKxx+R3T95XdxJEds1xE8OATldT/7FPDFyhbQ4/Eg5ccJTiIU3DjFzFlSF1loY4Fzf/FmQQKDD9PIrweikdeksCchQKUeRwBqIEFnmHpIKaQiDRr1CBe6WxisGR/UYhCvScJpnJeSyfIAIhDH2RaN+FIEO/ktAxs2iJcuwDuPlqiuvQnp5KydG1ntXR2YBvQId2+Hcsjl2z+g+sPNms65YR6c/NDrVMOLJpNixn3fl49S9c68UlkJUCsdV5qhG1rfCXnGl+eFQAOzIEDT0mUqe2h3ryb1MwAcGyAvnwTFw7/oOAQ/qQnu8BgXa3hgzvANBrmNUWbm5occQMnPFr57L91Si/xHXAseWbBkLKzKji841FsCsCI60GuFDsgfK6DmA62pYAYj5LQfQNUuSYGuaIxuqz+GHyYCjBoKxQs8yhBsIHmvZMJ9fdffuNRrli00s165di47fj0oBQG47ZBFVQ1CcntkIDV43yo6VyxHaK0RKdSOI1lOlIRia6n0sr4AaSniCxKR0sCEZshesQEFlsaS3yEABSvRIyisC6C8C/yfy/tQX5P6/3y19cX8Mj+g92QOHgtvgfOu6tU7UhqkVMKs9DdknfMN9y3W1ZNFitEUYI7lxDSQDBQTLy0u9VjWY4sLcAsdgZKCwJNPH96KBJQ+qHLtCANvYxAQ044xzGVfUtBRDpF4Mh8/10rxNlnP6C2d+KN0HnyixTdKRSk9hfwPZDWY6AqHgjQA5h2a1lWHXDPM0jHro8u1u8Ln1/u1+1X0T7rmDh2H9e645hu7emfWmjICkoXGfHqh5htAsnsH9DcAe1xH1kTRQBNusA+f2JgX5PMRwfWKPJ0KCQUE2q2RHQJu1B1ok1pvKRQPgqK25Mmn8BPS1y3ZrX8XgwcM5r3UQ6Fiv8Qd/z8X83fixsnDK0x669fmHYKghtCH9b5StcMACC4gtAxJbZUtXMBWJKENfiZMET/zehHuGxhays7FadeYWEYeMO501jS025aoP3pdvHrzb77vEEE0AmLnN5NZf6HOp2YlBqKj/HfdId5ywXBq57zDDNR8Nt0A1LMb7WzzteZk38h5XSMptYvOZddgbZ/YtN+EGwp0U2p55rnQaer1zTN5p1mQsBb53Bg/PbkGOBYg2PuzGyT+B63yRyXI9pNx1vTuyITvN9HK1cvwUUGZaqQhZqf8gK0Tg1xAhoL2rVsjqJx5FVeG1uE86v1qgY5e2H+xwk6NAiPfOz+yMbtlHIcwYB/ZEDWM40GfbIJAp4MuenkLhS78JpH4+55np5dToxLdvj9AhQSr61lCACpEumw/Ggqp22UgUqcMjRDMMQUNH58s6M/g92Y0KGHME9rDeK1z12WXokBzbIEGuvOIqaQWNETPqlIHSdR802LbOkV3zwWcOZxps1tXLL0xGxd4OEg1HzAaj2/ZCHL52kxSTok9PBXBMd6xVHBgsDnoxHLjLNMHKZCduspKlqClCcXV1GUTMYGeiIMoug0C7FCf65MbppGKQpcLCczFwHEloNeEBxPTGmc4JMGDL52SIgGwLQdTWnI3OjlDTxnBmagoAPa6ZtyPX0/VhDIsRSmiGAnx7cChqAd3UbhS1q2D2IRiHYlefCfOCv03EydkBK+wBAiTWq8nfvgsOeK+kIX25d4fOcsHFF6OvV39ca4+rfqvjbwEk7Q/XPatkv/febBk1ZoR0R6G4GGRfpUIjFgfwyzIP21FHqHDrBoBYiHixLsjelAP97QMoS8J4NoRjT0lphHUSgfHejTHBc4NF2ZODZAhoeEqguduDOXjwvvulWYvm+wFfzqnaNvu9BWgKcoLrxpYh0GfTa/CrZqlRQPzEhPHy2rw50ufPp4CJKsZ8xztGag/CcwQ6qXiWFKRZs9ZOEUAigQyBDucsBqxUPkTZZDQp1md9GXYiT8pMk1ZdOsrCV9+XeIC7pt07AyBmAjCjeef2rWCiyuW7l2bJPbfeIb37oAgf7JGGMet7bnv/asuCBwO7XxTgqc1UJszpNAFo1vyyWkY+PEY2osVJm769EG7b49s9riHq1yBcJ4MD+0HwykwzpwnkemUxQTJZWCuJCQhpAQDzMLYHc8psRvqgZW/PQaXrMQhfHePExrbIp113B0NX4azXH/QzOgYumG3od/LOxWfXcbiaVeV5E4+6rqvSMVoeAgcuavyX0XeAdL31ThhGAAF2sAWqt6DGgh0uTEXv6rSs06fglSwOX4tfniY/TngUhhl0uitSV+sw9x++Wh2BE5hhE8RCMHjmK28hTNLJnPrq74rMawYr0jJd85sxI3Evz7s4N7NxlPAKanNCgMsMGp+NgKL9lcOkHfRMFdhUvrcOOW3LUCjIoYBOWRyrYQplr/jGk85g1ez3ZN3cOa6UedbAY8BkXeLmjtWvebLXlxoh1QKoIFmzr2igtDqzzXhSZ8xCf7EQ/G16/x1ZA5qcYmQaBad18ZaM0yzx+1pQXFe/RKq4Asb0sBtvlT4Afkz/1PRTvU9r0NXJB9meIFDUv7VhLhUjN0QJ/4YAN1EABxTslgDwQLUriWBn4uBHkyCmjKHxo1CZNw7jSAYhCjV3CADLMK6k9h2TAY3L0p+XOaAz5IqrAXSyQnV0QkwcT4xw2MH548+CIMc+V7ALsgI7y+hMB9DpjUrHMah/sxz1bzai0GHDrBbSonMHSWzWyBlnMivsbM7iZ8z8YeNdN/dYDyVwbNVIC05Ddkl5fgWEqHlwaF4FbNZ1yoCjTkjNkDwwRDzxRifBEQCgROHUm4G2AKzCTABFFodOszF6AxVDA7R62VJkLSU5zQM1IE2btUR9GoCBNetkDwBnFYSw8QBRrdHMldWFCWYqEWbL3b7T1T7ZiVoubixwnymo4sx7YXZjLFpwxJNxAEhjWGIT+kjtXbdJWoFluW7YcFTgPQstHSCe9Zkdbw97xQMtKzYeIOCll6bKQIRf9gEsZfJ0DhDXAI6tYVm1FKJWTsHOrcgiAuDCaT8C4AYnG4lDhhVZqgZAP9SilGKcygF4Ad0Akgod0Fv2zXdy3BFHyfnom8ZsK13P6pCDBwb+22qaguH8oOhY97xliXQv8yv3LJmNWa+9IaP/+YS0/9MR0BFhIQMglkNnRIFuLIoBpiOTLAE6nTwARtaWqQQDSOdPQMQEDrIdfB6K3KlJIniKT0uSbGhfSrbslqWffi0djj9aWqLdRFlBMViffNmN0N/27xfJY2PGSgauHywPcCA3F465DtYFC9k7w+wGQ36RAN/jHxsrM//1iXT70wkOyHnjUu6ATALbuLCvnl8WpAzZhqz/4xoZ46BWjDAwiw3GEeggS41iZN4HQ9Ix+H71Z1/KUZ0OkRuuu97VLlJQqvdfy+zsL9v4vdz8QY1OYKS1q3glFvEbp5+IfkY5znBZNudAk+M1+aQWxA8HMbwDw9Lo6OOl87AbgPozELcGnQtDS+rUgpxwLA4/y3VSdymLYIHg+AohiFzw7NOy8o3pTmTs2g44yrwWQdTRgqhR47X8teYK+OG6h//tDukz/IZQplQ41sA+b8jx+M9VjCyUz++8VTahTgXTqbUicK1Txl2x8qyz0bV35bE+ypWJdETdoayTT5OKgjx3YvbYFg901jpp9qKJclkC6iiDnXMtDcy/3fT1l/L5LTfAeO1xl0mAU+j850vksOtvwlx4xfgcGPEFofY0ZNOhbTNRTXlXTY8zzBSAI7xRhbldATZw9/ff1I6Hmxr/WTgW+J8CHd5TCIK6NeMxOseNf1o6/Ok09FzyCj1aAOD+Bp9px8YLhTKu7o2xHWt9v46jvpdA57KrhkhUy6ZIvY6VeB+OFeFZypiRBEAdDwDdGHobRN/dKbgiEusZji4J2VeRdG7odh4JcOOViIdTQArykvk/4e/i5eorrpGWaCHA0JWe7FxYEc6e/aTCAdXgcwbv3QI7fUYFOlOmTJU3X5wi/Tq0liVI+V2NtPFmYChSWjXHeonBfRRJFdN6AW6i8QysFRKF5yAL52rVQKfTEM9XU13qNDv7ipFNhNN7DPp3VdUAWADEJKQ3QhfsLDi+fVhTONUCFDLUlIAuz0xNpjNk2Cod+5zPEgcHwUKF61evcSxBIv5NZpBVpOOTEA5BVeltq1ahuzdCQy3RkwnaLKZtV8H+ULtWjnFl/70SjD2BDLcQwa+r/wMQHwPHWwERObMdeTJ3n4/w4vrvf5IYtG6456675PTTT0eoBid1fx3pOqDTJduzZs1aeeDBe9Hxe5Nkt2kFFitK0tGeoQbOPwI2Kg3ZQhWlaKiLWipVFai3AvESW4GUgGmqwHpjElrJzh1SCQeaAFCwj1ojgnu2P8GYfP3Oh/LgXfdKLzAaXNs6p/UBHb0/DUFrSDNciLMOe2vWva4NfuV+pb1YgboyIx4ZLVujoTPrcwi0R9BmAUwSrMejrEA85oaMGetB8bBRhrGvxNols0fBchKL6qEnHOecQIhMJW0ee18RDM2f/rb0OfsUaX9Yb9mds91VGl885xM0iu0ql192hRP+eqnnnvjc2rfgwUR9QfBArGNhWZwgUNT977JHAd4ZcmX4avTTE6Vx70MkFc1NS/FszDIjiKZtIpBzzCLmJ39PHvYKsg4pRcB649piVWi2w6AmMwksM5NQCJR4ZCvZnSs7qEEa/4S0bdfeTV9QL1XLJP4xYOcg0LFeHN9rRgqN0Y9PTZD5SNV2FC8WZq1zqhUcqpNSmOEWmYtcexPqnU48YWFa7/7S+ephrmJyDRsd4pqhvj7MlPBPWur83LUIKHhighOjkVv57luyAtlVWxf+4DwkF54HcvZ/1QE7/kUdC+WzUaQoD736Oun3t9vq/HG4zJa6gIOFESlEjkSFzNXy0XVXS/7mdTD4XuuDkP6Gz++NghsVfTkj5Dtqnhqi0TG40813SRNkJFSgrwx1P/a9ynBZ8aF1kpq5YY0e2ZtqGPdZ55wiuRvWeGAQLy9zap9koYNvj8uHIAPtRPdzMlNuvDk4PsgKpvnapqKq2XHsD5wnWQECnTUvvyBb3pjhjYMJuekohEJ3YUJzzhgwJIGw4sCJU1E0sAeyf5D27Fc6DgJhXV9BcBpkefi+YCd21ehccdWVEo86Oo2QicSkUUZCyhCuqsQcVCKGHwUAROYhAaGcBmwDQSaBzpSZKgCNJQnI2EBGBx1sQzi2FBjEZd8vkMSaWBmKtZ6F0JWKkXUede6Cc6i/t0ZRDx6WidI9asNyXsHAyTJr2mRpC53Ev1bnSKtjDpemYHIq0cWc+pfqauhkYODLURckGZqDgsJ8jgxO86iYDEaGmVZkIqoqAS6wHuIA8IohMo0kY4WJYzG8KAhUG7eALgNOIB8pxxWoCJ2EU2w6BKsFCC8VYf02RjuBNAAdClsJUFiYjU5iJwSqFKzzuVMRHkoDg1MKHcfmVUjTZYG2tu1Rn4bhr0iEyvKdo40Bc8I6Lnm7ctEvaYvbSvFkhsCqpYA9ZI8mtingXuQOY7glDYwPU4E3LPhZEsFKPD3pGdex3QO4tdl7TrAMsPQuelY9/MhI6XdkT7QAQSgN2WZJuP9igDvuiuSWbdC3qanEUqzKkgn4UoTxLEbYh3VoqjCupXlomVPKdHTWh4Fui3WF4dh34yBUvTNP7gPQoViaLIgFIeG+5/w7QWs9Gjzd7xbs6x6wjLM9tCgbO/GJJ2TGZ7Olz/mnuP5dzDYii0oNDrOYEsBa1CDcVow1wpA6Q1WsjUZtTQ2AAdu+VLE5KQAO74PrnhXB47BnV3/6lbTqlC09TxmMUOVW2QeA9N2MmagefK/07t07JCzW+9Jnt+ywDVXZQ7BlsTT8q88cZOecHfOBFO0U53wD2lg8hG7xa5FB13FgPyemjuHBDCzuPoSiXYV37m1+BdNFkENATcaQLCXvkfV0KpCSzzITMQB2tCH0IdwLX0x5SR668y4ZdPwJdSqzB0Omf1T46iDQCeADq3PYi8Ux66yT3WndCQ4Ncqjrur2LKNjR0E0oDd2nYglaErNaS6s/nSEdTj9TmiDDiBU5QiBJUT4Fygb48mSw7rO5Lvyy9duvpBgnQxooB6L8mwpl7RBW+EAm5FwJiPy4m3sE94HeB5z23AzU1kFjNjYxxMLly2WJ+QyBDQ/U0YD4ot7tCPG9d9n5tbVz/PvRe+BH6b3p/YTYMbyJmQnJ7TtJx5tuk+Ts9mBEkHbqZ43pRrYnOxvysDUbLEikV2Ls+MtRI1ATabITIutwumviHitY8h2x9CwAnS7nXeiKKfLFZyRw0RfH1/3np0Zb/Q6z2Pi7KDjNMszJmldeki3vvelYHbYZoFOrC4C9cdefa2gvFMbCvHM8Mo86Tg695Q7oSTKlAQATT09Wi2ABjxvTALtjl7Q9NVqWJyRGhkYno21LaCzQrwYOKxpgtRopsWUUIlPsGovTOXzjbjT1jETn76ZxydIe4RieEneAIdnWAK0iwHjwefchwyYNQGDjkhWSLnFy7TXDpQW0aYzxB8EqmbhgSnA41so+SxDs6O+0js5zz02VF595Sso4/+1bS7PunVzRwHg4L5eJhLFkpkkZUoKjoC8qgfiaVb0bACzEgtWJQlxub+5OrBUwLhTcwimX4ETPUFUV9g8bgVbCKVDTQ/qeGVdVEBSTvm8G5gpdiuDISyDcLZV8NE10XbSh+4hDcTWuP1am3ZWDauVwFI1btELLgUYAV5Wybf06lJ+IkHRk2FHXwxYqJQV7HRNWCMG3c0j4HIIoiqKLmdYMTQ5BTlOIveGOXWsDOmzeWwrqBLGaL0Mv2xFG7NMiWyZPfS7EIFgAToHt2EfGyicIa5x13qmy9uclbi3T3tEcVIBdqoDQeB8AVwTsggvHtWkpuRBKV+CeGiFcR9NSXg6mpxQiXbSMqELDTzJOkQDJ38/5TC449Sy5+OJLXPhM2VBbXVyZUc6nOnHL4gQTDYLOU9dBcK3btHxPmAtm4803ZdTE8WA2wJwRuDDbCPo0rt9ohGiTsFa4LnORUMAjG2FhOYTHlQB1fH8DiHkpHdhHpoehHoDSOLCCzAbbu2mLFKOuTl90DMeRQHKhSypbtQbd0MdJY4wTRb+8x1CavF8vSYGOPrsFeMGyC/YwwGt5tsCTG+hXfW6Oi9orsknjHnlEXv/yU+kymE2TUU6B2W842ZSXIQvNsdKsrVMD5gn94DBWhWBqStACg8UUo7HG0xC25RGe7+MrHj/jQTUG63DZp/Okb6v2csftt4MBxHr3wWrwcHZQjGwt2h/4vTpzThBpvM/vvE3WfPCOi2EGa8HUd5uW0VDnDrvqWB46MgqS0+DcM7p1lyaH9pQMfJ+IJnMxSPnjAqkAci5G4ak8iFl3Iba/B//lrl7uDBwlJa4aLSNkdKS8ro8cbHitjp7I3KgDaAQYyCrIRhG0wU8+47QKwTCRZ3S8DRT83jlMhpUwRus+Q8bVsCtdlghZlBDKMmCLf183sOZxPC7lHQY5Y8BA6XjdjdA7oAkqqV1fJBna+L6mw4ar1EkGWQAX/8e1d6DHzewhFzrQEo7v4t9RJMpHSW/VRpr0PlyyjjlWstBvKwGF0WqBjido9ITIzNDxx50TAYNYDIO4Gd2O17//luQu/BGfB6YuFEr0ruIcizMR+0UYQ5/jYU+ACjieTjfdATB8mjOyQRbLpqMGw3QqTNbPdOMeAp51NRnaAoKMTiMUUUsC0GElV5yjcUpl81TUNkK37xXLV8ouGDw2PUxDdg7j+wUIA3ZG08LmABNrS/ZKMdiFajpEGk844u2r1krbRPS6QpVrdqh26bw+GFOAY4GO1aUFQVt94nj7bHyWSgDX59DU8/FHx0oUwEXLI3p5GTeupxFpdpxccTrfuWwVQiwomgaAwY3TgCE06GGatstGanyS5KLOSANknSWxtQVYlUJWDEZIKQIndmq96az2IXSRlIaCeXiVA0wwzNESf89w088ff+50TdmoWUWWZQOATS4K7nU74WgAxkjZsWGdC1+lwPFVYUyYxVICR8q0Xd4ncXgUPp8tF8pwjzuh0WGYL4Gd5OFgNvy4SCLxmR3RQywWDjYHgteN27ZIRrs2aCbcFplWuZLepLFbb8yUKUF4Zse/F8qDd9wtJ550Ukj7ok5yNcJmD6CYXkJGivTu2R3s0krZsmEDxOgAr1jvS9DPKCI2WbqiSScZjw3QnOTBPnU/+kjolVpRdo0+ScnkwTB2O6QMzxFdw2xSMIPQSX37zhyZOPZx6Y9CpVo4UjVv3FeqeVP7o3ocXR8hxlszVA3rrevcllVQEGeZIj2kcJ39AgZ6NOrKLNmwWhplIx2fbCkctbOBYLJomah5YmgnPwdNOnfsduJjZmGxWW9UEiprN0PFYDY3BdPJFHQWD6wEyCfYWT33X9Jp0JGSdWh3+XHmO3Ia7MnQoUMdQNXCscoMa2sP++xWbG0ZHZtRpnskCOwsgOXvFPAwnT0JvuW9t9+WcVOflaQu7VwFcN4PNTrMxI0mW4fHJyPIgqHr0JdrH0B2WxxUElAza8uOrbIVe6MturYT8JAh5ZpkQUSWpdgH9msvmvlOnvS0ZJvwVRDoHGR06kMNv/PPlc3gx/L7ncuWyPt/OQ+bwAt5WKd9oO9DDk5pICPEoBNhfYcGTCPFAoxFca0obK5I0KFcrIzJVyEbhGGcEvzH9zbkacIPvziA4z6gFuSEFrkPqJxjVebGMgt+KC0VNPmpoBtTWmaFxIH2ZKDPHw7s2A32EwqMfTn6AZdx5WrV0LnWM2f8nc26ItBxzTyRcdXh6uEuJOJAou8UFehYgBOkcIPOnroGxprfPP9M2bViiXet+u7Hb1jGLDS+EhBOSALjlprdAUC0g6RAkJmEUzYba7JpJwFqGQ44c/cAACAASURBVHQSrLOUt3GD7EIxrj1LF8velcsQ79/j6VBc/J1gq+6nWpbNDpJPrHkACustBixOt3tGSCo6PNdQuM62BH7/nqAQsVbk5zFxVqxbXzhL38N5denlADqZ7cEuwFlVIGTT0PWNwokcDviXxStB3e+Ts888GxWOsyUeJ8BS3NMyPPdc9ERKoxCzZzdZh/RtduMqA0NCzcLu9ZukU3JjuXbIUGmBvjilOBHaDEMburJhCCta1BPqgba/ZR65R6ZMniKjHx4tzZBeno6QmavtA/AQCaH1TtQMKlqNmjC7kHGida38xcrMsRTUBMlo2RyaE6wfZBal4+QejeJ3O2HsKxHCik5mdhETpcHsonheQhoKp2FfMUW8Bo49AuGxHYuWojN3Fznn7HNc13a+dmzbJrM//EA+Q++8xM7tXe+wBPyXCJ1DIQSrvJeGGOs9rOQMZ1MOp8H7ZlgrGjqeQqw3Oh7q0rZ895P079pDzj/nXGmDRorMgNkBvd6//jVPpr89SzJ64MDUoglO6jEAYOWu2jX/bsUX30qv9ObyLIAgtTpcR3SCfO533npbHoJu5fQLzkXRR7B0GzdJIWxPaWWpLF20XLp16S4XXnChNMNBjBmRO1Bj5qO5H8n3qJ3V8pCuAHwZ0gihssT0ZNkKZ0jWye1zrKGtv6yV9Mg4GTP6YWmBsBWBTrCtiq0ybtcIGQjVp9jQtK4HtUHBdW5/7+yz7/Briw3WyFMTJ8oL6InWvkt7hOfwHqyRBmxkC+OUghTzRDS43Tj/ZxwwVyP87afCO4odM8MEVYDgTKyxNv16ISsS2XvkvxAqpAB9yXtzXTPPzsccJd9Nf12eHPOoHN6/v3vuOmywX8JChdn1ZVVpTZpgmM6G6GzoSp/Zs99e4Ul+Nu3gdqzFh0Y9JCsLc6UDOrTvRYo47Qu1OjzxMcOYVaOXffIvaZ/SWC4873zJRkYmtV/MBPzuu+/k7Q9mS2qXDrCLzQDePH9FxjYOIevFb82W+5FddtLgwaEKyXqIUX+oNagOtK//F787GLoKjKpWJVUdCdM7vxp5n6x5+3WnleGCsCGq+py6vax1/o7JcCd8nxngYqTYmMaXv9M/xHuc32QIxGcEggii7nVrWQMNibjF5f7nXVkFwXEo/nTCk89KVj+vSmcw1quLMtyCUwPDjVYONP/16AdlyWvTHaOjqv3aytEKevQevDtym5FAjKALG74NMq6y/3wxgB3j5bWd2IOnG0thhwvfsCYKM0B+nPSk/DhxXJ3brxtC8jRUIfDBwmy4H9f8EWmzFJeSCYhFCnJDtDSIxKmHDtwZFzAu1POw3D07//KEz3myILSW0fNpLQc+64Y2eQf+rLivyiC2uuAv0hqhND4HX/XpkrRWBccwKDK1QDQcI6JhSRYMvAp1dBojSykZjE454vdRKBIXj2fdsi5Htm/a5do49KK+wPWL2ufCD/zs2R98IK+9OkOaN28iiQif7KhESIhF3eA8d8DBtYtPleGXXyUtkXXlwgMmy8pqc6yoUtdduIarBzJ+GrqaMnmyjB3/GEKxqFAL8MDMpCatm7vBX/LhZ1JJ/Qm1VA5d8sTrsXWuOCSEpRnNm0p230Oc2Do+DqnbmN8qtLvYF4Vq10UQK+P98SlQMiFcF4HaQTGJCOdA+BsX5+kzToYG78577oEQGb2ezIu9vh564H6Zs+B7adG/Jyh/VGcGSMnbvltKISSuwpgTDCoAIUxmlWZqf2KhhcgFONv842Lp27KtPDx2rGQi5GpftFkvIDQ1bsok6XrGia7z9A5oRBiOS4IQeuf6jZKwJU9mTH/FhRWUzeF6f3zcOHn1rdfknAvPAbCukj3bdjumcjlSyttCizTyoVEAOU1c7RuKb/m3+RiXxx99VH5cukiagUlqhuaPDTFmDHEUoNUDs7LiEOr65oNP5IqLL5dLLrnErVHbxsD27eIaVhAfBMHh1oezH2SUnY30CjAGM/IUBFudDuc5HgeW92e/L4+MeQj3CBaHoA9AuAqMZCmQThbAWzkc98rPv5QaMHXMlFX2meuG51bH7mB/djr3ZGnStZ3rgVUOUXMN/r4QIuQtyLJKb9NaYqDvGvvQaMlEqJdjp2CL4SItVeEOc74WKZw43+oOg6AuyOjovrEhatUZlvvPPn7sIzL9kw/lkFNPcvoaPgdF7S48hWdd+flX0qImBn3qbpWefdgbESU2/INgKZ7hzZkzZfobr0t853ZO1OyAC8aFVZJXf/WN9GvdQe647Y79sq90bx8EOgeyZL/j73gyDG0OLkg2pVuzRj4bdplrXKdsilv8zlk5yBJy4Pze04HsH67Rx6g963seUJ1gHaCjb3bX8eBUrQOt/V5TlRlhsuyAfb/3d96nkDU6csQj0umMs8CgIKPHxXhrC4nZ04FurGBYywmk8TdFOE1+dvuNsvn7b52OhD8PhqhqP9nVOXOGQtko0juR2GTtb7hVWpxwMrI68hyYVCbHhjkOxOQ4w+2DwdxffgEDdz5SWyE0pSEkmFJWzcyY5VsUrOqpyb2fhQ8dAK0N//BZtP+Zl6jFJnmeCNStBM6BP9Z2zsLOq79q1ABw7GIgRO3y9/skBaFMNpNkvRUXqvJrBnEMdEw0q8GG7qwD0OVjaX2blRVidKjRyW6FeihMC8X9Q2gZCf3BL0tWS9/DjpAb//pX2YqToAcMvafjZ6fACY8f/7gs+OF7GYhCaauQelyOkE4cwls50CVkxaXINVcMgRgZTUkBOHhCd0UHAZRs2Cp4/9aYB7UHug6tIVdn54WupsjEF6ZI9sAjXIYTdq/LhirJzZctX/zgmuuSrqcuhdfgPbFjd4sWLaUDmo+WgcJfuX29tMQptqKwyDF3caDt90UClCCDq5KMG5jXaoivI1D9Nx6neWYVsaljWlG1PPLACDm0dy/odMrcsyqbQGFnHqpl//m8c2Vf11aOBchAzZkaFJ4rB2DaUQ7AXIO2G+wvhIwn0FCShlAhwwkUh+5B+GrTx1+BfXlHOqNTNkGH3ZvMnCqEZmbotdfIlgZVkgWWbT1CjlyfiSjAyXBqzYbtMuL2u+TIo450rE4MTuPboLsaOfIBWbF6sfTu2w16MAL+WNm4dRfqxxTK7bfcIscedxzaXuxwTtp1uWZKMeawAGDnnnvuluJ9JdK9OypRs8gnD2sIzyVCx1OCXmHff/atPHj/A9Knb1/3dzoetlxCfaEaC+QtmxG0RQdKnLAaHWU2aFvWr18vD4P5W7psETpxN4Mjx17HfReXAKjHgmGHYYrCHBZhD7IOETOQKuEXCE74eWRBCIKaHdFbOg1GqBvJFBUO6IB5x5gveuVdKUC491IwYX8GK8J9q9lmtuCoghyGey3A0/B0kMWx+9sCPZUXhFyGb+8syGP4iqnxH+GAMg4Zu7HITGyEDDtaY1ZJ5tor2psPVuYDGY6s1DPOPw+hSK2342l9+N44aNruvOVm2Ygwd5OuHV25BNpAjkk+6j7J2s3y7FPPoKVIEzdWClRrRdaer/m9XwcZncCIE9goneo2t08xrpw1UxY/PtoxLK5ppUP3+wMQ69gdtCCQCdA+7gTv/739lU+OBsIedZkaBxN8wOA5SQ88WMdtcI3nhH0HxQXZA2ncnf98kevLpM0EdTHamgzW4QRpYj4/TyG7Vq6UOUMvR2+qrc6ohhyQj9xqmS/KKwkAPe+u90RNTzQq/3bAPTXq3RcsSVEow0g3flC0Gi7zyH2urxl67/KLALy+cZoqBX4hA8Bx9wGGgtRasFq7ELx5s/DQ+50HYH1EGTImzvy437t5xUx4jJZfrt+f59D8mPkKASymhcOhtQazlXXaWe6EyPCXirAtQLBAJzgWwTnTJwp3EtQWEFf7jE5CZobTFiXhZJsLHcamNRtk+LDrpBu0Gaqx0TGg0WuMzsbvvveuzEHrkR69eqAyMosK4qQLvc6yxUslPT7dtYBoBbaHDoKgQoGagla73vgsFsiEC0mokNEadv0bOhBmXU2ZCXH9Yd2hVclzKbFkGfcAiOR8v8QVcmuBjtRZ0B20RMi2Oej3pgjJkOVo3bqNLFq0QJ5F8ctmh3SCKBnaIwA8dnRv6FKmoTtBhhEWvhSDvWJ6Qg0wSWKTNFn1xXdydr9j5e6773ZCzmDdIwKERACka6++Wn4GqElBeCkRzjUNvmMnWLRcSFcZ0iqHiD26IdL8UQMnDgLgGvQcK8B9FKGgXUZBubz11rv7FY/U56etmj5jhjz1ygvSE5mG65eimjEYBup1mL1VjjYFN158pZxz3nmuBQHX0S84FIx48D587h5p26YFmllWSYs27eSH+UskFffwMIrMcV8zU0qLZ3Lu+e+mYClGjHhQVq5eKoegQCMrOLN9Rgx0QxS5Llq4BMxgktx4402OgSIQUset4JaCZYZlw7E4tjaOFdxacx1kNCz4C+15MvD+f9rKhdd+etIkmfryFGnbpQ3S6SAy577E2O/ZkS+nHDNIzka7j1yAU2Zf5SFDae/eXPyXh+9zZQ+y7faCHYSoQJofc5g0AmtZhbAtdT0sLLj0tQ9k74YceQwi5M5dujqm2NpQK7i2hxcVYB+IxQn3/OEYXAvyVKPEA9xegPcRI0bIiqK9kj3gMADSfMccJkFztGnxcqnZuE2GX3aldOrSRQoh4HcZx34IjGuMVbRnvvaqzEEoNrkrsgTBXhLcuRAbgO4qhO6mAOi0atPW2V8bevOe+yDQ+b1BXtjPI9BRuk9PMRXc3DjBLHh4pGydN9cV0bKtDpSR+bUHqGVuat2rBSj2Oi6sQ+cd5qKh9+E9oQwe830dBkG9Pb52HH6TZJ+BIog+7auZPDYWbqli63ys01RGZ+v8H+VdZFyFnJI6fwMoPFBjAI6jsLzQEbUxyZ0PkQ5/vQXaGGgqKNTGhqEBtKccvb8gja2OV++H3dM/u+V6d92gNqcu52bYMf8XHoaxITYPpCqCMd96VLYPbPT5PLDpo1ofwShzVRfoKpz17wFGohppyBlgTzpcd5PEQO9gmTY98SoTYkFCuPCdA1y+Ydf503GyhdpIIW/atFmuHoqifr17QKOS6U76GThdbli5Qrav3yy3/O1WaQZmgQyIsn68Fq/D3kjzPp8nH6GHTuvWLVFVNsVVWY1BttLCBUuQwRWNyshDpC1Es66wHa6rYCdYOTUcc1gf6FHG0T4Tn4WMDoHO1NenSxa0KpU4hbPScT6cVURxpZx7wumSiX5QjZCRRBaHGTh0vky7ZfuD9RDgroHjr0BKffM+h0o+UrprwApWQiOT6IT2EPeCHcEDynakekeAESksL0SNnkayFmzROf2Pk5tvRZkGc5rW8aeDTU1NkTuRkfJv1M1JaIl+SMhSSgVjU8i6MuzFhTVfBCdKpxgXlw4bA81eBCoe5+6Wom27pGtaY5k4YaLXtsLfvzrX/By2nPnoww/lARQQ7XjKMUj3LnTr0ZtznMhzdsnVZ54vl/zlLw6oxEGTsnLFShk56gHIz8ukNQSmxfh5C2ixvkOYLANAa/ToMY6J0erg2iKFafONcECZgEaZK9cuB8uU7TK0YljwEePEjKq5n3wt5557oZx22mmhujEKcLim6ysxEKwPEzpM2oOlHhL9cdA1EWR7LNjRe+ecM3w1d84cNLscherOmBuUFxCEEyPB/u3dlS/tU5vLsf36SSrS9xtDM9cY2XH8G65jhnKKAH7Q6kteee8d2YiaPPFY+6xxRFYjDunYC19+D01vU+RuhDGZ6k+QqHuVX4NhXK0FFq5YrN0HNjync6/7QJlNqzFVO6BAhwCX6348BPtvf/uldIJAnsUuWQIhA8B19y/rJTm/RK688GIHVGxFc70W9/CnH8+Vd7783NXkYYkDVo9uhINPAvbbl1NflqfGTZD2HTo4v2CZOT77wdDVr6GE3+n3CnS07oKK5yqAZpluvvD+O6UI2VBOpU9mx3fk7hSvzIp/aveYm5Dtc86xto6K5ynDMTIhxkMZI/yhC035n+V+bBCQuy5+5tK4fQ/svdd/ExZYmyHXIpPnVCd+5MstOtNGIZzQVZ2bfrUhA2661RCkfnjdVZ4+x42FF75xY6Lz5X/jssT4DvybRqLGz7jKHIiuv8y4YuYDfs/iVDzlBUMcQeGtdXicBz7LRzddJ+s+/rB2wP0x8Io41oKTkAH077MOIDEMjM6NXXrKwtiCf4p6FPzYebbv9+a+Fs5Sj0SQE9csSzrc/HdJRbkBFrMj86anPoI+Zt1wPIIaJT0h64mX96l1Z6yDCG4dNZ4sGHjtX6+T+DbNpUmbNgCaEO8ifLN57WqwOtvkLxdeKgMGDHCMDo2wvui4G6FI2muI18/7ZI6ccOxRCOegoGAVejWx78/8pZKSkC5DhlzlRKh8WUYnWPfIrq9wTE7w/u2/FbzRkb08/SUwMpP/r70rgbOxev9PljAYsu+yF2WJQvwsla0SWkTJlkjKUtpDIdFfiaSSiopEpUhlp4gsZV/CIOvYDYYZy/y/z3nvuXPumfcuM13MmOf28Yl73+Wc73OW73lWurnGzZTAieCUmSoOflQXqEe3PgrTf/7ZAmITBZL3L0XDAZhP7LzYn0aSOJ47JWtWoRI1quO+CyghAUMO+yZxIUOcbjOgltU5mJViQKrO4PtYFLrMd30h2v33BqpWoAT1eLI75cHCb/q9cVt5w+Cim107dqADcFTNUYJDsjnCDZoEaHXY/ysLInouwPmZ25MRDrwZ4PvDYb+x8AWLg9NyNmgavvzqK9UH25TD38UhbH7S11/T1EWzqFC1m5QzOQc1qAhN1kzv2ks9HulIrR64H+9A7h/4AG3Z8g/y5wyBQiOWbrrpBuTugZ8Q+vgXapVlgwmnT88+ykTJxMgnVBuYFixYWCUj3HN4D5xtq1EmDgJA5BFHqh5FH/5ev52e6/siVa5cWWmQ9Hj2R3LsA1ZyxoGdI0rfaxJ7fXhVjrn48NgfOuwtWv7Xn1QS0WpxGN7ZiuZH0EEOOH2vp1OIuIpA1BqbD9msEwHHcPa94kSQ/KcsnMHnr15Bx3LDdJMF8xjas2szZ1VmoKWffEOt726OrNT3e02Y9ny2zdCBoqr0XA7ku6a1nXr+cx9N0xX3n8chZ6aeP2cOvf/ZOKLiBSgC9cxOgahEIlLx/HFEUG3eTp2g8a8Kvzye93q88bN43ueCE/3Yjz6iv/bspPw3Ids4/s3ReLngC3YckcIbp8+hMaNGK62pQ2zgA+RxRxCNTqCV7DL/ZhId00uenbm4mN8BRBusHTwAIao41UGQ3snEpgpFXByTlmPG4P2VnYB5o01MIug1WShG4DAhZ/tLakhxu9b8Tt/js/HzY9kUwCm8wcBLPvEMFfpfA7zA0Vbp04UahJxdFRupecrQ6kZ9HTfTzLGjJhGes3LsB7R0+FBFdHSNKy0u7pbyH1Icw+yXJ9kiVwGGBqE4HG/Ld+kOmzcnH0skOKZjnq3KTWKKQT85b86MLu1p9xI4EWpZKEw9H4O1aBMUm6fUpu+5REkN33GbHQrrfEzCo65VwtImRUNDw1o1zwLj3Gg2wHoWpytgdT8cnkt370X5UdSUNVoO1k6xV45q0BmETROeP9W22+bA/XM7CfLJ6iAWplf796OdJw5SqZtuhkMi165hM9oZqLE3UPE8Ban/gAHKT0Ev1DwnuC0s73fho3MGIact72lCe6ASj4VJB6s9/YYon0rlK1H37iBRILA8njTRsXMfuWkN7VwbdoJAQzRecymP699++416gew2b1wLUYtnVFbYc/ChiYG/xc6dKO2ANvPiHYu8VEwMzrMTq8cZlCt3ZkHW29KN6lLugiiJgQKmmeGkegGbdgKydSfgxK7ypmAjPA+5HEOxSvbFyQcHZs4DvPfPldS9XUdq2KiRKnioT+esoYmED8e6detoGNLwZ6tUnkpWBKkASeJNkUtMcO0hDuvlQ5GTnRamDk5QqPI0IVgAbdy98E967ume1AApEJh4aB8gxoIx5Xf2felFynZTWaSqQHFKNrFxORU87ww2sgzw0Xmz3+tUpVpVZUpkU9qhQ4dhXnmbtu7YTPXvrIvCX0j6iBDrqL17QHY20QP3t6YHYeraDxOeQ0Y5goe1U7lBkrbQ6NGjKH/xvNDolMU7YMiBzxHLbt22XZQLCQa7Ir0Am62YXPjTTJprje2TYpoq7ehP7rftm8LfmePdOXw53/HHLO3Ch6kPx3xAYyd8SkURfZUJ1cvzgPBfV6IobZ61hLYtXKb8B3mdY00OVgWljeAIJA7J5hpwRereQgWrVoByn/uHyC0u/4Ex9ffEH6kfSN6NlW5S5ED73JjmeG2msqOq7DnsL72CWz4a26Sr++34Gjrla7g9pzAHBsI5/o+dW6lCwzqKnLIWPBci6DbA9NQKprs27do54wcflj3fpw47kG/fXr0oK8ZxEURfcd/ZXMslSLatQuoDaA6HDRmiNDw6kswkOqLRMVevK/h3dkbWA0NPDG2fdsgO0f4/l9Fm+OucQ1gtn8pVWLVHe+LdWL19ME7w3n1Pb/yJOZS92gBDA2TDoDdZj0uKxwcl6W7KeWg4f0wEUtWX6vo0XYdcPbyJ6pO893ThJxJGD0ytatbt0BOH7z+DBfr3QQNo8w/fqjwSyq/J2Nu1D5Kz0njIgudBWtvEOLOmqVwb1J6CqYEniz9NjsZXay+0ilYRPI/P1K7fF9HcZ7qqysRmxmhT0+IrHw9J0Spwr3ychprIJv5d0zalv/KWt/BqsHyE5iDiJVaeZypNDi/+OF1d/3h3KtgQkTIcscRaOXY+9qj2bWds27FPtZGJmSfyhP9tOhw7i5TTMt+0CU7WZt4wxyJS6ctvJ1GDFi1gukA9J/gdcA7p48j/sh1kp2njZtQFviUse17wuXQBb8DvwmyxesWf9FCzxrC8YNNEVuA4vIqJxVzkkml2VxPq8sQT6jTPZhLTt8j2zVFDxDDH2OPeNmOZ1+q5yv35FxmCH2jVnJpVLw//EFQMR3tOZUBVcPx/7Zoo2r7tABZljp5LdMBn+fDYZZwKIpKkcI3KmOOIJIGzcF6c4C9gUzgPE1YGhBmfRb+5+nkCtDIqoSK0o2ySy10kP/371xq6Zm80nLd70221a6lKz6w95XT5mzZtosED+lM8NAZ5y5dRuWeyIU8OJx3cDcdYriXEcmONgMqAjvawOYAneA6YCPn/R//dQwlR+6hn7z5Uv0FDtTFxP5hA7kPG5aHYXNbt20XX170N5BI5fridSmN0no4jkV3kgRMqvDyzNhuBrHGiu5HIFDwV8u/UqQ0S48FHDpqJUziALFu7nqIPHaOnUL+o4R13qKgwxjoS/dkRhZIRKNCZGVmxb61bTR3U4qENikPpgOwgwT8v/IPuf+hRatasmRpn2seMD1NaM6nN0f4OMab2WI9ze5zYJjz7OnPdMtd0NSbhR/TLT3DMRYRmttJFqADMb5wdmzWTp5BQMurXxXQa8uQ5qircK3Mwz084tINE50C0YdUH70Ym67zwc0G0KP7jKue712yijLsPgwz0gUNuAYWZ1t6YfdcmHXMsJjnAeTX6iTmw9Fw3r7Xnjomd6V/D45y1Opz/ZjQXOJ0/m0rVq+Vo2sGs88CBOBqlSvYuXkEd2z5C9yGNgUqFgrGWFQcWdkB/a+DrtA2FW0vVraUirbT/ERPANYiya1zjNnq8cxfly6PXMdMkx4lur8RHnJEt1E2NjlZ3aic2niCqijUG9QFEm2weMZTijx5yEsR5Io4SH+e+TfoTstoSXTQA3snq2STN+zWx0N8pLQ4mB1dNv65WXSrZ5jGE/pZGHg4nI6d2btX5KrS/hxnRZNvIkywevCHhPcd2/0sLnutJB9asUtFBjknMphGO1sMkQPp5ytyERaQ8kuOVbHwP0sejphAmk14M3E465uQ280iojVyl6b9Ie5Yvoz8GvIKNeif8GZDnwZnGXoft0Iiog2iyJOhm5zKE5SVbHnPVtaheXfLxJ5EFuQESs3FoF+c18a3h5ZYR1j716sXfbTNw828w1dks6yWLF1OPXj2o7t0gW1xuANqczCiFkAcbaAw0GauRoK5A/sJUp04d5Zexf/8++n3xbyqSp0GtGghBhhMrNsZjnBSQT3UgG1Gw9Xfu9Dg1aNDAh+iYamy3fpgbE//dVNXbm5rpl6GDB/ik2ve5PhS/P4pqlC9OxzEPTqEQKee5Pga1/F6EWO/+N9rRkih9K0gONjFefIshxD5PmeKUAPLBIcdxKHeRDfLIAiUOjyIeR+cg47MY/2y2Og+1X1aQFQ5FzgyiXwxRW1Go93N07Wa6reotdBNMNux3s27tWlq+ahVlRa6icvVvB4GJoaOIdspTEKUe0ISDwFOVfODxD2dnJiJxIP2noUHKg5wu12EjPYYIHvaLiYE5MQERUVUr3qRC/nl8cJ2qZcv+oFj4+eQGUePQuZzYZFibxQkLYxE9duKfKKoHDdvLICexaC9r2XiDzQt/pRkzfkL03P9R7eqVKDt8rHitQIfoLPq0aetO+GtFUUWYVGvcdpsirBvXb6DlK1ZAk5WPqsOZNSO01eeAexzMf6yVjUf+npXrt1HPPn2pWtWqSv5MxmwfM73Ba6Kjx2+g/DD2b3q8uH1vjxeT6PDBlX8/gKjRt958kzacOkSVW96FzNXQ3PHBCQTxxM592PD/pjPIQH0NRxapEYBfoMmJhON26Qa16bpihWGqRBkPaP0OIb8QR7SunTaL2jZuTvfd10Jpujlowy2qSvffPkza+4NJWvjvtpnXjeSYc0OvDyrpKf6wPLicxVLM+3eh0bpQDBXXKyAjPVJmcEkinhfHYNbbv3I1lS5clGqhLA+bL3cjQGHJH0soBqkLytSpibWCHclR2BNjlc3YHIQx76PxNASEvjrIjnaF0P5Hur9CdK4EzXN5pyY6ijB4VH5ep2TOt6Hs/nzuRVr89eto20fv48J+qgAAIABJREFUU8xWsHgsOrybJppNHJOVOgXwRuxst2pAeE1Pnt1PEwEfPY8ygzincbU54a+OWcTZgdUvnpAudZ3K8QI1KRajIjhNFWpwF2XhnBns4MsnWENTYPrj8GKpNTzm6cqeQHrTYULB/kn70fc5iLg6AwdKNbGUgcoxU3kdMj1kwcf2ozQcTExQSK9wCar0witUuDomDjYlvSAGIjn2AuYjJ1YzA6BDW/+h9eM+pN3w11ELiS4p4cFRaZg8TMb0KXLk4nFI9pi1TMJj3qP66pGf4jj6PqP/ut8OieXxgI0VpCAHEhJej2R6eW6uokgOa7/YbGcST9vpWBMD+9SnFzXbtOhv8VeaGc+ix31js8SQIW/Stj3b6db6tVBeBJWK4R+SC5mAI7Jnpb379tL2HTuxQWKB5FpAcMQvwIkCyyCxIjZUJtWcZfsQ7ruIBXTegsVU8YbK1BuaB94YzVO8qcLWC7a/hd0OhffWoINpwDTT2oEDi2C+euX5PtS+UQ1VVT0OJ/CzIOGnYZbJiKiak/BD2osyBVzagXMDZYNG5jo4m2bNn5sywnSFb8Gw2HyEkzicdhLgd8KV23lcZY3MjdDwXBQNU1MMqnhnQQFT1mwqzWRFJ3Pw7o1bEK0FTQBMQDwuuAxC3lIlkZQRmZKx6cWhlMA++MtA8FQQDsDczxiEwnMNJY4UZKdWJr2sQclfuBA0D9npMPsSwUeI+30K5qbzCHXPCBw4gWMObLRxXKsJp+tMnH2Xi9SivZzfiQsAxyA0PGH7Hho8cBCVB2HhccFmG8afZXMcmqNhKA2wee0yuu/O2iCEx+gCtF7ZEHKfEJELWbFP0qHdeD+b11g7A01QyQplqFjp61X9rovIpZUBCQZjYMLMCYfen+GEXAVZxjt26qxMXEymTS2t7Z9lEt5AW4C/fFB8j5sWU+fW0XnR+DrtkMwHV8dfJSuNh5br46lfq7poOeCvwukIziG30WmkJDiDcOvT0UfxhyuZ43pobPKULk7ZCiDBK4ggh1BzxmEmOuzvdRAE/+Tabaht1V9FLfHHNNnaLgF6LptaWbd8QPwc23RnmnNNMmRrevT+oec8711MdlirPAhm66WoA1jjvqa0d/sOtX9UuaU65S9WlP7dEUU7UA4k9iAn2ISJF/3NjMgszuidHdGMXJLEcXI+R2VQR+3vmbMpG3y/XkQOnfzIq8R7jtbi6gO247OTWMcwkLzD/ZtodCxEzYSBNtnRJMebwhybWsyef2nnlEm0f/ZMtcBwsjlmNWrrZ0Kidk+db8fReQQyiWj+oswYijg4BMn5JLqyehPeadMNBl1uEIbiD7Wl3GXLKy0La5lM9aEmOHrCmYuOerrH/GZvpnqyKOLHRAcb2s5FC2hWt45qQJsVyxP7l1Q9pSiE0gg5fgj5b7mVqryIBGslrkfkBzYSbIx2DglzIUw0vTmlKbR87El8Af04eeggTIxLKQo2+Nh9/zppATjknAmsIpzOxySZKguQgtrJheT5a1Ii57lf+/HY8tTETxEqD8FJwOLKtYjyN2hCJVu3oeyFiqi28MTnPCuaEOiIJNN8qDHQ/dcbvW22MmXodtIztTk6UR7f88eSxfRKv9eo2u03Uz5EoFzglPHYOCORJp6Tpp7CZsZZj3NwfheuB4QFH566qtYRO/ueOoWcNTjprcJJPvrQKerVszecmG9XBwImO9ofwU5foMeZaZoyp6Punz8fHfsgwhvYcZCGQYMG0e7Nf1GjGvAdAVm5yMkDwV8ywMk3HoW7jkDbcQ0n/mP5wC2KHUljMa4jECp+6iKcl3GM4WR72a6BLwaKGJ6G/wmfzCPhaHwOk/oo14KC9oNT3iTghM/J1rJhg8wFJ1XWbHItOjZdcY0qTjiXGf/PA2fPrFwfC+3Z8c9WVUyyBMgCf2JANnjsc1p91ubk4lIbIDYcScVmA9aS8P95enLUFSen5MrpPJ6KIAfSNWhIHExHMdBIsM9dnKqqDedmkOrjG7dSszr/o159nlXkh7U5WmurIryghZs9dx6NGD6MqpbOTxVKFaBDMN9HoHRHBHyVLmRC6YkLGSn2CMxaGPD5kG8pMk9uOoUMzocOoy4YO2uD6GTBwWXz+k0IN99JvZ/tSzWq11Dz03SiD6QtNskr/13719hrkttYMeeDOe5Nsm+u5TxOeLPnd3BNq8FvDKQ1h/ZSzdYtVVV7NiWy75QihZALk3muYcah8zlBhlWJGoSkcxZhlgtjfRaasj/GT6HOiDS7H7lzdGZnU0NtanHMftltNh2KtU+lvfGb2lq9Ppvrtu67xlGvkbrvPI5WrVhO/zfiHcqAor5Z8+amwzDVVUe0WfEyZehcBhBpEJoDe1H6AYlFi4D4xmM8cX4q7jeT8tPQFrL5NRP7x305mV574QVo/mp69xxz3uu+S3i5Lckr9G89yMwoA3NDNVOY86A5j8kch4kRDfXxji8/dzZVVarBQ26U9sBDVTzEx9loeXt0tkjTnOLocBJVBWoSeLBQzr1K0+NoEBKgguecKzlLlaPi8JTPj1w0WeD4mIkdLA2Pd9MerjdQfqSpNtabpL+FwrupcOIoJjoL59OCp7s42hKP05/RcqcXHt6gtVFapEwIOdqoQoeuVPXp3thsUBgRz9RVuk3thdtpzcx6ap7StImRCSnLhZ3sTqIO0L55c2nvjO8QKozFizNNe0x8SkntcSp25OHxu1H/d/9oUqPNjImO1on6INV39pHAs7k+FhPOSJQGuB5RTJwv6FqEePLpmM0UqmCnJzLBn2OiSXS0nHTr/Dkr6sXPzJbqRnT0wjd58mT6bPw4qt+wNvxKcqiNPQdCZVU5VGzmEVjMI9mxOJ41nRh3ytbO1ZxRxPLcaVq3fRetXLeTHnm0PbVt21adns00/m4kx960TGJjL+SmNPRvJtExQ6A5IdxLLz5PuTOepRplC8HUlAB/gjyQNTLAwnEHOhiKzYpq7CBsKN6M/iUon5sLWeHXg6kbh+R9ufPmoyzXQEuLMcRh3xyurgogQszXwoH8Opxsz0GTxZtgLDZ6Nm9wRXJW/R9HzhX2weLkavEw8fFmWAgbRW6QHS4TEAPz1X5Efans2xj3HN7Lc/k0kv5lRy0l1jTEQJvAH64YrWrIYSw5Whg4qMNkFgO/oYxcwRx12TjJYDw0bjGohcfY8JhiGe1ZuYYqFylBb6JqteknpR3AtaaaGdQXE76gyV99Sk3rVKb8MEudADnMXqgYXYMM19mygvyiUOdZtI8jkNhklxn+LKcQERZz4hDlgJZnT9S/NPeXuTBZdqZWrR7wOqJqzaS5yesxbB+obHJuy9w03TjrV2ItPvtavW6YDsl6HVfrtkerw+N81YqVNAwh1+cLXEf/A9lhbcWRY0dAdzE4QCbZBMh/eCpwyQ/OS3Sew+Uwr1kekdBcrZj8I91Sogz17tWbCmBscN9MjYZea01Npk1MuA9uOaLcDi0mMTTLutj3O890SkGYPqdMqnmcTEXk5NgJn1HOcqUpP3JJMTnOhoi8QiA/FeHbyX45O7ZvQwqJUipP0BkQOt6DOFKR+54Zm9JPH39C7eDP8zD8enicmYdrm9wJ0fGzsVzur3VRT71R6EXV1u7oyaL+z+Gb+HMKBfb2zZ1De6Z/i9pHh9Wi5qZKdDZUQ7PjccTUm6t25NVZj73aBc89bCq4BondcpW9gYpjUSlY/VZUSEakBQYea0Z441QnP5AQ+xRlkghTI2Cfnt1wUBMFi/ZF9Ovw1i209JXn6NiWTSqtvjZXJdXjJJUgLxJcNbzGS/3gzFdAVXDXWYDt9mn89Yat/2/Kx3Ye98qG/XZwYRxO3CcRSXJg4Txo3n6m2EMHVJQLE57Ej8PKbI2b3Xpfk1Wik2Cizs25g2XEThic5bhEq4eo4K01KQIaAZYR91eTOjvqxNwE3DQ4ut92XSszi7Bus170TGJgknbzZHsKC9j48eNp2o/fUdXa1ahk6ZLIhYP8K+ycjIyxuWH2yYH6T45ljs07XBcH0VRQiSxZvoqWrdtOjzzWkdoh3b/2xdEE2xlbTli07p+Nq26j+butwdP3aMLm4Oz4HpjmZd7kV6Oo65vQ7EQknKbaldAXnMbPZ0T2buSnOQqNx0kkN8wO/5fTyHB7JoYrf2PRZk1KPJLjYWPIBgfrcyiJcC3IRAJqgHFFen4uO1xngX9VDkSocNRWBmiyToPonMMzc8N5mctBsDaHtSqqOrQnUIEjrNjsw2sCawb2olYaa284WodxOovnH0d0W+6816miqkozjHWBtUU8lmJBMrgwJGe3ZfNKHGew5kSTvIlBHJlhbmRtEpvY4hAqv2/VGroRJRwGIGquCOq1Mf688Zo+Htpng5/BflYTJnxO0777hurWqkI33FKJ4uGzdRbkMGsW1MwCmeI+sn8Hb2a8PsTFQrN14TTMXptoCXIJtX6oNbVv3179riNu/K0/LDvTid5NG2HOfXMs+xv7+plumYL1mLFNnXHsmwIcf4fJc8TIEXQNzFI339VAFew8eeYkNITHlXyyQ8PJTvis1eCq9Fy6hkttXIQv15ZZi6k6zNG9ez9L15fiRHmOA7bpcOymlbXnstucMNe7QBpOmwzZGh1NdExfHVVQFeNlEtIWjJ/0Fd1Q73a6tVFjlEOBLyr6ynI8z+sYPqx1Zn8cTn/A0WjsTL9/8zb684fp1KrpPdSpc2eY8SJ95O52uHGLFku6Q4T/GzFduWBq5iIxF2C9SdikRxEAT9QR18w5DSe3/UsX095fZ1DMjm3OpGB1H2sSvPqYRHOWV0tgtiVRZeD46LBmAPdmQdKygqj2XaLx3XRd+QqUjQtOevyDVKisMp85USVupMFNFcyvtRcP/s4+DSVuKDjJoifRq/+m9Z+MgRZrr1KjmyYstWHhj2P+cfxy+F9ZMBmKN7mHyjZvRdmRTIupBpMyeyO0Vdm287H+3W0T18SHN3K1sLG5Cn/isWnEQuV/ePVftG/OLDq6YQ1O6vAxACFRsmFtmc3UPE486jfdH+6bx4dH/19hhT98fxZsggVuu52KNWpK+eG7kRUyYxmxxPldZhSCKQ/zmebf9bAI5Kdg42UvoqYsNT560WdtiI7ImImifZ8hO3BW+JbcVqs6Nt5clAUakVwZkUIA7T8WGwOsoKGCWvsYwol/+305zr0ZqeuTT1HTJk29OTNs05saDwpfrZ/0nXi2BsdfdIk5Ts156PgLOCd1LfctqFQ95oP3aQtqMt1QvhgVhn/FtTDNHUUyPSYzEayuh7nnAsxJ2fF9RhCQcxcz0EmQvjj45rC2L0sETEDxp+gCTrDsPHwBfi854YOQIxcySWdAan+ohE5AU8iqobx5URAShOYUSAlrV5gUcLSKSr+AVAK8rrAWJwfedeTgQTrMjsj4jytgc4Hfwwj3Z98dJlTZoG3KhNw6rD3g+cHFMq+FszI/i39jgnUSflHKHAXyw1Fi8SA4BzZvpZOI0GreuAk9jXD0vOwoytpDrvHlWRNMzZ5OocH48TiYiQKkX4z/HFqbzFQZ8s/JfijwS4pAKYws7JytNK/IJwST3o5NG2jBr7OhvbpI3bo+SU0RZaV9/gLJ35atSWjd8kDZhMgcK25aQT32TWJgauhtTaAaL5jnm9avpw8/+pDWRm1VSTRLIiFeJmzoJ0F2mGzy4cRZIBCxeCKG9q7egIPeDrr/7hbIGdVZZYvmj5vZ2Rz3Wquh+2pHTZqmKz1L3LRd/J3psG+uDyYuWt7mIUebrrVGfM6c2TTus09RVDgv3flwayqAjOZH4Q+mdNxYxM9CM3kEmkquh8VazuUzfqEz+w9S18cfp3vuba4SEZoO5m7rOfdFiE74SVyKnmhONHMz1epec9CYpwQ1iDwaBN4UObw7Dnb2E0gyeAC1oKLx59SuHRQPRswLmTPw3Rd9x6TCgxh5bmBDz4F09fmr3kqFa91OeeHklg0q8sxYMFWWVN5cjU3E3jg1CG4bjNvm4hO2zQTL+uPdJLm/vDiiP1x13HG4Tbp5+ZAttJQ1N1mwsOvaWG7mM71Q6c3RzgNjkwxzMbCJj3dyYzFTERUsG5xkOFIk9vBhVX08evlSOrZxHZ3B5nMejojcLy0fXUNLOy2rNnkmPxsd2V+Ckx1mL1qS8levToWq16I8cPqMwOk+M/w8tIyUydHY6P2d8My+6P6bRMd0suTv3ZKIuW0kNkY2STBPuttQ2+37779DXppF6OEFKgTNR0GYctgJ/Sg29cPA7RicNXPCObdJk2bIgPsAlUBNK60t0Cc5c+yZ489chO326/FmR5eYGNih8uY8NPvB9xwF4fht0W/03beTaRciBXPkzgFSg/EHXwwOJ45FYkFH68BaSWWlQyJAJ2dWZpxowSBwUEEkEmuN2OcNDtqZ4SCclYu9gojEQ7PCJ+OMcGbKDlNVJjyLywNwskLlXI/5mxnOvZy7hskO38NkgB2Oj6OUgCpVgrewGYBNXuyEzBmmc6AeFkfrcC4TJha827CWR+UywYe1Cnytil5EjaqjKOJJ6EtV5EPq0O4xqolomQj2CVKbS9Ikg7aGw6ll5NQ0ioragWis6TRv3hxUMY+DKasQFSxeRGV3jocG4whKUuxDyPo10CA1uqsxPYS6SKVLl0lysHIj8aaZxV9yS5P4uOWG4eeazvcmCbBJkLki6d/MA6s25+jvjkImCxbMp++mfU97Dh5AQr288Edjc2GEo3kDiT2BTNUJIJU14bjb7pF2qpYXaz/4GfYBU7fNHuf2wc2e6zaJsfvh78DguwI7/3Lbs3SkIsubf+d/70HE5IwZM2j2/HmoW3eBiiCSsAiKk3KNuGM4IO5D9vDjiEKLwBi/s359ehi+hmVUdXMnW7c9zkz56zVJTFduEroC32mTjRaSm3pVb4R6ALkOJnypEwpeZJ8R/IlDvoVTe/fiz26YUvbChBKNxGZO9kn9yQRmHAFzTg6om3MUKUY54RSYFScqzp6aiVXPGGSOcsQhIfaGaU4stSB6nHb1881TjrMIOuzEn21Y32dOFt1fNTmVlirRkdm83t9mrhyCPWQimBbDbYLbEQh2NlB+pj7BmRoXr7w8hIPbzb4UF6CmZWJ6FrVsTiJ/zGn49ZzCafssNp7z2EwSFxVMZpgaOJotAicflg87FedAdEyW7NjksIFx9B1HNLjJSC9muu/moq9lYKqcbXLgL1JJy9FW2euxqxch3X+TwJty1Vof/p1z7BxGJM2mjZtoE0pCcK4WLgfAfjtFYRKphGRoFVEHqwASg3GBSCaC+j22zJyTXqIDub9TqB5Xdr/tE7D9fLeFXG9c/G5OcncSfnTbQeA4cd8umI2OooaUrYH0jl3vC9wMsR42j//Z6T1Vuz04qEd4rrGfq57gWKa8XnraUV9txnyf0iCaWt/EU4RzjWNnZZLGSfnKwoG0KnwqSsF0kg3EmzdlbTbT8taHNY2zP9z4+rMwX7D8N27ciD8bVGFXLm7J2qOiWJsqVaqIbMrw54H8FXHDx1yPzPXGlJczzp2DhBv5NddbPV/s++1xws/Tc0P/PZD20163TW0Pt4mJKzuDR6E0yOq1a2jHrl0oJXLci3X5cuWpWpUqKFhbQuWk0euNMw8TCySb7QxE3gKRFpPEaRzctNv2GuDWf1Orq9tm9p2/Y63eISSf/GfLZlSw34Soy30qySYTOc5yXhEH7ZtBpjkhIBN5f3Ln722zm26jmzwv9XdiurIQdts0tTBDEYa5mZjX8+anfmMTlzJFOaYOrRr0TnyPWoRPz15zirMuek1JznMdbxJ7sdCLg54gbiccNy1AohbDebpeHEPpc3KuMSeu28ZoPsveHPk3OyLBXDBt7DU2bhu82T8mj6yOcpePB22TVOIrvkffx/dq/Zy5mDjaoEQSaGJsts38u8+Y8YwFU5b+5M33uW0g5tg1SWUgTBLlwpg4GVV1v/h52v9AExBOsmm2y26jKWdzPOq2mbKwsbA3AXs8m6Qt0N/1c3R2WGMKJTpmhTKQdShe0GvdSFKwm7SJ1yEN5sckESYG+hStfb5MomwSY32PlkUw+TOB4vWFTTbaFKjbY8tfR6qac9EkHPbhUcvdX5/M3/nvJkFzW5fc+uRvHJk4+BsvGlOvdlBpPRyNNc959oFU899D3u210+6XOX9NTaVeZ+25ax6kbQJnjgs3Yum23tuYme2x/+4jd3Peo/OB5G72xZ7jun/6wBNsFlyK34XoWKgGqxXktunY35mC5smhTtqejVLbd9xYvHaEdQaGrvbtLHj6Hcr7Hx9/hMzfIAkUoRDoROHzbs/EtjUqur3OouSrITL/rXExI6ncJoX5Tt2fQO23J5nb5mhu8vqZ3ndrfK3TmI2lKR99r4+ZSK+GprwMTYbZhkD9sf2l3DZ3GyPfzS9Re+IPCzeM9Xdmv/l+N7u62/hz036aZNWN3JnvMueR28Lp5kem77Fl5c80cKV8BC7F4u32TNv07jZ//a1hZqSSSVrcMDNN3PodbvLRbXTTYpoOxm5k15yngQi+d200MoQHGvfmmmKSMJtc+hv7er3zN/bM9ug+2vPd31g35WW2x+6/23rmJmu3eW622/67SZ78zRXTt8jNEmCuiXa/r9T8E6JjrRb25DMXf5sZu53E/S3mPpPCOq15J7TnL6ZzstYIuBECt8kSaPLpzcNU9doDXV8TbHN1+93fszSG/Lub74X9rECbgj3BQ9ng/S3sbpupkp92QDYa4uOIzERGy8pwTDLfYy4Y/sicvTCZC6gtBxuTYOPMHhtuvjD+NClum4o/mbi1w16g/Y1Ts4/BnmPKyq0tgRbv5PQnGCEx5WqO62CHBVPW/nA38fA3jwP13W09CjRu9G829va7+d/2eA40l+128L+DaXjMdgZb6/Tz/ZFZf5u7+Q43IsS/+ztkBJt/ocxxf2Mr2JptyinQtW5kSJMO04ykn2f6Oenv7L0hWL99Dnq8LuoDvXGjOf/FRyfYCnOZfrdPqnrS2Bu0uZgH25Ts323CZA9kt+v5Oze/lnDA4kY03E4M9kbuTw0byiId6JpQ7rcXM1tzwM+wNUf+To3+NslwYGu208bZbXMMtGDa7bEJhDluAmlPbCISaGMwx0EobQtFdsFkb2/AbnKwZWZvYm4ytdvvTx5uuPprU6C5E6hNJuZum0UgWbq1OxTZ6HfqZ+v2hYpDKIQoEAE332tiHGis+hvz/uZmSp+rn+dP05qctcAeP26HM3/fBXpPsOfa8g2VFLnNf3NsBDqEuBFGt73DxDc5WIbrWtHohAtJeY4gIAgIAoKAICAIpDoEhOikOpFIgwQBQUAQEAQEAUEgXAgI0QkXkvIcQUAQEAQEAUFAEEh1CAjRSXUikQYJAoKAICAICAKCQLgQEKITLiTlOYKAICAICAKCgCCQ6hAQopPqRCINEgQEAUFAEBAEBIFwISBEJ1xIynMEAUFAEBAEBAFBINUhIEQn1YlEGiQICAKCgCAgCAgC4UJAiE64kJTnCAKCgCAgCAgCgkCqQ0CITqoTiTRIEBAEBAFBQBAQBMKFgBCdcCEpzxEEBAFBQBAQBASBVIeAEJ1UJxJpkCAgCAgCgoAgIAiECwEhOuFCUp4jCAgCgoAgIAgIAqkOASE6qU4k0iBBQBAQBAQBQUAQCBcCQnTChaQ8RxAQBAQBQUAQEARSHQJCdFKdSKRBgoAgIAgIAoKAIBAuBITohAtJeY4gIAgIAoKAICAIpDoEhOikOpFIgwQBQUAQEAQEAUEgXAgI0QkXkvIcQUAQEAQEAUFAEEh1CAjRSXUikQYJAoKAICAICAKCQLgQEKITLiTlOYKAICAICAKCgCCQ6hAQopPqRCINEgQEAUFAEBAEBIFwISBEJ1xIynMEAUFAEBAEBAFBINUhIEQn1YlEGiQICAKCgCAgCAgC4UJAiE64kJTnCAKCgCAgCAgCgkCqQ0CITqoTiTRIEBAEBAFBQBAQBMKFgBCdcCEpzxEEBAFBQBAQBASBVIeAEJ1UJxJpkCAgCAgCgoAgIAiECwEhOuFCUp4jCAgCgoAgIAgIAqkOASE6qU4k0iBBQBAQBAQBQUAQCBcCQnTChaQ8RxAQBAQBQUAQEARSHQJCdFKdSFJngxa8UofueGupalyhCr3p943vUtkMqbOt0qqUIXB6zSCqXHMwRcWdo0yZytE7yzZQz+qZUvYwuUsQSCUIvN+qNPX8YadqTcV7xtGGnzqnkpZJMy4XAkJ0LhfSafw9QnTSuABDaL4QnRBAkkvCisDFuG30Vuv7aOj0zZS1RD16c8rP1LVmRFjfIUQnrHCmyYcJ0UmTYrv8jRaic/kxv9xvFKJzuRGX9x2d0pmKPTyeznigKFHjdfpzeX8qdE34sBGiEz4s0+qThOikVcld5nYL0bnMgF+B1wnRuQKgp/NXCtFJ5wPgMnVfiM5lAjqtv0aITlqXYPD2C9EJjpFcEV4ExHQVXjzlae4ICNGRkRESAkJ0QoIpTV8kRCdNi08a7wcBMV3J0BCiI2MgJASE6IQEU5q+SIhOmhafNF6IjowBPwgI0ZGhERICQnRCgilNXyREJ02LTxovREfGgBAdGQP/BQEhOv8FvbRxrxCdtCEnaWXyEBDTVfLwuhqvFo3O1SjVS9AnITqXANRU9kghOqlMINKcsCAgRCcsMKbphwjRSdPi+2+NT0g4Rwf+nkZD3xpFPy3ZQvv3H1H5LLJE5qciJW+k1t3fplc630aRWYhSSnQunN5E37z7Lr3z5S8UtfcgHY89jzdEUL5CRahSnfuoT78B1KJKziQd4baNvv8GZDTdoX6LzNeafo3+mmpnCC3BxvaxD9DN3aY5/clclybuW0gP5PtvqZwvnN5Fv0wcSxMn/0KLt+6j43sO0ilPy3PnL0plKt1D3V5/iTrWu54yB2mmv8WX8fp04CD6eNpC+mfrAfX8zBHXUZEyN1MbQx7JkfyZY2u6Rz/xAAAbTElEQVTpy6FD8czfDBlEUsFiJei25t1o6OAuVDFPFroURCelzzwy6THK9+hE1c1QMnEnJJyhldNH0ocjp9Lszbvo6P6jntws3M9IKlamPrV4/Fl6vl01yhpENjz2ti3+ika9/QFN+3M77T10QrVDz4v72w+gvs80pEKYF4E+Zh+yXduMZsT+RHdmvIZO7Z5DA596hT7/bS0djjmnntv7k900tPW1yRGr67VO2z+mYW9NogWrt/rM6aIlq1PH59/0YhDKnE5I2EA9KjekD9cfVu9r3HcZzfq/24K2MyHhO2p0XUead+J0wCzbKX/+Gdo0fxwNf3M8zV4f5ZVRzusKUfGytenxl4bSU63KKVmnlOgcWTeT3nl3GH0za5MXR56LBYuUoYYte1C/Ae2pXI7Q1iM9pkaP+pRmLttG0d61g9fCPFSgeCVq1vqFkMZVUPDlgiQICNFJp4MiPnoBPftwF/ps0Q5vsi43KPKXepi+XjKRMrz/v2SVgOCJvfLzrtTm2a8p6kR8AJQjqW770TR1bLskG8fBH7pShYfG0XHmRpSHXvxhHw1tEXwzSEg4QW82upn6zduj3lu+4Xu0Yl5PigxtTUrSVg6BHdW9Aw2dsoKiT6vGBPhE0A11X6Dv5vSjigF2VLfFd9u0p6lJp3EB8SpepStN/nUM3V4oOGlLSDhM373cjp4ePT9gu6+NuJ56TfidBpT7LOwlIC4H0Yma8zq17fQeLd8bE1AyJtnwd2Go8yJ34dtpMLL49qgb6fedbkTnlr/forqNBtHG43E+9z01/ix90CH42A7UQSZQz7TsQOP/OhAQh8LlH6UvF04IaU6nnIhcOqJzYvNX1K7Vc/TT5kMB+1mu1uv0w4J+NK9tmWSVgOD5PrJDa+r/zWrvQcbtRVkjy1LPj2bR4DalAh5sQm2vlF25dJuxEJ1Lh22qfXJ89FS655YuNHffSZ82slYiRxZmAxfo1NFDHu0LUa6Cral32+30xnur1PXBTti8wX7esRE9/cUaHxKln59wIdY4cTtNqHzvOFowvTPlMchIQsIcur/oQ/TDfmcDq9F2Kq2Y9EBQXM8d/YzqXf8MLTvJ+pw89NzUnTT8wRxB7/N3gblZ62v4FJ6fVV34hNof8/k20ZnWdj7d3nEKHTnPRMrRQmTG387FHqPoo6d9mla00vO0cO2wgLXGWAaj76+DBX6rz71mu32fnZ+eGNSO5g0eHdZaV5ea6PwzsSPV6zbJh8gljmNf2QQjOsdWjqBGzfvRqgOxXsz4BJ8vT3bKiG/OxkQrDYx3DETcSEPnr6DefkoW2ERn6s729F6NrknmHT/vvxIdt7bzcxOxiPfRQBat1IdebPw79RyxMuCcTm1E59jKgVTrjiH0z0nz8ORoRbKqsmy+/SyJTMsPF/mU3p6+W/UzWK2r+OiZ1OZ/HWja1qPGvAk0H/NT9/GraEyHYq7Lx7GVQ5IQW9Y65cqua8gltleIToqX6KA3CtEJCtHVdcHFuNXUrXpjGrfBUUXzplrzwcH02cdPKPOF/lyMO0GLJ/SiTi9MVhqGiIgIio11NoBARIc1OXNeuYNaDl3iITkRVKFuN3r/8zeoUdlEssHmlNFd29GAb9d7r7v75fk0c4ivWvynXjWo+ai/nJaGaL76e1gTuuWlOeqePMU60bxdn1LV4AoQv4LWm/W+LCWpRddX6aW+D1LVgtl9rj8WNZN6tupMX63Vp8z80EBthwbKnWCZRKdwleqUf8cGWhuTk5r3/YA+eP0BKp7dYXyOeXEstW3xGi3a45hQ2PTXcfQ2+rxHIdc2Kxm8UJ+aDF/m/b1QuVb07qSx9GD1vN7Tp/Psr6jroy+p03FmyDgTZMz0MFyL7qUkOueOfkt3V+xMc6MdA2LhSm3pw4kfJTGFsllr95/z6OOPl1PLTwfSrS5jwSb/fFrvPPQrestjunVkcYbW//gWder+rpcMRRZoTt9umEaNXMyivkTnLmrXYT998skGYlkMH/8BPVC7EF0bf4L++PZFWnzNKHrpkZRpdC7EzaEHy+JAsEdrtMI3p1MT0YmPnkSNqzxJizzyzhxRiO5+ahS9b8wXlhObmCcN6krPj14AAnwt1q54rF2OJjYQ0eG18emazejDNdHqWrfn6znz+MN96Zdtx9R1WUB43/l9DfW4xbcAro1dzgL1aciUz6mbZdrmZx7auoQmf/oDFW43nB66WQrp+l2MU/iDEJ0UApcWb+MJNa1HTXrgw9We5gc+jfBFp3ZPpFa1nvI5hQYiOsdW9qcadYcprQBvyNVajqK53/tqajR29oacLXt9mrRzHrU0No2Tf7xMNzZ4h/ae44UquHYmIWEnPV+zNr2zwlms6nefRwvHNPxP4jq9ZjT1mVicBg5qEdAvw16IA2mgTKLjNC6wLOKjP6P6N/SkZccdslms6qu0bNUgKuqyaR9e2JeqNh7lwcxdW2YCcjFuH73XpiE9Z2h/0gLR2TamFZXr8aPqSs68zWjK5hnUNAV+WKz9GtG8Nj03c7t6VrbIyjRs9h/0jB9NjS1nf2PMJDo8dvPkOUlFa4+k2d89GdS/J9QBm5I5fWLzJ3TPHc/Skv2JmkJ/czq1EB2W0ZuNqsMc7WhmmFwE0qbxNQeX9qf/NXnbR/vjj+jYaxGTnG5jltP7fjQ19oHRzTwes/B5qtB4JB3A2hWu+RTquJDrfBEQopOORsS5oxOoQZke9Idns7yr1+/084g6QR1nD/70FFVsNc5jVvGv0WHfmGFNq9DLs/9VqLJ6fPbK4QF9VezT6GPv7aMveiVqKuyF9pbWk2jZ5DZ+23xm2zt0a5VXaUNsPGXOVJnGbFhFXcqz4eHyfL5/qhqI5Br1skCE0CY6dZ/4heZ/3CSgLEztlj8Ha1sGBSs8TfNXjwwoA26rLYdwLcyXUqNjOtOWun0IrVz8ko/pM1SJ+5Lp4OSfn7tiWGOq/9Jcpf3ypzX0JTpMxu6ir9b9SvcV/g/qRatTl35Opw5nZPvA88TY1TT2CXdzkQmRKSf+3h/R8cUxgpr2nUXT3w68Nprrott8NOWfu9BjNGfvBKoRPtGHOrzlOiAgRCcdDQPTpJOcE7CtJfG3gZ/dNYpqVnyR1sayo2Vw7YuG3iQHle4ZR3/P6Oyz4S8ffCfV7LdAXR6Z9wGasXsK1cvm7llsbn5l6w+nVQueTbETckqGxv7xbalIp2/UrYF8QkyiE2pUmM8JkYpQ/zk7qN9d7MmT+LFl0H38BvgPFAypKybOaY3o/BcT5RcdKlKHLzYrjAJpykwQTT8wf1jZRCcc2kVbkKZWy00j6k/woc7p1KLRMWUUzEfQ7POFuJ+pValHaIbHz88f0THXxmBrjH5+QsIf1K5Mc5q0g01YEfCzOgCH8kRTtSn/UOd4SBNVLko2AkJ0kg1Z2ryBVbMjmpeDet7RtrgRikA9m/18Lfh8LFeX+FtozEU3ORuPuSAUKPs0Ldoyim4wTj6hEqiEhBXUqXwzmrCNHQkD+7FcKin6Cym232cSnRJwmPxzeX8qFCQq7ELcZLqzQBdaFOOYr9wcWE2iFZGjGf1w8Cdq5IcU2m06tXIA3Vx3KO2E2TEtEJ3jM5+iUi0/8kTlRVDDJybTtx/fmyytju9mRWRrFP0TBV9NxxNjT0DD4JsmwRwLmfwQ0/8yDi/HnE4NRCchYTV1rdSIxm06ouAKNcSdr7UxciM6dpRmHWhXF49tEpJozHl8JzTkc9+r473Pd90iurHhcPr55z50fbD8BiG9WS5KDgJCdJKDVhq+1l4sQl3QdZdDyblhnrqCRTeYUJqaCjctiG2O8We+MtXboZ7KUiJSXjyP7N1H/25ZRiu3b6MVs1fTzt3rafO+Yz6RLaFqdELFysxN4o/omIQ0uRqtlJqZAmGY0meGkkeHN+Fet9xF7692/LH4k69EPeo2+P/ohda3qvxPwT7mZpQccmdvjm6b76U+0dtz+oFBW+jb18oF67L391DmdGogOibBTwlhDJZHx47uTE4EnKmNtucxj5GPH65F3adu8WKeM88N1OalEdTvqcbegIOQBSYXphgBITophi5t3ei7SUZQz4lHaWQyojxCWRSTOtgmHyN/5MBMAOhPU2H6sCTnVBZKKzkK7Y9vh9Mb/zeBViKRn5P4MPDnShAdUwY3txxPa6e1D9ZM7+8pJSVXiujwezlaqsWt3ejX3cd9mpElsjjVRVK3N/o/RXXK+E8t4JY6IGTAjAuDEZ1goe0peWcoxDfQc0OZ06mB6JgyypzpRnrvrzX0VDIik4ITncScPymRg77H7cDCTsu9695D76/c7/NoTltQpX4nemXgy3SvEQn5X94v9/pHQIhOOhkdoWYq9QdHKIvipSQ6vrb2pPZw0wSRiYrToEXb6KV6vv4rKRU1R6m0aPSCEd6d9ElOfppcVCjveVq5Zqe64EoTneSo+Lm9aZHocLs5amzKgM7U2zUxopPe4OOJb1L9ElmTCO5qITrJ0UZpEEKZ06mN6KSEMF5JosNYc1qCpZ90p8c8qTrsQcjpBkZMHU9tXDLEp3TNkvt8ERCik05GhC/RKU1Df99Mz9UKPV9DKIuiuaD4JsUKHeQM19Sjr3Z8Sf9Dqnzzw+aiz9tVpscnOWpg28fI9NcI1aE0lFYlTa4YQUVurEGtH25LderUphplC1GhkgW8ZQVS4qMTTtNVIJ+BYP1Nq0RH94vzp8z8eAi9Pupb+nuXk+NEf/yFC/sSncTEcMGwsn+v3fVHmtKvms/XoY6F5L5LX3855nTqIzp30XfHZ1GzEP3OGKvkER0z+WDyJFO04TBa9kVbvzd5tcJDxtGSjdFWRvpIuvflmfT9m8GjYJPXKrmaERCik07GweVQc3/Uuhzs0U4uklCzGCcHftOXxzRf2SQouf5H/tpgP5cTfr0/ezp1CHDyCnVzC7b4urUpFBmm5Ln6XamJ6JhO1cmJsuG+6Bpurz3/Gk2Zv82bxt8t90rsxqFUrfrr9M/ZeLo20y009p8/qUOp8KQjCHUsJGcOmNeGMh4CPTuUw0tKiY6PX02mcvTOsg3Us3rSg1Uoz/+v4zLYnEhImE7N8rejWUc48WTopWZSKje+73jUIhr18rM04qd1hhk8tNQG/+W96fVeITrpRPK246IdIRAIBjtywd/G83v/+lRv0O/qUcl1hA1FDHZUlQ7nNM1ayQmxDfZO3wUwtCiuUDe3YItvSomO6YzsFsEWqM8muUiJKcTt2XbEXKj1ykKJ8gsmP/49avZz1OzBD7xJ42xNoCnjlDi6BmpDqGMhlH64jwffaKRLMacTEvbQy3Vuo2FLnfpZoR5gQo3gC4Xo2NGGbhFu/jC01z33qKstcGrHIWb1QfWYcB2UQpGrnbwxuaQ+lHfINaLRSTdjwK4Gnq9kV1oQ9RHdFEICKzspmb/JaJqPwkk4TCGZp1CdjTQWla5Lt5uoVMHBEgomR+ApOUmaURhXwkfnwMRELJLjq2RHtoWL6Nhah1Aig0LN8RKqLE0ndZv82Rt5OHPdXHqicw71zG5APbMdCopLMaf5uSlJhRBqTqZQiI59TXKK9PomGvSfMNCMGE3O80Mdg4GuMwMtsl2bfNNcONpwtT9DNDpXu4SN/pkTilW0oWQXTZpiPlBmZN8inKFk+00u/GbmY4dM/UK7n6jkWezDq3ZOLtGxay9dCaJjk9JKTcbQb788GTS3jF02InxEx/e0HIr/lN2W/3rKNQmHW700M1lctux16YutC+nBMGQvvtREh+dOSud0klpoFXrT7xvfdS0Ua2pqQ8k2fjFuCbW/6T6a6KkFFWgshUJ0uJ8mWeXnDf39b/gYRgRcPuyyEXyxP38485DGB4T+czYiGadvPbvkrlWhXm+uM+E2n4bahqv9OiE6V7uEjf7Zaf6D1YthkrNhfEdq0HWqt/wDPy7QxmOe5Lh+U7exS+n9LqWDlpk4sm4MdRmZk6aNeyzI4mWq0iPoyc/H04FXuqgK58k50YYidt8q6IETlV2M20ZD7mtK/WZHeR99JYgOy+zLjlWR6XeTpx3B09m71TMLF9GxN6ngNb2m0j23dAmpttr3wwdR2Sdfo8o5/GdaZDymdKtBbT5Zp/BwS85oZ88tUulp+mXZyIDP5WdxtNc3z/elEx2/oCetgo78++UgOpdjTttakcr3jqMF0/3VrzsMLVMdHDy2eudBOIjOmW0jqVb1l1H49qx6bmSBZvT16hl0tx9CypFOP7/QiB4a/oeP06//Wle+NfL4+ROWf0ctSyaN1DPXDn7Pkvceo58LTqIhVrqOZePepuONelLTIM/Y9N69VLHPz06/QixcHMr6JdckIiBEJ52Nhn8mtqPbO07xEpdrI66nx17/kAZYCay4uvgH3TvQG9+sobM4Qd15Z0aaNctJkx+I6NgVgLk6+i3NetJb7/amhhXy+BAejkLYsPgLevPVkTTzzygqgfIPG37qHFQi5im2Qr16dO7PpaqIaIsB6+mH1ysGvT/UC2wTCm/Sj749ncb0rOlNRmdXAC9ZsiTt2rVLveJKEB1+r1ukWPWW/Wjk8B4+OWXsCvXVGjehY4vmhzUzMrfH1MLxv3nMdR4+mYa5VAbv8vQoWr73PNWoUQGREn8HHG9sUnlu9lmq82BvGgSyW7N80vH125jHqU2/6ahizXmP/PtZ2fMid+Eq1LHf+/Ra+zqU11NJXo+bmIMrafI7Q2j4p3Npx4nCfh1tLwfR4Ta5zWkbXyUHc05Da1GnfgQtWuREMQaa00nnQQRVbzmUvvj0CaqYJzEr47GomdSvc0/6bNEOylu9OuXatE7VnAsH0VFFN1+5g1oOXeIlLjkL3EY9h7+fJDmk2Y5MqC9W84bVNHfJYdXPQBGOx1YOpFp3DPH6c3EF+wd6D6FBvZpTKaOfDpbbac7nb3sj/NySDDpm9g1Y/7rQq6/1pbtRrd5Miswkaf2P/alNp9G08TiXzQlPEeJQ17f0dJ0QnfQkbfSVfTF+6H03PTpqaZLwxoLFIokzzyTEnaS9h054kHHCHp9JeJ6aDF0WdFF032idRzm5ZvTCGO+TRTjYImSKyTTPZI6IoEyxsXQhzBEz+n12QVP+npN95cuTnTg251zsMYo+6lSB5iKmX/XZTw27TFb/vlJEh9+9e8FLdFeL93wqN/P3ufMXpRxZWAPii3+JKs/T1LER1LbeEEUaw6nRcdukbBzPxkTT4RiueO9UW5/aZj5VaDcp4Hiz8zYFG1+BNRFJN1JnDPiGG5vy5l8D4XS5iA6baKb2aE4dP/zzks1pmwTY2JhrBmtDJq1uTyNu7ELzTpwOC9Hh9yUk7ELR4LtQNNiJ7NQff/NRpxQo/0M9aJh2qsuDpXKwSaN+R+K8sddH5wr/RGepaztRRpdOHT3kk3g0lCLIPh2Xf4SMgBCdkKG6ei7kk8SswQ9Qx2FzPSdd977xyfvx96bTyC430eJX+XTiTNpQfCbioxfQsw93Uac7dhIO/Imgojc2oeFfh5Y0y3as5mdfKgdCftfyMY9Qixd/DIhV8SpdafKvY6jC/A6U79GJqrtXkujw+w8tfZvufWgINCQxAeCPoBoth9PUr7tR/i2DqXLNwWEnOvxy3ozHd2lKPT/7yxvunbRREXRT44E048c+lPP79l4c/Y23cW0r0BOTE00k/jsZSXXbjwaRa0eFApSFYFmv/LwrtXn2a4o6ER9s0IK4F6d7uo6iDwa3cH3u5SI6Dr6Xfk5vm/Y0Nek0LiA21xW+i0bP/ZHa3vgzNbquY1iJDveTzYXjnrqPngs4jlApHtqe1yZ8Ty80LRI0j44t6Kg5r1PbTu8FmTfOXUyyatz9Bk34vAeVs0yoiwfdQY37Lwxp/atQtw9N+WVgUHNp0EEpF7giIEQnHQ+MU7uX0sihb9CkGavp390H1QbEE7dgkTLUEOnz+w1o7528oeTcsKHU+UyGvjWKZi7bRtF7nHfwhxMK5itWnu5s8jB16PJwErNDMLEc/KErVXhonKegY+iV0oM919/vjNWI/i/S+FmbaP/+I2rxYg1CmQp1qc0zr9Hz7aoptXSom9ulCi+3288bw6wP3qYhE36kzTv3ebQmrKUoQpXq3Ed9+g2gFp68QMl1vk4JlkfWTaGBA0fRT79toKiDjtaQx0LxcndR77cHUsd61yvzZmi1rs7Rgb+n0dsjx9HsBRto35HEE3Li+OpEfV5u42NiCdZuJ/HgCPo/YLZ1z2Gvxo7NsAWLFaCyN91J93d9jDo0rp3ErGU+O9SxEKw9yfk9pXO6SKXnafHaYVQqSBTmhdOb6NOBg+jjaQvpH5RCMdeMll2H0as9GyrSF2om9lCdkW0MvONoyRaf+Vik5I10f/sB1PcZpx38Sclc08n93n7/W/or6oCh4XY0fCUr1Kd722AMtK6fxKxltpXz5Xzwzrv0/RyssdEHvFpLXjsKFShJ1Rs9SM8+F7hMSXLkL9e6IyBER0aGICAICALpEIGUFuFNh1BJl9M4AkJ00rgApfmCgCAgCCQXAVuTcvfLq2jmEN8SFsl9plwvCKRWBITopFbJSLsEAUFAELhECJgh4+HOCH2JmiyPFQRSjIAQnRRDJzcKAoKAIJD2EOBw8Zfr1EVZh32q8eHOP5X2EJEWX+0ICNG52iUs/RMEBIGrGoGx3RrRkSYfUJ9W5X3ytLh1WkUtPXE39f5yrScaKAK1nTbRF72KX9UYSefSNwJCdNK3/KX3goAgkMYR0FFF+YrXoIcef5G6PtmUqhb0LV9w4fRh+u2Ht+ilFz/1CZsOlFsojcMizRcEvAgI0ZHBIAgIAoJAGkbATpzIXTGTJ/omAE3sKCeJ/GXZUKpoputNwzhI0wUBfwgI0ZGxIQgIAoJAGkZg0Tst6NFBv9LeE05m6WCfYIkOg90vvwsCaQ0BITppTWLSXkFAEBAELAQ4wd2fv35In348nRau20VHfMoLcKLDSCpWxkly9/hjjai4Vb9LABUErmYEhOhczdKVvgkCgoAgIAgIAukcASE66XwASPcFAUFAEBAEBIGrGQEhOlezdKVvgoAgIAgIAoJAOkdAiE46HwDSfUFAEBAEBAFB4GpGQIjO1Sxd6ZsgIAgIAoKAIJDOERCik84HgHRfEBAEBAFBQBC4mhEQonM1S1f6JggIAoKAICAIpHMEhOik8wEg3RcEBAFBQBAQBK5mBIToXM3Slb4JAoKAICAICALpHAEhOul8AEj3BQFBQBAQBASBqxkBITpXs3Slb4KAICAICAKCQDpHQIhOOh8A0n1BQBAQBAQBQeBqRkCIztUsXembICAICAKCgCCQzhEQopPOB4B0XxAQBAQBQUAQuJoR0ETn/wHaQx0KDTpd1wAAAABJRU5ErkJggg==;clipPath=inset(20.06% 4.67% 20.06% 9.33%);" vertex="1" parent="1">
          <mxGeometry x="270" y="10" width="305.68" height="118.48062015503876" as="geometry" />
        </mxCell>
        <object label="" tooltip="Python is not officially supported, however, python bindings to some of cisTEM&#39;s programs are in the works!&#xa;" id="KdMMTkpKPgB6Y6iA82Rx-5">
          <mxCell style="shape=image;html=1;verticalAlign=top;verticalLabelPosition=bottom;labelBackgroundColor=#ffffff;imageAspect=0;aspect=fixed;image=https://cdn4.iconfinder.com/data/icons/scripting-and-programming-languages/512/660277-Python_logo-128.png" vertex="1" parent="1">
            <mxGeometry x="130" y="180" width="120" height="120" as="geometry" />
          </mxCell>
        </object>
        <mxCell id="KdMMTkpKPgB6Y6iA82Rx-7" value="" style="group" vertex="1" connectable="0" parent="1">
          <mxGeometry x="620" y="495" width="80" height="110" as="geometry" />
        </mxCell>
        <mxCell id="KdMMTkpKPgB6Y6iA82Rx-2" value="" style="image;html=1;image=img/lib/clip_art/computers/Database_128x128.png" vertex="1" parent="KdMMTkpKPgB6Y6iA82Rx-7">
          <mxGeometry y="30" width="80" height="80" as="geometry" />
        </mxCell>
        <mxCell id="KdMMTkpKPgB6Y6iA82Rx-6" value="&lt;font style=&quot;font-size: 14px&quot;&gt;&lt;b&gt;database&lt;/b&gt;&lt;/font&gt;" style="text;html=1;align=center;verticalAlign=middle;resizable=0;points=[];autosize=1;strokeColor=none;fillColor=none;" vertex="1" parent="KdMMTkpKPgB6Y6iA82Rx-7">
          <mxGeometry width="80" height="20" as="geometry" />
        </mxCell>
        <mxCell id="KdMMTkpKPgB6Y6iA82Rx-10" value="" style="shape=flexArrow;endArrow=classic;startArrow=classic;html=1;rounded=0;startWidth=18;startSize=5.67;" edge="1" parent="1">
          <mxGeometry width="100" height="100" relative="1" as="geometry">
            <mxPoint x="500" y="250" as="sourcePoint" />
            <mxPoint x="590" y="280" as="targetPoint" />
            <Array as="points">
              <mxPoint x="530" y="260" />
            </Array>
          </mxGeometry>
        </mxCell>
        <mxCell id="KdMMTkpKPgB6Y6iA82Rx-11" value="" style="shape=flexArrow;endArrow=classic;startArrow=classic;html=1;rounded=0;startWidth=18;startSize=5.67;" edge="1" parent="1">
          <mxGeometry width="100" height="100" relative="1" as="geometry">
            <mxPoint x="660" y="400" as="sourcePoint" />
            <mxPoint x="660" y="480" as="targetPoint" />
          </mxGeometry>
        </mxCell>
        <mxCell id="KdMMTkpKPgB6Y6iA82Rx-12" value="" style="group" vertex="1" connectable="0" parent="1">
          <mxGeometry x="620" y="250" width="130" height="160" as="geometry" />
        </mxCell>
        <object label="" tooltip="The GUI is just another program inside cisTEM. In addition to being a user interface, it also provides mechanisms for parallelism and managing the state of complex projects via interaction with the (sqlite) database." id="KdMMTkpKPgB6Y6iA82Rx-3">
          <mxCell style="shape=image;html=1;verticalAlign=top;verticalLabelPosition=bottom;labelBackgroundColor=#ffffff;imageAspect=0;aspect=fixed;image=https://cdn1.iconfinder.com/data/icons/Futurosoft%20Icons%200.5.2/128x128/apps/menuk-mdk.png" vertex="1" parent="KdMMTkpKPgB6Y6iA82Rx-12">
            <mxGeometry y="30" width="130" height="130" as="geometry" />
          </mxCell>
        </object>
        <mxCell id="KdMMTkpKPgB6Y6iA82Rx-8" value="&lt;font style=&quot;font-size: 14px&quot;&gt;&lt;b&gt;gui&lt;/b&gt;&lt;/font&gt;" style="text;html=1;align=center;verticalAlign=middle;resizable=0;points=[];autosize=1;strokeColor=none;fillColor=none;" vertex="1" parent="KdMMTkpKPgB6Y6iA82Rx-12">
          <mxGeometry x="25" width="40" height="20" as="geometry" />
        </mxCell>
        <mxCell id="KdMMTkpKPgB6Y6iA82Rx-13" value="" style="group" vertex="1" connectable="0" parent="1">
          <mxGeometry x="375" y="160" width="100" height="130" as="geometry" />
        </mxCell>
        <object label="" tooltip="The primary way that tasks are carried out in cisTEM is via a library of precompiled c++ programs.&#xa;&#xa;These can be run:&#xa;a) Interactively from the command line&#xa;b) Via the scripting interface&#xa;c) Called from the GUI&#xa;  - See note on socket communication&#xa;" id="KdMMTkpKPgB6Y6iA82Rx-4">
          <mxCell style="shape=image;html=1;verticalAlign=top;verticalLabelPosition=bottom;labelBackgroundColor=#ffffff;imageAspect=0;aspect=fixed;image=https://cdn3.iconfinder.com/data/icons/UltimateGnome/128x128/mimetypes/text-x-c-plus--plus.png" vertex="1" parent="KdMMTkpKPgB6Y6iA82Rx-13">
            <mxGeometry y="30" width="100" height="100" as="geometry" />
          </mxCell>
        </object>
        <mxCell id="KdMMTkpKPgB6Y6iA82Rx-9" value="&lt;font style=&quot;font-size: 14px&quot;&gt;&lt;b&gt;programs&lt;/b&gt;&lt;/font&gt;" style="text;html=1;align=center;verticalAlign=middle;resizable=0;points=[];autosize=1;strokeColor=none;fillColor=none;" vertex="1" parent="KdMMTkpKPgB6Y6iA82Rx-13">
          <mxGeometry x="10" width="80" height="20" as="geometry" />
        </mxCell>
        <mxCell id="KdMMTkpKPgB6Y6iA82Rx-15" style="edgeStyle=orthogonalEdgeStyle;rounded=0;orthogonalLoop=1;jettySize=auto;html=1;exitX=0;exitY=0.5;exitDx=0;exitDy=0;entryX=1;entryY=0.5;entryDx=0;entryDy=0;fontSize=14;dashed=1;" edge="1" parent="1" source="KdMMTkpKPgB6Y6iA82Rx-4" target="KdMMTkpKPgB6Y6iA82Rx-5">
          <mxGeometry relative="1" as="geometry" />
        </mxCell>
      </root>
    </mxGraphModel>
  </diagram>
</mxfile>
